<?xml version="1.0" encoding="UTF-8" standalone="no"?>
<!-- Created with Inkscape (http://www.inkscape.org/) -->

<svg
   width="210mm"
   height="297mm"
   viewBox="0 0 210 297"
   version="1.1"
   id="svg1"
   xml:space="preserve"
   sodipodi:docname="arrow.svg"
   inkscape:version="1.4.3 (0d15f75, 2025-12-25)"
   xmlns:inkscape="http://www.inkscape.org/namespaces/inkscape"
   xmlns:sodipodi="http://sodipodi.sourceforge.net/DTD/sodipodi-0.dtd"
   xmlns="http://www.w3.org/2000/svg"
   xmlns:svg="http://www.w3.org/2000/svg"><sodipodi:namedview
     id="namedview1"
     pagecolor="#ffffff"
     bordercolor="#000000"
     borderopacity="0.25"
     inkscape:showpageshadow="2"
     inkscape:pageopacity="0.0"
     inkscape:pagecheckerboard="0"
     inkscape:deskcolor="#d1d1d1"
     inkscape:document-units="mm"
     inkscape:zoom="0.89887065"
     inkscape:cx="397.16504"
     inkscape:cy="561.25984"
     inkscape:window-width="1024"
     inkscape:window-height="1186"
     inkscape:window-x="0"
     inkscape:window-y="30"
     inkscape:window-maximized="0"
     inkscape:current-layer="svg1" /><defs
     id="defs1" /><g
     id="layer1"><path
       style="display:inline;fill:#000000"
       d="m 20.791915,107.07444 -0.318186,-0.43834 -1.876323,-10.480515 -1.876324,-10.480518 -0.322693,-2.266756 -0.322693,-2.266756 0.09111,-0.309714 0.09111,-0.309714 0.587761,-0.283535 0.587762,-0.283536 0.808401,0.237804 0.808401,0.237805 0.580685,-0.162055 0.580685,-0.162055 2.897793,1.215681 2.897792,1.215681 0.885555,0.39386 0.885554,0.39386 0.810656,-1.648978 0.810656,-1.648978 1.386843,-1.992241 1.386844,-1.992241 1.677097,-1.794942 1.677097,-1.794941 2.270448,-1.814253 2.270449,-1.814253 2.109589,-1.172088 2.109588,-1.172089 2.129096,-0.74799 2.129096,-0.74799 3.797194,-0.720268 3.797195,-0.720269 2.069429,-0.0033 2.06943,-0.0033 1.681676,-0.0254 1.681676,-0.0254 1.51777,0.446476 1.517771,0.446477 0.305434,-0.147639 0.305434,-0.147639 4.146849,0.903732 4.14685,0.903731 2.981879,1.113802 2.98188,1.113801 -1.54347,-0.378325 -1.543471,-0.378326 1.073302,0.57032 1.073302,0.570319 1.828922,0.694433 1.828922,0.694432 -0.413202,0.118175 -0.413202,0.118174 0.684942,0.20571 0.684943,0.20571 0.605974,0.522999 0.605973,0.522999 -2.356321,-0.388331 -2.356321,-0.38833 1.448707,0.466083 1.448707,0.466083 -0.07233,0.245862 -0.07232,0.245863 -0.337764,-0.258107 -0.337764,-0.258107 -0.486426,0.03915 -0.486426,0.03915 0.297391,0.369075 0.297392,0.369075 -0.909633,-0.439492 -0.909633,-0.439493 -0.372591,0.110619 -0.372591,0.110619 -2.422266,-0.42792 -2.422265,-0.42792 -0.0114,-0.205642 -0.0114,-0.205643 -1.734685,-0.665848 -1.734685,-0.665848 0.433427,0.362356 0.433426,0.362356 -1.347955,-0.228903 -1.347955,-0.228902 -0.538616,0.118707 -0.538616,0.118707 -1.256551,-0.199907 -1.256552,-0.199907 0.08798,0.321026 0.08798,0.321026 -0.750283,-0.345753 -0.750282,-0.345754 0.05637,0.205695 0.05637,0.205694 -1.502613,-0.132426 -1.502614,-0.132427 -0.152493,-0.170014 -0.152494,-0.170014 -2.6958,0.154282 -2.6958,0.154282 -2.871081,0.579064 -2.87108,0.579064 -1.368467,0.433074 -1.368466,0.433073 -2.96411,1.638423 -2.964111,1.638423 -2.345815,2.114275 -2.345815,2.114276 -2.040204,2.717141 -2.040204,2.717141 -0.07759,0.263767 -0.07759,0.263768 2.471463,0.73946 2.471462,0.73946 0.658917,0.572682 0.658917,0.572682 -0.362189,-0.08414 -0.362188,-0.08414 0.414844,0.646857 0.414843,0.646857 -0.36361,0.02559 -0.36361,0.02559 0.412103,0.331041 0.412104,0.331042 0.844418,-0.549842 0.844419,-0.549841 -0.265893,0.47337 -0.265892,0.473371 -0.352573,0.447872 -0.352572,0.447872 0.571021,-0.239728 0.571021,-0.239728 -1.453371,1.551936 -1.453371,1.551936 0.183203,0.204253 0.183204,0.204252 0.281746,-0.3687 0.281747,-0.3687 0.109632,0.201014 0.109632,0.201013 -0.648201,0.551157 -0.648201,0.551157 -1.994865,2.058421 -1.994865,2.05842 -4.477505,3.785056 -4.477506,3.78505 -1.349513,1.18882 -1.349512,1.18883 -0.843039,-0.24799 -0.84304,-0.24799 z m 36.356621,-38.051616 0.453125,-0.134054 -0.253829,-0.07467 -0.253829,-0.07467 -0.453124,0.134053 -0.453125,0.134053 0.253829,0.07467 0.253829,0.07467 z m 24.08282,2.176849 -0.441784,-0.23847 -0.318511,0.173715 -0.318511,0.173715 0.760295,0.06476 0.760294,0.06475 z"
       id="path57988" /></g></svg>
