<?xml version="1.0" encoding="UTF-8" standalone="no"?>
<!-- Created with Inkscape (http://www.inkscape.org/) -->

<svg
   width="210mm"
   height="297mm"
   viewBox="0 0 210 297"
   version="1.1"
   id="svg1"
   xmlns="http://www.w3.org/2000/svg"
   xmlns:svg="http://www.w3.org/2000/svg">
  <defs
     id="defs1" />
  <g
     id="layer9"
     style="display:inline">
    <path
       id="path8"
       style="display:inline;fill:#0000ff;fill-opacity:1;stroke:none;stroke-width:0.1;stroke-dasharray:none"
       d="m 208.54024,53.045858 c -0.38526,-0.01552 -0.9429,0.09003 -1.78697,0.403076 -1.68815,0.626093 -4.52078,2.08315 -6.1004,2.736784 -1.57963,0.653633 -1.90615,0.503479 -2.30787,0.530717 -0.40172,0.02724 -0.87854,0.23151 -6.95203,3.908288 -6.07349,3.676778 -17.74349,10.826033 -23.72155,14.366565 -5.97805,3.540532 -6.26418,3.472326 -6.80889,2.839103 -0.5447,-0.633222 -1.34789,-1.831269 -1.95388,-2.539379 -0.60598,-0.708109 -1.01431,-0.926112 -1.52497,-1.075904 -0.51066,-0.149792 -1.1238,-0.231717 -5.16145,2.144572 -4.03764,2.37629 -11.49964,7.210533 -15.5236,9.682097 -4.02395,2.471565 -4.60953,2.580616 -5.11338,2.240173 -0.50385,-0.340444 -0.9258,-1.130491 -1.52497,-2.267562 -0.59918,-1.13707 -1.37527,-2.621173 -2.0221,-3.540352 -0.64683,-0.919178 -1.16464,-1.273196 -1.757,-1.436605 -0.59236,-0.163408 -1.25973,-0.136439 -3.78581,0.98702 -2.52607,1.12346 -6.9105,3.343452 -9.3276,4.739245 -2.4171,1.395793 -2.86666,1.967562 -3.12539,2.491838 -0.25873,0.524276 -0.32668,1.000866 -0.43563,1.280025 -0.10894,0.279159 -0.25847,0.360699 -0.63976,0.244946 -0.3813,-0.115753 -0.99429,-0.428895 -1.57303,-0.585494 -0.57875,-0.1566 -1.12358,-0.156475 -3.51348,0.919324 -2.3899,1.075799 -6.624753,3.227272 -9.001,4.616256 -2.376247,1.388984 -2.893406,2.015445 -3.084049,2.669088 -0.190643,0.653642 -0.05464,1.334653 0.244946,2.083591 0.299589,0.74897 0.762515,1.56574 0.973584,2.15129 0.21107,0.58555 0.16994,0.93976 -0.0956,1.03508 -0.265545,0.0953 -0.755478,-0.068 -1.300179,-0.0816 -0.544702,-0.0136 -1.14412,0.12224 -3.350183,1.57252 -2.206063,1.45028 -6.018635,4.21455 -8.081677,5.85545 -2.063041,1.6409 -2.376425,2.15828 -2.50579,2.6417 -0.129365,0.48342 -0.07474,0.93305 0.02739,1.25987 0.102132,0.32682 0.251853,0.53122 0.353984,0.80357 0.102131,0.27235 0.156884,0.61253 0.0956,0.87127 -0.06128,0.25873 -0.238697,0.43581 -0.551904,0.42219 -0.313207,-0.0136 -0.762131,-0.21811 -1.272791,-0.293 -0.51066,-0.0749 -1.082612,-0.0201 -2.793111,1.04024 -1.710499,1.0604 -4.559809,3.12666 -6.230627,4.53254 -1.670819,1.40588 -2.163112,2.15141 -2.279448,2.84117 -0.116335,0.68976 0.143553,1.32387 0.871265,2.43913 0.727712,1.11526 1.922876,2.71159 2.465483,3.7667 0.542606,1.05512 0.432442,1.56883 0.127124,2.00091 -0.305317,0.43208 -0.805663,0.78204 -4.131014,3.01532 -3.32535,2.23327 -9.47556,6.34923 -12.741341,8.59792 -3.26578,2.2487 -3.647001,2.63045 -3.864881,3.08664 -0.217881,0.45619 -0.272307,0.9871 -0.313159,1.36839 -0.04085,0.38129 -0.06811,0.61263 -0.578776,1.09606 -0.510664,0.48343 -1.504666,1.21886 -3.451986,2.47168 -1.947321,1.25282 -4.847535,3.02326 -6.685897,4.36459 -1.838363,1.34133 -2.614738,2.25353 -3.241145,2.99568 -0.626407,0.74216 -1.102987,1.31422 -3.874183,3.16622 -2.771197,1.852 -7.836558,4.98375 -10.485148,6.76083 -2.648591,1.77707 -2.880247,2.1991 -3.166215,2.68252 -0.285967,0.48342 -0.626455,1.02807 -0.926041,1.4366 -0.299586,0.40852 -0.558264,0.68108 -1.436605,1.68879 -0.878341,1.00771 -2.376432,2.75085 -3.8607464,4.95009 -1.4843138,2.19924 -2.9547327,4.85436 -4.0100911,7.26467 -1.0553584,2.41031 -1.6955872,4.57541 -2.0768759,6.3593 -0.3812888,1.7839 -0.5035404,3.18652 -0.4490681,4.9568 0.054472,1.77029 0.2857304,3.90821 0.714685,5.77381 0.4289546,1.8656 1.055214,3.45868 1.947168,5.24258 0.8919541,1.78391 2.0497396,3.7587 3.4251139,5.48131 1.3753736,1.72262 2.9684976,3.19328 4.5413246,4.41886 1.572827,1.22557 3.124938,2.20593 5.017782,3.14554 1.892844,0.93961 4.126423,1.83833 7.258472,2.79156 3.132049,0.95323 7.162704,1.96061 10.274308,2.69596 3.111605,0.73534 5.303871,1.19822 7.332886,1.67483 2.029016,0.47662 3.894736,0.96731 5.801196,1.82522 1.90646,0.85792 3.853774,2.08323 5.344893,3.34966 1.491119,1.26644 2.525841,2.57378 3.424597,4.1398 0.898757,1.56602 1.661151,3.39067 2.144572,5.00435 0.483421,1.61368 0.688002,3.01598 0.790133,4.55476 0.10213,1.53879 0.101966,3.21416 -0.166398,4.74079 -0.268363,1.52662 -0.805286,2.90439 -1.179773,3.94912 -0.374486,1.04472 -0.586553,1.75623 -0.638204,2.34714 -0.05165,0.59091 0.05712,1.06142 0.772046,1.28313 0.714927,0.22171 2.036143,0.19426 16.542659,0.22634 14.506516,0.0321 42.196655,0.12381 56.323695,0.17001 14.12705,0.0462 14.68888,0.047 14.86834,-0.59634 0.17946,-0.6433 0.23263,-0.30639 -0.12402,-2.56264 -0.35664,-2.25626 -0.32756,-2.07144 -2.91145,-15.80988 -2.58389,-13.73845 -7.63954,-40.51062 -10.16734,-53.89594 -2.52779,-13.38532 -2.52776,-13.38519 -2.39417,-13.72888 0.13358,-0.34371 0.40087,-1.03134 5.1387,-8.11371 4.73782,-7.08238 13.94515,-20.55829 18.56993,-27.53424 4.62478,-6.97596 4.66551,-7.45023 4.67465,-7.98142 0.009,-0.53119 -0.013,-1.11904 -0.3545,-2.0774 -0.34141,-0.95836 -1.00183,-2.28689 -3.09025,-5.6596 -2.08842,-3.37272 -5.60472,-8.78931 -7.63416,-11.76207 -2.02945,-2.97276 -2.57179,-3.50159 0.96997,-6.30556 3.54176,-2.80397 11.16729,-7.882769 15.04145,-10.708391 3.87416,-2.825622 3.99691,-3.397708 3.62924,-4.289661 -0.36768,-0.891952 -1.22604,-2.103764 -1.70946,-2.954859 -0.48342,-0.851095 -0.59219,-1.341486 -0.12919,-1.886189 0.46301,-0.544704 1.49799,-1.143584 7.42849,-5.092713 5.9305,-3.949128 16.75633,-11.248115 22.2033,-14.952059 5.44697,-3.703943 5.51487,-3.813061 5.55573,-4.017325 0.0409,-0.204264 0.0546,-0.503498 1.15083,-1.613339 1.09623,-1.10984 3.27468,-3.030192 4.47983,-4.201294 1.20514,-1.171103 1.437,-1.593194 1.51826,-2.042252 0.0813,-0.449058 0.0124,-0.925112 -0.29404,-1.265556 -0.1532,-0.170222 -0.36611,-0.306424 -0.75138,-0.321944 z m -0.46767,0.894002 h 5.2e-4 c 0.14448,0.0041 0.28291,0.07699 0.36587,0.203605 0.11748,0.18734 0.0861,0.431681 -0.0791,0.577743 l -0.01,0.01292 -3.97857,3.562573 -3.42304,3.032373 0.10025,0.153996 c 0.20258,0.312763 0.11278,0.730894 -0.19999,0.933793 l -31.20378,20.220471 0.19482,0.301274 c 0.13527,0.208297 0.076,0.487236 -0.13229,0.622184 l -2.45618,1.591117 c -0.29371,0.190516 -0.68675,0.106643 -0.87695,-0.187068 l -3.27267,-5.050338 c -0.19051,-0.293712 -0.10644,-0.686751 0.18759,-0.876949 l 2.45566,-1.591634 c 0.20862,-0.134949 0.48692,-0.07529 0.62219,0.133325 l 0.19533,0.301274 31.20327,-20.220472 c 0.31276,-0.202899 0.73089,-0.113292 0.93379,0.199471 l 0.0481,0.06718 0.0548,0.08733 4.18475,-1.85415 4.87412,-2.178679 0.0155,-0.0031 c 0.0635,-0.02778 0.13017,-0.04011 0.19585,-0.03824 z m -51.00205,22.252905 h 5.1e-4 c 0.29175,0.0097 0.56394,0.160962 0.72554,0.410311 l 9.43353,14.558285 c 0.18512,0.285773 0.19359,0.650933 0.0212,0.944645 l -0.55759,0.950329 c -0.10637,0.181308 -0.2534,0.335475 -0.42995,0.450102 l -2.75952,1.789555 c -0.13495,0.08764 -0.31599,0.04817 -0.40204,-0.08837 -0.0845,-0.133996 -0.26467,-0.168735 -0.39739,-0.08268 l -0.84285,0.54622 c -0.13367,0.08668 -0.17187,0.265463 -0.0853,0.399459 l 5.2e-4,5.17e-4 c 0.0867,0.133995 0.0484,0.312774 -0.0853,0.399458 l -14.42599,9.348264 c -0.62966,0.40834 -1.47149,0.22471 -1.87379,-0.40876 l -3.25872,-5.13043 c -1.3733,-2.05379 -3.11694,-2.490236 -4.09587,-2.558504 -0.49439,-0.03493 -0.92807,-0.345522 -1.1405,-0.793233 l -2.57917,-5.435327 c -0.29054,-0.611555 -0.0831,-1.343511 0.48524,-1.711524 l 15.88379,-10.291878 c 0.13367,-0.08669 0.31245,-0.04913 0.39946,0.08423 l 0.003,0.0036 c 0.087,0.133361 0.26526,0.171432 0.39894,0.08475 l 0.84232,-0.54622 c 0.13526,-0.08764 0.17274,-0.268762 0.0832,-0.403076 -0.0883,-0.132408 -0.0471,-0.311541 0.0863,-0.397908 l 2.76056,-1.789038 c 0.17718,-0.114945 0.37891,-0.186746 0.58911,-0.20929 l 1.09502,-0.118339 c 0.042,-0.0046 0.084,-0.0064 0.12558,-0.0052 z m -31.5526,5.953642 c 0.83615,0.03708 1.62557,0.523006 2.01021,1.333769 l 6.0849,12.825574 c 0.5598,1.179291 0.0308,2.553257 -1.17512,3.053043 l -12.03389,4.987807 c -1.20596,0.49979 -2.67416,-0.0442 -3.26285,-1.20923 l -5.88078,-11.635462 c -0.58869,-1.165002 -0.11322,-2.590503 1.05782,-3.167765 l 12.06438,-5.948474 c 0.36585,-0.180394 0.75526,-0.256116 1.13533,-0.239262 z m -18.74356,9.24233 c 0.85052,0.02999 1.6676,0.502252 2.08411,1.297078 l 5.95003,11.353315 c 0.60615,1.15611 0.121,2.52434 -1.07797,3.04064 l -6.99389,3.0117 c -1.19898,0.5163 -1.97338,1.9864 -1.72031,3.26699 l 0.65267,3.30264 c 0.25307,1.28058 0.15311,2.53005 -0.22221,2.77709 -0.37499,0.24703 -1.22936,-0.46819 -1.89807,-1.58905 L 93.14987,100.42333 c -0.66871,-1.120895 -0.258112,-2.509573 0.912606,-3.087152 l 11.565704,-5.703011 c 0.36585,-0.180395 0.75958,-0.258061 1.14618,-0.24443 z m 30.56403,9.038723 c 0.98249,-0.0147 1.99252,0.4733 2.51716,1.29966 l 17.74517,27.93835 c 0.69951,1.1015 0.66482,2.88196 -0.0775,3.95583 l -26.74514,38.6855 c -0.74205,1.07355 -1.14915,3.0016 -0.90433,4.28345 l 16.03571,83.9556 h -36.19831 l -0.69401,-14.64096 8.17004,-13.76454 c 0.24513,-0.41342 -0.0524,-0.93637 -0.53278,-0.93637 H 108.32 l -2.70991,-57.14742 c -0.0619,-1.30376 0.95016,-2.47187 2.24948,-2.59571 l 0.59686,-0.0568 c 1.29932,-0.12384 1.49259,-0.84599 0.43046,-1.60456 l -4.69273,-3.35018 c -1.06244,-0.75825 -1.32637,-2.25922 -0.58653,-3.33468 l 18.341,-26.66452 c 0.73983,-1.07546 2.32527,-2.37981 3.5233,-2.89802 l 5.25446,-2.27376 c 1.19802,-0.5182 3.24499,-0.98989 4.54907,-1.048 l 0.68523,-0.0305 c 1.30408,-0.0581 1.3919,-0.53119 0.19482,-1.05161 l -2.16731,-0.94258 c -1.19707,-0.52042 -2.37442,-1.5329 -2.61637,-2.25051 -0.24164,-0.71729 -0.10632,-2.3187 0.30075,-3.55895 l 0.66508,-2.02417 c 0.40738,-1.24026 -0.0755,-1.56555 -1.0728,-0.72347 l -5.09375,4.30103 c -0.99735,0.84208 -2.85587,1.29768 -4.12946,1.01286 l -10.58282,-2.36678 c -1.27391,-0.28482 -2.48404,-1.57269 -2.68821,-2.86184 l -0.80925,-5.09788 c -0.20449,-1.28916 0.6175,-2.7454 1.82728,-3.23598 l 26.59527,-10.78436 c 0.30237,-0.12264 0.62697,-0.18321 0.95447,-0.1881 z m -46.077294,4.41989 c 0.73773,-0.007 1.457732,0.36263 1.888774,1.05523 l 15.66261,25.1597 c 0.68967,1.10817 0.29325,2.47991 -0.8816,3.04891 l -9.241297,4.47312 c -1.174845,0.56868 -2.759288,0.16673 -3.520715,-0.89349 L 79.456649,115.8136 c -0.761745,-1.0599 -0.518694,-2.55342 0.538985,-3.31866 l 9.977169,-7.21661 c 0.396629,-0.28685 0.845655,-0.42671 1.288293,-0.43098 z m -15.15153,13.0731 c 0.767628,-0.0276 1.538037,0.30716 2.026233,0.96067 l 14.846122,19.87475 c 0.781114,1.04561 0.559288,2.53372 -0.492993,3.30626 l -6.551538,4.81108 c -1.052281,0.77254 -2.576709,0.56859 -3.38894,-0.45321 L 67.039836,126.90647 c -0.812232,-1.02212 -0.611195,-2.48418 0.446484,-3.24942 l 7.306531,-5.28598 c 0.396629,-0.28696 0.856138,-0.43407 1.316715,-0.45062 z m 32.847604,6.91948 c 0.18001,-0.006 0.38987,0.0198 0.62736,0.0791 l 14.10559,3.51917 c 1.2663,0.31593 1.31492,0.98101 0.10801,1.47794 l -8.34368,3.43493 c -1.20723,0.49693 -2.74552,-0.0109 -3.41994,-1.12861 l -3.52692,-5.84615 c -0.54746,-0.90813 -0.33043,-1.51165 0.44958,-1.53634 z m -39.583627,10.19679 c 0.408901,-0.008 0.814954,0.16851 1.086239,0.51005 l 8.222754,10.34717 c 0.497563,0.62616 0.345209,1.54498 -0.327629,1.97714 l -20.187398,12.95735 c -0.153683,0.0984 -0.325358,0.16517 -0.505396,0.19533 l -1.185974,0.19896 c -0.354041,0.0594 -0.709376,-0.0966 -0.904337,-0.39791 l -0.42168,-0.65009 -12.723254,8.24497 c -0.176227,0.114 -0.371388,0.19641 -0.576193,0.2434 l -3.989937,0.91674 -5.17e-4,-5.2e-4 -3.868497,2.50631 c -0.321654,0.2083 -0.751017,0.1165 -0.959632,-0.20516 l -2.04897,-3.16208 c -0.262594,-0.40548 -0.821648,-0.50337 -1.208712,-0.19378 -0.33626,0.26926 -0.382645,0.76747 -0.148311,1.12913 l 2.023649,3.1228 c 0.208297,0.32166 0.116498,0.75134 -0.205156,0.95964 l -2.896981,1.8774 c -0.321653,0.20861 -0.751016,0.11702 -0.959631,-0.20464 l -2.030367,-3.13366 c -0.217823,-0.33626 -0.645605,-0.49864 -1.016475,-0.34623 -0.494071,0.2029 -0.660602,0.78788 -0.38499,1.21336 l 2.048971,3.16208 c 0.208297,0.32166 0.116498,0.75134 -0.205156,0.95964 l -3.293339,2.13475 c -0.321653,0.20861 -0.751851,0.1165 -0.960148,-0.20516 l -3.725354,-5.74848 c -0.208297,-0.32166 -0.116498,-0.75154 0.205156,-0.96015 l 0.572058,-0.37 c 0.321654,-0.20862 0.751334,-0.11702 0.959631,0.20463 l 1.974557,3.04736 c 0.262594,0.40517 0.821131,0.50286 1.208195,0.19327 0.336577,-0.26926 0.383162,-0.76695 0.148828,-1.12861 l -1.948719,-3.00757 c -0.208614,-0.32165 -0.117015,-0.75185 0.204639,-0.96015 l 2.896981,-1.87688 c 0.321654,-0.2083 0.751334,-0.1165 0.959631,0.20515 l 1.974557,3.04684 c 0.262594,0.40548 0.821131,0.50338 1.208195,0.19379 0.336577,-0.26926 0.383679,-0.76747 0.149345,-1.12913 l -1.949235,-3.00757 c -0.208615,-0.32165 -0.117015,-0.75153 0.204638,-0.96015 l 2.897498,-1.87688 c 0.321336,-0.2083 0.751334,-0.1165 0.959631,0.20515 l 2.059823,3.17914 c 0.252115,0.38865 0.725995,0.43879 1.053682,0.1111 0.327687,-0.32769 0.390092,-0.91359 0.137976,-1.30225 l -1.86862,-2.88406 c -0.208614,-0.32165 -0.117015,-0.75133 0.204639,-0.95963 l 1.145667,-0.74311 0.001,0.001 2.466,-3.27009 c 0.126692,-0.16797 0.281825,-0.31254 0.45837,-0.42685 l 12.72222,-8.24445 -0.415995,-0.64182 c -0.192738,-0.29753 -0.19262,-0.67988 -5.17e-4,-0.97772 l 0.658875,-1.0201 c 0.102243,-0.15844 0.236997,-0.29419 0.394808,-0.39739 l 18.998323,-12.43128 c 0.218976,-0.14324 0.465209,-0.21505 0.710551,-0.22014 z m 46.547027,2.23552 c 0.93637,-0.035 1.22014,0.60668 0.60668,1.56993 l -19.036043,29.90205 c -0.70078,1.10086 -0.337296,2.39267 0.807703,2.86959 1.144998,0.47693 2.45839,0.80122 2.91817,0.72089 0.45978,-0.0806 0.8094,0.92151 0.77669,2.22622 l -1.30328,52.23144 -9.667105,16.28531 c -0.245448,0.4131 0.05237,0.93638 0.532784,0.93638 h 8.704891 l -0.412374,16.5318 H 79.713481 l 7.358207,-81.44205 c 0.117484,-1.30027 -0.422505,-3.22136 -1.200444,-4.26951 l -5.752103,-7.7494 c -0.777621,-1.04815 -1.648358,-2.94733 -1.934766,-4.22093 l -1.419552,-6.31228 c -0.286408,-1.27359 0.345536,-2.94111 1.403532,-3.70571 l 1.523938,-1.10226 c 1.057997,-0.7646 2.469638,-1.1298 3.13676,-0.81132 0.667122,0.31816 2.076335,-0.0492 3.132108,-0.81701 l 10.796757,-7.8512 c 1.055774,-0.76777 2.964513,-1.61569 4.241602,-1.88463 l 14.48025,-3.04995 c 0.15968,-0.0336 0.30704,-0.0524 0.4408,-0.0574 z m -62.272165,36.5311 c 4.426489,0 8.014498,3.58853 8.014498,8.01502 0,4.42649 -3.588009,8.01501 -8.014498,8.01501 -4.426489,0 -8.015015,-3.58852 -8.015015,-8.01501 0,-4.42649 3.588526,-8.01502 8.015015,-8.01502 z m -37.928434,2.13889 c 0.29709,-0.002 0.592937,0.14146 0.771012,0.41651 l 2.269629,3.50212 c 0.226078,0.34896 0.187786,0.80475 -0.09353,1.11052 -1.382826,1.50381 -3.680182,4.28083 -5.499923,7.85585 -3.5451776,6.96335 -3.7055724,13.63451 -0.476974,19.82722 4.95531,9.50482 14.948594,11.58662 25.529192,13.79089 5.834855,1.2158 11.868876,2.4728 16.987076,5.09271 6.053949,3.09873 10.00134,7.69335 12.067481,14.04514 1.984267,6.09838 2.029467,12.44849 0.146761,18.96266 h -6.15363 c 1.913818,-5.57178 2.307566,-11.34706 0.421163,-17.14572 C 58.175427,232.6033 48.372746,230.56082 37.021513,228.19589 26.100527,225.92082 13.722486,223.34204 7.4811971,211.37004 3.3530429,203.45127 3.5406515,194.67258 8.0237996,185.98348 c 2.4617784,-4.77178 5.5736084,-8.2538 7.0548664,-9.7684 0.178231,-0.18226 0.410235,-0.27151 0.641305,-0.27285 z m 40.70966,1.86862 c -0.05853,-8e-5 -0.116971,0.008 -0.173633,0.0238 -0.06296,0.0167 -0.12084,0.0487 -0.1726,0.0879 -0.01749,0.0133 -0.0344,0.0262 -0.04909,0.0367 l -2.050521,1.55288 c -0.198661,0.15039 -0.472617,0.15039 -0.671277,0 l -2.051037,-1.55288 c -0.0147,-0.0105 -0.0316,-0.0234 -0.04909,-0.0367 -0.05176,-0.0391 -0.109639,-0.0704 -0.172599,-0.0879 -0.07555,-0.021 -0.154904,-0.0277 -0.232544,-0.0207 -0.07905,0.008 -0.15761,0.0299 -0.22686,0.0698 -0.05596,0.0314 -0.10947,0.0676 -0.16123,0.10542 -0.05666,0.042 -0.111171,0.0861 -0.164331,0.13229 -0.05386,0.0469 -0.10622,0.0964 -0.15658,0.14676 -0.05037,0.0504 -0.0999,0.10319 -0.146761,0.15709 -0.04617,0.0532 -0.09032,0.10774 -0.132292,0.16434 -0.03778,0.0518 -0.07377,0.10551 -0.105936,0.16071 -0.03987,0.0685 -0.06206,0.14838 -0.06976,0.22738 -0.0077,0.0777 1.98e-4,0.15652 0.02119,0.23202 0.01679,0.063 0.04816,0.12142 0.08733,0.17312 0.01328,0.0175 0.02671,0.0344 0.03721,0.0491 l 1.552877,2.05052 c 0.150394,0.19866 0.150394,0.47314 0,0.6718 l -1.552877,2.05 c -0.01049,0.0147 -0.02392,0.0317 -0.03721,0.0491 -0.03917,0.0518 -0.06984,0.11012 -0.08733,0.17312 -0.02099,0.0755 -0.02889,0.15443 -0.02119,0.23203 0.0077,0.079 0.02989,0.15807 0.06976,0.22737 0.03148,0.056 0.06817,0.10902 0.105936,0.16072 0.04197,0.0567 0.08612,0.11123 0.132292,0.16433 0.04687,0.0539 0.0964,0.10669 0.146761,0.15709 0.05036,0.0504 0.10272,0.0999 0.15658,0.14676 0.05316,0.0461 0.107671,0.0904 0.164331,0.1323 0.05176,0.0378 0.10597,0.0732 0.16123,0.10542 0.06855,0.0398 0.14781,0.0628 0.22686,0.0698 0.07765,0.008 0.156994,3.3e-4 0.232544,-0.0207 0.06296,-0.0167 0.120839,-0.0481 0.172599,-0.0873 0.01749,-0.0133 0.0344,-0.0267 0.04909,-0.0372 l 2.050004,-1.55288 c 0.19866,-0.15039 0.473132,-0.15039 0.671793,0 l 2.051038,1.55288 c 0.0147,0.0105 0.0316,0.0239 0.04909,0.0372 0.05176,0.0391 0.10964,0.0699 0.1726,0.0873 0.07555,0.021 0.154387,0.0277 0.232027,0.0207 0.07904,-0.008 0.158126,-0.0299 0.227376,-0.0698 0.05596,-0.0314 0.109471,-0.0676 0.161231,-0.10542 0.05666,-0.042 0.111171,-0.0861 0.164331,-0.1323 0.05386,-0.0469 0.106219,-0.0964 0.156579,-0.14676 0.05037,-0.0504 0.0999,-0.10319 0.146761,-0.15709 0.04617,-0.0532 0.09032,-0.10763 0.132292,-0.16433 0.03778,-0.0518 0.07324,-0.10552 0.10542,-0.16072 0.03987,-0.0686 0.06258,-0.14837 0.07028,-0.22737 0.0077,-0.0777 -1.97e-4,-0.15653 -0.02119,-0.23203 -0.01679,-0.063 -0.04816,-0.12142 -0.08733,-0.17312 -0.01328,-0.0175 -0.02671,-0.0344 -0.03721,-0.0491 l -1.552876,-2.05052 c -0.150395,-0.19865 -0.150395,-0.47312 0,-0.67179 l 1.552876,-2.05001 c 0.01049,-0.0147 0.02392,-0.0317 0.03721,-0.0491 0.03917,-0.0518 0.06984,-0.11012 0.08733,-0.17312 0.02099,-0.0755 0.02889,-0.15442 0.02119,-0.23202 -0.0077,-0.079 -0.03041,-0.15808 -0.07028,-0.22738 -0.03148,-0.056 -0.06765,-0.10901 -0.10542,-0.16071 -0.04198,-0.0567 -0.08612,-0.11124 -0.132292,-0.16434 -0.04687,-0.0539 -0.09639,-0.10669 -0.146761,-0.15709 -0.05036,-0.0504 -0.102709,-0.0999 -0.156579,-0.14676 -0.05316,-0.0461 -0.107671,-0.0904 -0.164331,-0.13229 -0.05176,-0.0378 -0.105971,-0.0732 -0.161231,-0.10542 -0.06855,-0.0398 -0.148326,-0.0628 -0.227376,-0.0698 -0.01941,-0.002 -0.03889,-0.003 -0.05839,-0.003 z m -15.232662,16.03003 c 0.374937,0 0.671276,0.29686 0.671276,0.67179 v 4.86534 c 0,0.37494 -0.296339,0.67179 -0.671276,0.67179 -0.374937,0 -0.671794,-0.29685 -0.671794,-0.67179 v -4.86534 c 0,-0.37493 0.296857,-0.67179 0.671794,-0.67179 z m 8.650118,0 c 0.374936,0 0.671276,0.29686 0.671276,0.67179 v 4.86534 c 0,0.37494 -0.29634,0.67179 -0.671276,0.67179 -0.374936,0 -0.671794,-0.29685 -0.671794,-0.67179 v -4.86534 c 0,-0.37493 0.296858,-0.67179 0.671794,-0.67179 z m 2.611726,0 c 0.176451,0 0.353171,0.0674 0.487826,0.20206 l 1.927014,1.92753 1.927014,-1.92753 c 0.26931,-0.26931 0.705825,-0.26931 0.975135,0 0.269312,0.26931 0.269312,0.70582 0,0.97513 l -1.927015,1.92753 1.927015,1.92702 c 0.269312,0.26931 0.269312,0.70581 0,0.97513 -0.134306,0.13495 -0.311033,0.20205 -0.487309,0.20205 -0.176277,0 -0.352821,-0.0678 -0.487826,-0.20205 l -1.927014,-1.92753 -1.927014,1.92753 c -0.134305,0.13495 -0.311549,0.20205 -0.487826,0.20205 -0.176276,0 -0.353002,-0.0678 -0.487308,-0.20205 -0.269311,-0.26932 -0.269311,-0.70582 0,-0.97513 l 1.927014,-1.92702 -1.927014,-1.92753 c -0.269311,-0.26931 -0.269311,-0.70582 0,-0.97513 0.134655,-0.13466 0.310857,-0.20206 0.487308,-0.20206 z m 7.441407,0 c 0.374934,0 0.671793,0.29686 0.671793,0.67179 v 4.86534 c 0,0.37494 -0.296859,0.67179 -0.671793,0.67179 -0.374938,0 -0.671277,-0.29685 -0.671277,-0.67179 v -4.86534 c 0,-0.37493 0.296339,-0.67179 0.671277,-0.67179 z m -15.834693,0.0527 h 3.41788 c 0.339961,0 0.610815,0.26963 0.610815,0.6103 0,0.33995 -0.270154,0.61082 -0.610815,0.61082 h -2.74712 v 1.29914 h 2.354895 c 0.339962,0 0.609782,0.26963 0.609782,0.6103 0,0.33996 -0.26982,0.61082 -0.609782,0.61082 h -2.354895 v 1.74407 c 0,0.37494 -0.296339,0.67128 -0.671276,0.67128 -0.374937,0 -0.671794,-0.29634 -0.671794,-0.67128 v -4.81366 l 10e-4,-5.1e-4 c 0,-0.37493 0.29634,-0.67128 0.671277,-0.67128 z m 18.162716,0 h 3.924308 c 0.33996,0 0.619084,0.27912 0.619084,0.61908 0,0.33996 -0.279124,0.61909 -0.619084,0.61909 h -1.29036 v 4.24625 c 0,0.37494 -0.296857,0.67179 -0.671794,0.67179 -0.374935,0 -0.671277,-0.29685 -0.671277,-0.67179 v -4.24625 h -1.290877 c -0.33996,0 -0.619084,-0.27913 -0.619084,-0.61909 0,-0.33996 0.279124,-0.61908 0.619084,-0.61908 z m 43.270747,32.8228 c 0.16898,-0.007 0.34044,0.13465 0.3023,0.34365 l -1.43505,7.85792 c -0.0327,0.17845 0.10395,0.34262 0.28525,0.34262 h 5.55884 c 0.22512,0 0.36402,0.24504 0.24908,0.43873 l -7.51479,12.66021 c -0.16543,0.27847 -0.59347,0.11797 -0.53537,-0.20051 l 1.43506,-7.85792 c 0.0327,-0.17844 -0.10395,-0.34261 -0.28526,-0.34261 h -5.55883 c -0.225126,0 -0.364542,-0.24536 -0.249597,-0.43873 l 7.515307,-12.66021 c 0.0569,-0.0957 0.14454,-0.13973 0.23306,-0.14315 z" />
  </g>
</svg>
