<?xml version="1.0" encoding="UTF-8"?>
<svg id="Logo" xmlns="http://www.w3.org/2000/svg" viewBox="0 0 604.37 604.37">
  <defs>
    <style>
      .cls-1 {
        fill: #11161a;
      }
    </style>
  </defs>
  <g>
    <path class="cls-1" d="M114.58,410.63c0-5.36,4.24-9.6,9.6-9.6s9.6,4.24,9.6,9.6v69.56c0,5.36-4.24,9.6-9.6,9.6s-9.6-4.24-9.6-9.6v-69.56Z"/>
    <path class="cls-1" d="M155.59,411.38c0-5.36,4.24-9.6,9.6-9.6h48.86c4.86,0,8.73,3.86,8.73,8.73,0,4.86-3.86,8.73-8.73,8.73h-39.27v18.57h33.66c4.86,0,8.72,3.86,8.72,8.73,0,4.86-3.86,8.73-8.72,8.73h-33.66v24.93c0,5.36-4.24,9.6-9.6,9.6s-9.6-4.24-9.6-9.6v-68.81Z"/>
    <path class="cls-1" d="M238.24,410.63c0-5.36,4.24-9.6,9.6-9.6s9.6,4.24,9.6,9.6v69.56c0,5.36-4.24,9.6-9.6,9.6s-9.6-4.24-9.6-9.6v-69.56Z"/>
    <path class="cls-1" d="M381.96,410.63c0-5.36,4.24-9.6,9.6-9.6s9.6,4.24,9.6,9.6v69.56c0,5.36-4.24,9.6-9.6,9.6s-9.6-4.24-9.6-9.6v-69.56Z"/>
    <path class="cls-1" d="M443.29,419.48h-18.45c-4.86,0-8.85-3.99-8.85-8.85,0-4.86,3.99-8.85,8.85-8.85h56.1c4.86,0,8.85,3.99,8.85,8.85,0,4.86-3.99,8.85-8.85,8.85h-18.45v60.71c0,5.36-4.24,9.6-9.6,9.6s-9.6-4.24-9.6-9.6v-60.71Z"/>
    <path class="cls-1" d="M333.64,445.41l27.55-27.55c3.85-3.85,3.85-10.09,0-13.94-3.85-3.85-10.09-3.85-13.94,0l-27.55,27.55-27.55-27.55c-3.85-3.85-10.09-3.85-13.94,0-3.85,3.85-3.85,10.09,0,13.94l27.55,27.55-27.55,27.55c-3.85,3.85-3.85,10.09,0,13.94,1.92,1.92,4.45,2.89,6.97,2.89,2.52,0,5.05-.96,6.97-2.89l27.55-27.55,27.55,27.55c1.93,1.92,4.45,2.89,6.97,2.89s5.05-.96,6.97-2.89c3.85-3.85,3.85-10.09,0-13.94l-27.55-27.55Z"/>
  </g>
  <path class="cls-1" d="M302.18,114.58c-63.28,0-114.58,51.3-114.58,114.58s51.3,114.58,114.58,114.58,114.58-51.3,114.58-114.58-51.3-114.58-114.58-114.58ZM335.14,233.95l22.2,29.32c.15.21.34.45.53.7.56.74,1.01,1.57,1.25,2.47.3,1.08.41,2.21.3,3.32-.11,1.13-.43,2.27-1,3.25-.46.79-.97,1.56-1.51,2.3-.6.81-1.23,1.59-1.89,2.35-.67.77-1.38,1.52-2.1,2.24-.72.72-1.47,1.43-2.24,2.1-.76.66-1.54,1.29-2.35,1.89-.74.54-1.5,1.06-2.3,1.51-.99.57-2.12.89-3.25,1-1.11.11-2.24,0-3.32-.3-.9-.25-1.73-.69-2.47-1.25-.25-.19-.49-.38-.7-.53l-29.32-22.2c-2.84-2.15-6.76-2.15-9.6,0l-29.31,22.2c-.21.15-.45.34-.7.53-.74.56-1.57,1.01-2.47,1.25-1.08.3-2.21.41-3.32.3-1.13-.11-2.27-.43-3.25-1-.79-.46-1.56-.97-2.3-1.51-.81-.6-1.59-1.23-2.35-1.89-.77-.67-1.52-1.38-2.24-2.1-.72-.72-1.43-1.47-2.1-2.24-.66-.76-1.29-1.54-1.89-2.35-.54-.74-1.06-1.5-1.51-2.3-.57-.99-.89-2.12-1-3.25-.11-1.11,0-2.24.3-3.32.25-.9.69-1.73,1.25-2.47.19-.25.38-.49.53-.7l22.2-29.31c2.15-2.84,2.15-6.76,0-9.6l-22.2-29.32c-.15-.21-.34-.45-.53-.7-.56-.74-1.01-1.57-1.25-2.47-.3-1.08-.41-2.21-.3-3.32.11-1.13.43-2.27,1-3.25.46-.79.97-1.56,1.51-2.3.6-.81,1.23-1.59,1.89-2.35.67-.77,1.38-1.52,2.1-2.24.72-.72,1.47-1.43,2.24-2.1.76-.66,1.54-1.29,2.35-1.89.74-.54,1.5-1.06,2.3-1.51.99-.57,2.12-.89,3.25-1,1.11-.11,2.24,0,3.32.3.9.25,1.73.69,2.47,1.25.25.19.49.38.7.53l29.32,22.2c2.84,2.15,6.76,2.15,9.6,0l29.31-22.2c.21-.15.45-.34.7-.53.74-.56,1.57-1.01,2.47-1.25,1.08-.3,2.21-.41,3.32-.3,1.13.11,2.27.43,3.25,1,.79.46,1.56.97,2.3,1.51.81.6,1.59,1.23,2.35,1.89.77.67,1.52,1.38,2.24,2.1.72.72,1.43,1.47,2.1,2.24.66.76,1.29,1.54,1.89,2.35.54.74,1.06,1.5,1.51,2.3.57.99.89,2.12,1,3.25.11,1.11,0,2.24-.3,3.32-.25.9-.69,1.73-1.25,2.47-.19.25-.38.49-.53.7l-22.2,29.31c-2.15,2.84-2.15,6.76,0,9.6Z"/>
</svg>