<?xml version="1.0" encoding="UTF-8" standalone="no"?>
<!-- Created with Inkscape (http://www.inkscape.org/) -->

<svg
   width="210mm"
   height="297mm"
   viewBox="0 0 210 297"
   version="1.1"
   id="svg1"
   inkscape:version="1.4.2 (f4327f4, 2025-05-13)"
   sodipodi:docname="ifixit-fist-wrench.svg"
   xmlns:inkscape="http://www.inkscape.org/namespaces/inkscape"
   xmlns:sodipodi="http://sodipodi.sourceforge.net/DTD/sodipodi-0.dtd"
   xmlns="http://www.w3.org/2000/svg"
   xmlns:svg="http://www.w3.org/2000/svg">
  <sodipodi:namedview
     id="namedview1"
     pagecolor="#ffffff"
     bordercolor="#666666"
     borderopacity="1.0"
     inkscape:showpageshadow="2"
     inkscape:pageopacity="0.0"
     inkscape:pagecheckerboard="0"
     inkscape:deskcolor="#d1d1d1"
     inkscape:document-units="mm"
     inkscape:zoom="0.78804015"
     inkscape:cx="180.82835"
     inkscape:cy="432.08458"
     inkscape:window-width="2560"
     inkscape:window-height="1511"
     inkscape:window-x="3191"
     inkscape:window-y="-9"
     inkscape:window-maximized="1"
     inkscape:current-layer="layer1" />
  <defs
     id="defs1">
    <clipPath
       clipPathUnits="userSpaceOnUse"
       id="clipPath930">
      <path
         d="M 0,708.661 H 708.661 V 0 H 0 Z"
         transform="translate(-496.11764,-579.29912)"
         id="path930" />
    </clipPath>
    <clipPath
       clipPathUnits="userSpaceOnUse"
       id="clipPath932">
      <path
         d="M 0,708.661 H 708.661 V 0 H 0 Z"
         transform="translate(-308.73898,-280.07821)"
         id="path932" />
    </clipPath>
    <clipPath
       clipPathUnits="userSpaceOnUse"
       id="clipPath934">
      <path
         d="M 0,708.661 H 708.661 V 0 H 0 Z"
         transform="translate(-411.02654,-277.89491)"
         id="path934" />
    </clipPath>
    <clipPath
       clipPathUnits="userSpaceOnUse"
       id="clipPath936">
      <path
         d="M 0,708.661 H 708.661 V 0 H 0 Z"
         transform="translate(-419.95484,-517.24881)"
         id="path936" />
    </clipPath>
    <clipPath
       clipPathUnits="userSpaceOnUse"
       id="clipPath938">
      <path
         d="M 0,708.661 H 708.661 V 0 H 0 Z"
         transform="translate(-335.31171,-473.83361)"
         id="path938" />
    </clipPath>
    <clipPath
       clipPathUnits="userSpaceOnUse"
       id="clipPath940">
      <path
         d="M 0,708.661 H 708.661 V 0 H 0 Z"
         transform="translate(-341.84961,-407.78781)"
         id="path940" />
    </clipPath>
    <clipPath
       clipPathUnits="userSpaceOnUse"
       id="clipPath942">
      <path
         d="M 0,708.661 H 708.661 V 0 H 0 Z"
         transform="translate(-291.99343,-383.55881)"
         id="path942" />
    </clipPath>
    <clipPath
       clipPathUnits="userSpaceOnUse"
       id="clipPath944">
      <path
         d="M 0,708.661 H 708.661 V 0 H 0 Z"
         transform="translate(-389.04433,-411.39771)"
         id="path944" />
    </clipPath>
    <clipPath
       clipPathUnits="userSpaceOnUse"
       id="clipPath946">
      <path
         d="M 0,708.661 H 708.661 V 0 H 0 Z"
         transform="translate(-366.54598,-92.4074)"
         id="path946" />
    </clipPath>
    <clipPath
       clipPathUnits="userSpaceOnUse"
       id="clipPath948">
      <path
         d="M 0,708.661 H 708.661 V 0 H 0 Z"
         transform="translate(-307.79818,-64.836799)"
         id="path948" />
    </clipPath>
  </defs>
  <g
     inkscape:label="Layer 1"
     inkscape:groupmode="layer"
     id="layer1">
    <path
       id="path929"
       d="M 0,0 C -0.582,0.898 -1.62,1.392 -2.684,1.277 L -6.133,0.903 C -6.795,0.832 -7.43,0.606 -7.988,0.244 l -8.694,-5.633 c -0.42,-0.272 -0.55,-0.837 -0.272,-1.254 0.282,-0.423 0.164,-0.994 -0.262,-1.27 l -2.652,-1.719 c -0.421,-0.273 -0.983,-0.154 -1.257,0.266 l -0.008,0.011 c -0.274,0.42 -0.836,0.539 -1.257,0.266 l -50.024,-32.412 c -1.79,-1.159 -2.444,-3.465 -1.529,-5.391 l 8.124,-17.118 c 0.669,-1.41 2.034,-2.387 3.591,-2.497 3.083,-0.215 8.574,-1.591 12.899,-8.059 l 10.263,-16.157 c 1.267,-1.995 3.918,-2.574 5.901,-1.288 l 45.433,29.441 c 0.421,0.273 0.542,0.836 0.269,1.258 l -0.002,0.003 c -0.273,0.422 -0.152,0.985 0.269,1.258 l 2.653,1.72 c 0.418,0.271 0.987,0.162 1.253,-0.26 0.271,-0.43 0.84,-0.555 1.265,-0.279 l 8.691,5.636 c 0.556,0.361 1.019,0.846 1.354,1.417 l 1.756,2.993 c 0.543,0.925 0.517,2.076 -0.066,2.976 z m 125.877,59.658 -98.27,-63.68 -0.615,0.949 c -0.426,0.657 -1.303,0.844 -1.96,0.419 l -7.734,-5.013 c -0.926,-0.599 -1.19,-1.836 -0.59,-2.761 l 10.307,-15.906 c 0.599,-0.925 1.836,-1.189 2.761,-0.589 l 7.735,5.012 c 0.656,0.425 0.844,1.303 0.418,1.959 l -0.614,0.949 98.272,63.681 c 0.985,0.639 1.267,1.955 0.629,2.94 l -0.315,0.486 -7.084,10.927 c -0.639,0.985 -1.955,1.266 -2.94,0.627 m 33.614,11.076 c -0.38,0.58 -1.13,0.8 -1.77,0.52 l -0.05,-0.01 -15.35,-6.86 -13.18,-5.84 6.76,-10.44 10.78,9.55 12.53,11.22 0.03,0.04 c 0.52,0.46 0.62,1.23 0.25,1.82 m -500.036,-294.606 c -0.497,-0.325 -0.921,-0.751 -1.243,-1.25 l -2.076,-3.213 c -0.605,-0.938 -0.605,-2.143 0.002,-3.08 l 1.31,-2.021 -40.067,-25.965 c -0.556,-0.36 -1.044,-0.815 -1.443,-1.344 l -7.766,-10.299 -0.003,0.003 -3.609,-2.339 c -1.013,-0.656 -1.302,-2.009 -0.645,-3.022 l 5.885,-9.083 c 0.794,-1.224 0.599,-3.07 -0.433,-4.102 v 0 c -1.032,-1.032 -2.525,-0.874 -3.319,0.35 l -6.488,10.013 c -0.656,1.013 -2.01,1.302 -3.022,0.646 l -9.124,-5.912 c -1.013,-0.657 -1.302,-2.01 -0.645,-3.023 l 6.138,-9.472 c 0.738,-1.139 0.591,-2.708 -0.469,-3.556 -1.219,-0.975 -2.978,-0.667 -3.805,0.61 l -6.219,9.596 c -0.656,1.013 -2.01,1.302 -3.023,0.646 l -9.123,-5.912 c -1.013,-0.656 -1.302,-2.01 -0.645,-3.023 l 6.138,-9.472 c 0.738,-1.139 0.591,-2.707 -0.469,-3.555 -1.219,-0.975 -2.978,-0.667 -3.805,0.609 l -6.219,9.597 c -0.656,1.013 -2.009,1.302 -3.022,0.645 l -1.801,-1.166 c -1.013,-0.657 -1.302,-2.01 -0.646,-3.023 l 11.732,-18.105 c 0.656,-1.013 2.01,-1.302 3.023,-0.645 l 10.373,6.722 c 1.013,0.656 1.302,2.01 0.646,3.023 l -6.454,9.959 c -0.868,1.34 -0.343,3.182 1.213,3.821 1.168,0.48 2.515,-0.032 3.201,-1.091 l 6.394,-9.868 c 0.657,-1.013 2.01,-1.302 3.023,-0.645 l 9.123,5.912 c 1.013,0.656 1.302,2.009 0.646,3.022 l -6.373,9.835 c -0.738,1.139 -0.591,2.708 0.468,3.556 1.219,0.975 2.979,0.667 3.806,-0.61 l 6.453,-9.959 c 0.657,-1.013 2.01,-1.302 3.023,-0.646 l 12.182,7.894 -7.382,11.392 7.385,-11.394 12.565,2.887 c 0.645,0.148 1.259,0.408 1.814,0.767 l 40.071,25.967 1.328,-2.048 c 0.614,-0.949 1.733,-1.441 2.848,-1.254 l 3.735,0.627 c 0.567,0.095 1.108,0.305 1.592,0.615 l 63.576,40.808 c 2.119,1.361 2.599,4.254 1.032,6.226 l -25.896,32.587 c -1.367,1.721 -3.82,2.116 -5.659,0.913 z m 17.453,-251.475 c -16.119,8.251 -35.122,12.21 -53.498,16.039 -33.322,6.942 -64.795,13.499 -80.401,43.433 -10.168,19.503 -9.662,40.513 1.503,62.443 5.731,11.259 12.965,20.004 17.32,24.74 0.886,0.963 1.007,2.398 0.295,3.497 l -7.148,11.03 c -0.997,1.54 -3.164,1.765 -4.447,0.453 -4.665,-4.77 -14.465,-15.737 -22.218,-30.765 -14.119,-27.365 -14.71,-55.012 -1.709,-79.951 19.656,-37.704 58.638,-45.826 93.032,-52.991 35.749,-7.448 66.622,-13.88 77.685,-47.883 32.817,-100.877 -153.487,-199.484 -155.371,-200.467 l 8.553,-16.405 c 2.037,1.062 50.398,26.461 95.156,65.937 26.628,23.485 46.371,47.091 58.676,70.161 15.958,29.916 19.518,59.018 10.577,86.497 -6.507,20.004 -18.939,34.473 -38.005,44.232"
       style="fill:#231f20;fill-opacity:1;fill-rule:nonzero;stroke:none"
       transform="matrix(0.31752589,0,0,-0.31752589,157.79656,76.603242)"
       clip-path="url(#clipPath930)" />
    <path
       id="path931"
       d="m 0,0 c 3.606,-1.502 7.742,-2.524 9.19,-2.271 1.448,0.254 2.55,-2.902 2.447,-7.011 l -34.438,-1380.457 c -0.103,-4.11 -3.136,-5.856 -6.741,-3.88 l -116.931,64.08 c -3.606,1.976 -6.253,6.942 -5.883,11.036 L -35.358,-23.589 c 0.37,4.095 -1.332,10.145 -3.782,13.446 l -18.115,24.405 c -2.449,3.301 -5.191,9.283 -6.093,13.294 l -4.47,19.88 c -0.902,4.011 1.087,9.262 4.419,11.67 l 4.8,3.471 c 3.332,2.408 7.777,3.558 9.878,2.555 2.101,-1.002 6.54,0.155 9.865,2.573 l 34.002,24.726 c 3.325,2.418 9.337,5.089 13.359,5.936 l 45.604,9.605 c 4.023,0.848 5.507,-1.297 3.299,-4.764 L -2.544,9.036 C -4.751,5.569 -3.606,1.502 0,0"
       style="fill:#231f20;fill-opacity:1;fill-rule:nonzero;stroke:none"
       transform="matrix(0.31752589,0,0,-0.31752589,98.298974,171.61363)"
       clip-path="url(#clipPath932)" />
    <path
       id="path933"
       d="m 0,0 c -2.337,-3.381 -3.619,-9.452 -2.848,-13.489 l 307.631,-1610.593 c 0.772,-4.038 -1.547,-5.725 -5.152,-3.749 l -303.468,166.308 c -3.605,1.975 -6.713,6.952 -6.908,11.058 L -79.263,-5.511 c -0.195,4.106 2.993,7.785 7.085,8.175 l 1.879,0.18 c 4.092,0.39 4.702,2.663 1.357,5.052 l -14.78,10.552 c -3.346,2.388 -4.177,7.114 -1.847,10.501 l 57.762,83.977 c 2.33,3.387 7.323,7.494 11.096,9.126 l 16.549,7.161 c 3.773,1.632 10.22,3.118 14.327,3.301 l 2.158,0.096 c 4.107,0.183 4.383,1.673 0.613,3.312 l -6.825,2.968 c -3.77,1.639 -7.478,4.828 -8.24,7.088 -0.761,2.259 -0.335,7.303 0.947,11.209 l 2.094,6.374 c 1.283,3.906 -0.237,4.931 -3.378,2.279 l -16.043,-13.545 c -3.141,-2.652 -8.993,-4.088 -13.004,-3.191 l -33.33,7.454 c -4.012,0.897 -7.822,4.953 -8.465,9.013 l -2.549,16.055 c -0.644,4.06 1.945,8.646 5.755,10.191 l 83.757,33.964 c 3.809,1.545 8.73,-0.03 10.933,-3.5 l 55.887,-87.989 c 2.203,-3.469 2.094,-9.075 -0.244,-12.457 z"
       style="fill:#231f20;fill-opacity:1;fill-rule:nonzero;stroke:none"
       transform="matrix(0.31752589,0,0,-0.31752589,130.77793,172.30689)"
       clip-path="url(#clipPath934)" />
    <path
       id="path935"
       d="M 0,0 C 1.763,-3.714 0.097,-8.041 -3.701,-9.615 L -41.6,-25.324 c -3.798,-1.574 -8.422,0.14 -10.276,3.809 l -18.52,36.645 c -1.854,3.669 -0.356,8.158 3.332,9.976 l 37.994,18.733 c 3.687,1.818 8.145,0.267 9.907,-3.447 z"
       style="fill:#231f20;fill-opacity:1;fill-rule:nonzero;stroke:none"
       transform="matrix(0.31752589,0,0,-0.31752589,133.6129,96.305824)"
       clip-path="url(#clipPath936)" />
    <path
       id="path937"
       d="m 0,0 c -3.776,-1.626 -6.214,-6.256 -5.417,-10.289 l 2.055,-10.402 c 0.797,-4.033 0.482,-7.968 -0.7,-8.746 -1.181,-0.778 -3.872,1.474 -5.978,5.004 l -32.749,54.88 c -2.106,3.53 -0.813,7.905 2.874,9.724 l 36.425,17.96 c 3.687,1.818 8.265,0.326 10.173,-3.315 L 25.422,19.06 c 1.909,-3.641 0.381,-7.95 -3.395,-9.576 z"
       style="fill:#231f20;fill-opacity:1;fill-rule:nonzero;stroke:none"
       transform="matrix(0.31752589,0,0,-0.31752589,106.7365,110.09128)"
       clip-path="url(#clipPath938)" />
    <path
       id="path939"
       d="m 0,0 c 2.172,-3.49 0.923,-7.81 -2.777,-9.602 l -29.104,-14.087 c -3.7,-1.791 -8.689,-0.524 -11.087,2.815 l -49.483,68.899 c -2.399,3.338 -1.635,8.041 1.696,10.451 l 31.422,22.727 c 3.331,2.409 7.834,1.525 10.006,-1.965 z"
       style="fill:#231f20;fill-opacity:1;fill-rule:nonzero;stroke:none"
       transform="matrix(0.31752589,0,0,-0.31752589,108.81246,131.06253)"
       clip-path="url(#clipPath940)" />
    <path
       id="path941"
       d="m 0,0 c 2.46,-3.293 1.762,-7.979 -1.552,-10.412 l -20.633,-15.152 c -3.314,-2.433 -8.116,-1.791 -10.674,1.427 L -81.7,37.318 c -2.558,3.219 -1.926,7.823 1.405,10.233 l 23.011,16.648 c 3.331,2.41 8.069,1.686 10.529,-1.607 z"
       style="fill:#231f20;fill-opacity:1;fill-rule:nonzero;stroke:none"
       transform="matrix(0.31752589,0,0,-0.31752589,92.98184,138.75586)"
       clip-path="url(#clipPath942)" />
    <path
       id="path943"
       d="m 0,0 c 3.801,1.565 3.648,3.66 -0.34,4.655 l -44.423,11.084 c -3.989,0.996 -5.514,-1.07 -3.392,-4.59 l 11.107,-18.411 c 2.124,-3.52 6.97,-5.12 10.772,-3.555 z"
       style="fill:#231f20;fill-opacity:1;fill-rule:nonzero;stroke:none"
       transform="matrix(0.31752589,0,0,-0.31752589,123.79801,129.91629)"
       clip-path="url(#clipPath944)" />
    <path
       id="path945"
       d="m 0,0 h -39.521 l 0.002,32.011 -41.202,-69.406 c -0.773,-1.301 0.165,-2.948 1.678,-2.948 h 39.522 v -32.014 l 41.2,69.408 C 2.451,-1.647 1.513,0 0,0"
       style="fill:#ffffff;fill-opacity:1;fill-rule:nonzero;stroke:none"
       transform="matrix(0.31752589,0,0,-0.31752589,116.6542,231.20397)"
       clip-path="url(#clipPath946)" />
    <path
       id="path947"
       d="m 0,0 h 17.506 c 0.571,0 1.002,-0.517 0.899,-1.079 l -4.52,-24.748 c -0.183,-1.003 1.165,-1.508 1.686,-0.631 l 23.668,39.872 c 0.362,0.61 -0.077,1.381 -0.786,1.381 H 20.947 c -0.571,0 -1.002,0.517 -0.899,1.079 l 4.52,24.748 c 0.183,1.003 -1.165,1.508 -1.686,0.631 L -0.786,1.381 C -1.148,0.772 -0.709,0 0,0"
       style="fill:#faa21a;fill-opacity:1;fill-rule:nonzero;stroke:none"
       transform="matrix(0.31752589,0,0,-0.31752589,98.000249,239.95835)"
       clip-path="url(#clipPath948)" />
  </g>
</svg>
