<?xml version="1.0" encoding="UTF-8" standalone="no"?>
<!-- Created with Inkscape (http://www.inkscape.org/) -->

<svg
   width="210mm"
   height="297mm"
   viewBox="0 0 210 297"
   version="1.1"
   id="svg1"
   inkscape:version="1.4.3 (0d15f75, 2025-12-25)"
   sodipodi:docname="ifixit-fist-iron.svg"
   xmlns:inkscape="http://www.inkscape.org/namespaces/inkscape"
   xmlns:sodipodi="http://sodipodi.sourceforge.net/DTD/sodipodi-0.dtd"
   xmlns="http://www.w3.org/2000/svg"
   xmlns:svg="http://www.w3.org/2000/svg">
  <sodipodi:namedview
     id="namedview1"
     pagecolor="#ffffff"
     bordercolor="#666666"
     borderopacity="1.0"
     inkscape:showpageshadow="2"
     inkscape:pageopacity="0.0"
     inkscape:pagecheckerboard="0"
     inkscape:deskcolor="#d1d1d1"
     inkscape:document-units="mm"
     inkscape:zoom="1.4104375"
     inkscape:cx="152.78947"
     inkscape:cy="817.83135"
     inkscape:window-width="1920"
     inkscape:window-height="962"
     inkscape:window-x="0"
     inkscape:window-y="30"
     inkscape:window-maximized="0"
     inkscape:current-layer="layer9" />
  <defs
     id="defs1">
    <inkscape:path-effect
       effect="bspline"
       id="path-effect8"
       is_visible="true"
       lpeversion="1.3"
       weight="33.333333"
       steps="2"
       helper_size="0"
       apply_no_weight="true"
       apply_with_weight="true"
       only_selected="false"
       uniform="false" />
    <inkscape:path-effect
       effect="bspline"
       id="path-effect5"
       is_visible="true"
       lpeversion="1.3"
       weight="33.333333"
       steps="2"
       helper_size="0"
       apply_no_weight="true"
       apply_with_weight="true"
       only_selected="false"
       uniform="false" />
    <inkscape:path-effect
       effect="bspline"
       id="path-effect4"
       is_visible="true"
       lpeversion="1.3"
       weight="33.333333"
       steps="2"
       helper_size="0"
       apply_no_weight="true"
       apply_with_weight="true"
       only_selected="false"
       uniform="false" />
    <inkscape:path-effect
       effect="bspline"
       id="path-effect3"
       is_visible="true"
       lpeversion="1.3"
       weight="33.333333"
       steps="2"
       helper_size="0"
       apply_no_weight="true"
       apply_with_weight="true"
       only_selected="false"
       uniform="false" />
    <inkscape:path-effect
       effect="bspline"
       id="path-effect2"
       is_visible="true"
       lpeversion="1.3"
       weight="33.333333"
       steps="2"
       helper_size="0"
       apply_no_weight="true"
       apply_with_weight="true"
       only_selected="false"
       uniform="false" />
    <inkscape:path-effect
       effect="bspline"
       id="path-effect1"
       is_visible="true"
       lpeversion="1.3"
       weight="33.333333"
       steps="2"
       helper_size="0"
       apply_no_weight="true"
       apply_with_weight="true"
       only_selected="false"
       uniform="false" />
    <clipPath
       clipPathUnits="userSpaceOnUse"
       id="clipPath930">
      <path
         d="M 0,708.661 H 708.661 V 0 H 0 Z"
         transform="translate(-496.11764,-579.29912)"
         id="path930" />
    </clipPath>
    <clipPath
       clipPathUnits="userSpaceOnUse"
       id="clipPath932">
      <path
         d="M 0,708.661 H 708.661 V 0 H 0 Z"
         transform="translate(-308.73898,-280.07821)"
         id="path932" />
    </clipPath>
    <clipPath
       clipPathUnits="userSpaceOnUse"
       id="clipPath934">
      <path
         d="M 0,708.661 H 708.661 V 0 H 0 Z"
         transform="translate(-411.02654,-277.89491)"
         id="path934" />
    </clipPath>
    <clipPath
       clipPathUnits="userSpaceOnUse"
       id="clipPath936">
      <path
         d="M 0,708.661 H 708.661 V 0 H 0 Z"
         transform="translate(-419.95484,-517.24881)"
         id="path936" />
    </clipPath>
    <clipPath
       clipPathUnits="userSpaceOnUse"
       id="clipPath938">
      <path
         d="M 0,708.661 H 708.661 V 0 H 0 Z"
         transform="translate(-335.31171,-473.83361)"
         id="path938" />
    </clipPath>
    <clipPath
       clipPathUnits="userSpaceOnUse"
       id="clipPath940">
      <path
         d="M 0,708.661 H 708.661 V 0 H 0 Z"
         transform="translate(-341.84961,-407.78781)"
         id="path940" />
    </clipPath>
    <clipPath
       clipPathUnits="userSpaceOnUse"
       id="clipPath942">
      <path
         d="M 0,708.661 H 708.661 V 0 H 0 Z"
         transform="translate(-291.99343,-383.55881)"
         id="path942" />
    </clipPath>
    <clipPath
       clipPathUnits="userSpaceOnUse"
       id="clipPath944">
      <path
         d="M 0,708.661 H 708.661 V 0 H 0 Z"
         transform="translate(-389.04433,-411.39771)"
         id="path944" />
    </clipPath>
    <clipPath
       clipPathUnits="userSpaceOnUse"
       id="clipPath946">
      <path
         d="M 0,708.661 H 708.661 V 0 H 0 Z"
         transform="translate(-366.54598,-92.4074)"
         id="path946" />
    </clipPath>
    <clipPath
       clipPathUnits="userSpaceOnUse"
       id="clipPath948">
      <path
         d="M 0,708.661 H 708.661 V 0 H 0 Z"
         transform="translate(-307.79818,-64.836799)"
         id="path948" />
    </clipPath>
  </defs>
  <g
     inkscape:label="Layer 1"
     inkscape:groupmode="layer"
     id="layer1"
     style="display:none">
    <path
       id="path929"
       d="M 0,0 C -0.582,0.898 -1.62,1.392 -2.684,1.277 L -6.133,0.903 C -6.795,0.832 -7.43,0.606 -7.988,0.244 l -8.694,-5.633 c -0.42,-0.272 -0.55,-0.837 -0.272,-1.254 0.282,-0.423 0.164,-0.994 -0.262,-1.27 l -2.652,-1.719 c -0.421,-0.273 -0.983,-0.154 -1.257,0.266 l -0.008,0.011 c -0.274,0.42 -0.836,0.539 -1.257,0.266 l -50.024,-32.412 c -1.79,-1.159 -2.444,-3.465 -1.529,-5.391 l 8.124,-17.118 c 0.669,-1.41 2.034,-2.387 3.591,-2.497 3.083,-0.215 8.574,-1.591 12.899,-8.059 l 10.263,-16.157 c 1.267,-1.995 3.918,-2.574 5.901,-1.288 l 45.433,29.441 c 0.421,0.273 0.542,0.836 0.269,1.258 l -0.002,0.003 c -0.273,0.422 -0.152,0.985 0.269,1.258 l 2.653,1.72 c 0.418,0.271 0.987,0.162 1.253,-0.26 0.271,-0.43 0.84,-0.555 1.265,-0.279 l 8.691,5.636 c 0.556,0.361 1.019,0.846 1.354,1.417 l 1.756,2.993 c 0.543,0.925 0.517,2.076 -0.066,2.976 z m 125.877,59.658 -98.27,-63.68 -0.615,0.949 c -0.426,0.657 -1.303,0.844 -1.96,0.419 l -7.734,-5.013 c -0.926,-0.599 -1.19,-1.836 -0.59,-2.761 l 10.307,-15.906 c 0.599,-0.925 1.836,-1.189 2.761,-0.589 l 7.735,5.012 c 0.656,0.425 0.844,1.303 0.418,1.959 l -0.614,0.949 98.272,63.681 c 0.985,0.639 1.267,1.955 0.629,2.94 l -0.315,0.486 -7.084,10.927 c -0.639,0.985 -1.955,1.266 -2.94,0.627 m 33.614,11.076 c -0.38,0.58 -1.13,0.8 -1.77,0.52 l -0.05,-0.01 -15.35,-6.86 -13.18,-5.84 6.76,-10.44 10.78,9.55 12.53,11.22 0.03,0.04 c 0.52,0.46 0.62,1.23 0.25,1.82 m -500.036,-294.606 c -0.497,-0.325 -0.921,-0.751 -1.243,-1.25 l -2.076,-3.213 c -0.605,-0.938 -0.605,-2.143 0.002,-3.08 l 1.31,-2.021 -40.067,-25.965 c -0.556,-0.36 -1.044,-0.815 -1.443,-1.344 l -7.766,-10.299 -0.003,0.003 -3.609,-2.339 c -1.013,-0.656 -1.302,-2.009 -0.645,-3.022 l 5.885,-9.083 c 0.794,-1.224 0.599,-3.07 -0.433,-4.102 v 0 c -1.032,-1.032 -2.525,-0.874 -3.319,0.35 l -6.488,10.013 c -0.656,1.013 -2.01,1.302 -3.022,0.646 l -9.124,-5.912 c -1.013,-0.657 -1.302,-2.01 -0.645,-3.023 l 6.138,-9.472 c 0.738,-1.139 0.591,-2.708 -0.469,-3.556 -1.219,-0.975 -2.978,-0.667 -3.805,0.61 l -6.219,9.596 c -0.656,1.013 -2.01,1.302 -3.023,0.646 l -9.123,-5.912 c -1.013,-0.656 -1.302,-2.01 -0.645,-3.023 l 6.138,-9.472 c 0.738,-1.139 0.591,-2.707 -0.469,-3.555 -1.219,-0.975 -2.978,-0.667 -3.805,0.609 l -6.219,9.597 c -0.656,1.013 -2.009,1.302 -3.022,0.645 l -1.801,-1.166 c -1.013,-0.657 -1.302,-2.01 -0.646,-3.023 l 11.732,-18.105 c 0.656,-1.013 2.01,-1.302 3.023,-0.645 l 10.373,6.722 c 1.013,0.656 1.302,2.01 0.646,3.023 l -6.454,9.959 c -0.868,1.34 -0.343,3.182 1.213,3.821 1.168,0.48 2.515,-0.032 3.201,-1.091 l 6.394,-9.868 c 0.657,-1.013 2.01,-1.302 3.023,-0.645 l 9.123,5.912 c 1.013,0.656 1.302,2.009 0.646,3.022 l -6.373,9.835 c -0.738,1.139 -0.591,2.708 0.468,3.556 1.219,0.975 2.979,0.667 3.806,-0.61 l 6.453,-9.959 c 0.657,-1.013 2.01,-1.302 3.023,-0.646 l 12.182,7.894 -7.382,11.392 7.385,-11.394 12.565,2.887 c 0.645,0.148 1.259,0.408 1.814,0.767 l 40.071,25.967 1.328,-2.048 c 0.614,-0.949 1.733,-1.441 2.848,-1.254 l 3.735,0.627 c 0.567,0.095 1.108,0.305 1.592,0.615 l 63.576,40.808 c 2.119,1.361 2.599,4.254 1.032,6.226 l -25.896,32.587 c -1.367,1.721 -3.82,2.116 -5.659,0.913 z m 17.453,-251.475 c -16.119,8.251 -35.122,12.21 -53.498,16.039 -33.322,6.942 -64.795,13.499 -80.401,43.433 -10.168,19.503 -9.662,40.513 1.503,62.443 5.731,11.259 12.965,20.004 17.32,24.74 0.886,0.963 1.007,2.398 0.295,3.497 l -7.148,11.03 c -0.997,1.54 -3.164,1.765 -4.447,0.453 -4.665,-4.77 -14.465,-15.737 -22.218,-30.765 -14.119,-27.365 -14.71,-55.012 -1.709,-79.951 19.656,-37.704 58.638,-45.826 93.032,-52.991 35.749,-7.448 66.622,-13.88 77.685,-47.883 32.817,-100.877 -153.487,-199.484 -155.371,-200.467 l 8.553,-16.405 c 2.037,1.062 50.398,26.461 95.156,65.937 26.628,23.485 46.371,47.091 58.676,70.161 15.958,29.916 19.518,59.018 10.577,86.497 -6.507,20.004 -18.939,34.473 -38.005,44.232"
       style="display:inline;fill:#231f20;fill-opacity:1;fill-rule:nonzero;stroke:none"
       transform="matrix(0.31752589,0,0,-0.31752589,157.79656,76.603242)"
       clip-path="url(#clipPath930)"
       inkscape:label="Soldering Iron" />
    <path
       id="path931"
       d="m 0,0 c 3.606,-1.502 7.742,-2.524 9.19,-2.271 1.448,0.254 2.55,-2.902 2.447,-7.011 l -34.438,-1380.457 c -0.103,-4.11 -3.136,-5.856 -6.741,-3.88 l -116.931,64.08 c -3.606,1.976 -6.253,6.942 -5.883,11.036 L -35.358,-23.589 c 0.37,4.095 -1.332,10.145 -3.782,13.446 l -18.115,24.405 c -2.449,3.301 -5.191,9.283 -6.093,13.294 l -4.47,19.88 c -0.902,4.011 1.087,9.262 4.419,11.67 l 4.8,3.471 c 3.332,2.408 7.777,3.558 9.878,2.555 2.101,-1.002 6.54,0.155 9.865,2.573 l 34.002,24.726 c 3.325,2.418 9.337,5.089 13.359,5.936 l 45.604,9.605 c 4.023,0.848 5.507,-1.297 3.299,-4.764 L -2.544,9.036 C -4.751,5.569 -3.606,1.502 0,0"
       style="display:inline;fill:#231f20;fill-opacity:1;fill-rule:nonzero;stroke:none"
       transform="matrix(0.31752589,0,0,-0.31752589,98.298974,171.61363)"
       clip-path="url(#clipPath932)" />
    <path
       id="path933"
       d="m 0,0 c -2.337,-3.381 -3.619,-9.452 -2.848,-13.489 l 307.631,-1610.593 c 0.772,-4.038 -1.547,-5.725 -5.152,-3.749 l -303.468,166.308 c -3.605,1.975 -6.713,6.952 -6.908,11.058 L -79.263,-5.511 c -0.195,4.106 2.993,7.785 7.085,8.175 l 1.879,0.18 c 4.092,0.39 4.702,2.663 1.357,5.052 l -14.78,10.552 c -3.346,2.388 -4.177,7.114 -1.847,10.501 l 57.762,83.977 c 2.33,3.387 7.323,7.494 11.096,9.126 l 16.549,7.161 c 3.773,1.632 10.22,3.118 14.327,3.301 l 2.158,0.096 c 4.107,0.183 4.383,1.673 0.613,3.312 l -6.825,2.968 c -3.77,1.639 -7.478,4.828 -8.24,7.088 -0.761,2.259 -0.335,7.303 0.947,11.209 l 2.094,6.374 c 1.283,3.906 -0.237,4.931 -3.378,2.279 l -16.043,-13.545 c -3.141,-2.652 -8.993,-4.088 -13.004,-3.191 l -33.33,7.454 c -4.012,0.897 -7.822,4.953 -8.465,9.013 l -2.549,16.055 c -0.644,4.06 1.945,8.646 5.755,10.191 l 83.757,33.964 c 3.809,1.545 8.73,-0.03 10.933,-3.5 l 55.887,-87.989 c 2.203,-3.469 2.094,-9.075 -0.244,-12.457 z"
       style="display:inline;fill:#231f20;fill-opacity:1;fill-rule:nonzero;stroke:none"
       transform="matrix(0.31752589,0,0,-0.31752589,130.77793,172.30689)"
       clip-path="url(#clipPath934)" />
    <path
       id="path935"
       d="M 0,0 C 1.763,-3.714 0.097,-8.041 -3.701,-9.615 L -41.6,-25.324 c -3.798,-1.574 -8.422,0.14 -10.276,3.809 l -18.52,36.645 c -1.854,3.669 -0.356,8.158 3.332,9.976 l 37.994,18.733 c 3.687,1.818 8.145,0.267 9.907,-3.447 z"
       style="display:inline;fill:#231f20;fill-opacity:1;fill-rule:nonzero;stroke:none"
       transform="matrix(0.31752589,0,0,-0.31752589,133.6129,96.305824)"
       clip-path="url(#clipPath936)" />
    <path
       id="path937"
       d="m 0,0 c -3.776,-1.626 -6.214,-6.256 -5.417,-10.289 l 2.055,-10.402 c 0.797,-4.033 0.482,-7.968 -0.7,-8.746 -1.181,-0.778 -3.872,1.474 -5.978,5.004 l -32.749,54.88 c -2.106,3.53 -0.813,7.905 2.874,9.724 l 36.425,17.96 c 3.687,1.818 8.265,0.326 10.173,-3.315 L 25.422,19.06 c 1.909,-3.641 0.381,-7.95 -3.395,-9.576 z"
       style="fill:#231f20;fill-opacity:1;fill-rule:nonzero;stroke:none"
       transform="matrix(0.31752589,0,0,-0.31752589,106.7365,110.09128)"
       clip-path="url(#clipPath938)" />
    <path
       id="path939"
       d="m 0,0 c 2.172,-3.49 0.923,-7.81 -2.777,-9.602 l -29.104,-14.087 c -3.7,-1.791 -8.689,-0.524 -11.087,2.815 l -49.483,68.899 c -2.399,3.338 -1.635,8.041 1.696,10.451 l 31.422,22.727 c 3.331,2.409 7.834,1.525 10.006,-1.965 z"
       style="fill:#231f20;fill-opacity:1;fill-rule:nonzero;stroke:none"
       transform="matrix(0.31752589,0,0,-0.31752589,108.81246,131.06253)"
       clip-path="url(#clipPath940)" />
    <path
       id="path941"
       d="m 0,0 c 2.46,-3.293 1.762,-7.979 -1.552,-10.412 l -20.633,-15.152 c -3.314,-2.433 -8.116,-1.791 -10.674,1.427 L -81.7,37.318 c -2.558,3.219 -1.926,7.823 1.405,10.233 l 23.011,16.648 c 3.331,2.41 8.069,1.686 10.529,-1.607 z"
       style="fill:#231f20;fill-opacity:1;fill-rule:nonzero;stroke:none"
       transform="matrix(0.31752589,0,0,-0.31752589,92.98184,138.75586)"
       clip-path="url(#clipPath942)"
       inkscape:label="pinkie" />
    <path
       id="path943"
       d="m 0,0 c 3.801,1.565 3.648,3.66 -0.34,4.655 l -44.423,11.084 c -3.989,0.996 -5.514,-1.07 -3.392,-4.59 l 11.107,-18.411 c 2.124,-3.52 6.97,-5.12 10.772,-3.555 z"
       style="display:inline;fill:#231f20;fill-opacity:1;fill-rule:nonzero;stroke:none"
       transform="matrix(0.31752589,0,0,-0.31752589,123.79801,129.91629)"
       clip-path="url(#clipPath944)"
       inkscape:label="path943" />
    <path
       id="path945"
       d="m 0,0 h -39.521 l 0.002,32.011 -41.202,-69.406 c -0.773,-1.301 0.165,-2.948 1.678,-2.948 h 39.522 v -32.014 l 41.2,69.408 C 2.451,-1.647 1.513,0 0,0"
       style="display:inline;fill:#ffffff;fill-opacity:1;fill-rule:nonzero;stroke:none"
       transform="matrix(0.31752589,0,0,-0.31752589,116.6542,231.20397)"
       clip-path="url(#clipPath946)" />
    <path
       id="path947"
       d="m 0,0 h 17.506 c 0.571,0 1.002,-0.517 0.899,-1.079 l -4.52,-24.748 c -0.183,-1.003 1.165,-1.508 1.686,-0.631 l 23.668,39.872 c 0.362,0.61 -0.077,1.381 -0.786,1.381 H 20.947 c -0.571,0 -1.002,0.517 -0.899,1.079 l 4.52,24.748 c 0.183,1.003 -1.165,1.508 -1.686,0.631 L -0.786,1.381 C -1.148,0.772 -0.709,0 0,0"
       style="display:inline;fill:#faa21a;fill-opacity:1;fill-rule:nonzero;stroke:none"
       transform="matrix(0.31752589,0,0,-0.31752589,98.000249,239.95835)"
       clip-path="url(#clipPath948)"
       inkscape:label="Lightenining Bolt" />
  </g>
  <g
     inkscape:groupmode="layer"
     id="layer8"
     inkscape:label="Edge.Cut"
     style="display:inline">
    <path
       style="display:inline;fill:none;stroke:#000000;stroke-width:0.1;stroke-dasharray:none"
       d="m 132.14278,175.82522 c 0.13358,-0.34371 0.40073,-1.0311 5.13856,-8.11347 4.73782,-7.08238 13.94542,-20.55839 18.5702,-27.53434 4.62478,-6.97596 4.66551,-7.45 4.67465,-7.98119 0.009,-0.53119 -0.0133,-1.11941 -0.35475,-2.07777 -0.34141,-0.95836 -1.00173,-2.28672 -3.09015,-5.65943 -2.08842,-3.37272 -5.60469,-8.78937 -7.63413,-11.76213 -2.02945,-2.97276 -2.57183,-3.50127 0.96993,-6.30524 3.54176,-2.80397 11.16736,-7.883164 15.04152,-10.708786 3.87416,-2.825622 3.99671,-3.397544 3.62904,-4.289497 -0.36768,-0.891952 -1.22556,-2.103879 -1.70898,-2.954974 -0.48342,-0.851095 -0.59236,-1.341313 -0.12936,-1.886016 0.46301,-0.544704 1.49791,-1.143856 7.42841,-5.092985 5.9305,-3.949128 16.75614,-11.247925 22.20311,-14.951869 5.44697,-3.703943 5.51506,-3.812876 5.55592,-4.01714 0.0409,-0.204264 0.0545,-0.50384 1.15073,-1.613681 1.09623,-1.10984 3.27498,-3.029862 4.48013,-4.200964 1.20514,-1.171103 1.43663,-1.593234 1.51789,-2.042292 0.0813,-0.449058 0.0123,-0.924997 -0.29411,-1.265441 -0.3064,-0.340444 -0.8502,-0.545348 -2.53834,0.08074 -1.68815,0.626093 -4.52052,2.08313 -6.10014,2.736764 -1.57963,0.653633 -1.90644,0.503846 -2.30816,0.531084 -0.40172,0.02724 -0.87832,0.231493 -6.95181,3.908271 -6.07349,3.676778 -17.74339,10.825784 -23.72145,14.366316 -5.97805,3.540532 -6.26401,3.472447 -6.80872,2.839224 -0.5447,-0.633222 -1.34811,-1.831535 -1.9541,-2.539645 -0.60598,-0.708109 -1.01449,-0.925981 -1.52515,-1.075773 -0.51066,-0.149792 -1.12343,-0.231494 -5.16108,2.144795 -4.03764,2.37629 -11.49984,7.21038 -15.5238,9.681944 -4.02395,2.471565 -4.60949,2.580502 -5.11334,2.240059 -0.50385,-0.340444 -0.92598,-1.130238 -1.52515,-2.267309 -0.59918,-1.13707 -1.37536,-2.621341 -2.02219,-3.54052 -0.64683,-0.919178 -1.16429,-1.273228 -1.75665,-1.436637 -0.59236,-0.163408 -1.25961,-0.136175 -3.78569,0.987284 -2.52607,1.12346 -6.91079,3.343054 -9.32789,4.738847 -2.4171,1.395793 -2.86647,1.967716 -3.1252,2.491992 -0.25873,0.524276 -0.32681,1.000875 -0.43576,1.280034 -0.10894,0.279159 -0.25873,0.360861 -0.64002,0.245108 -0.3813,-0.115753 -0.99407,-0.428947 -1.57281,-0.585546 -0.57875,-0.1566 -1.12344,-0.1566 -3.51334,0.919199 -2.3899,1.075799 -6.624833,3.227309 -9.00108,4.616293 -2.376247,1.388984 -2.8937,2.015374 -3.084343,2.669017 -0.190643,0.653642 -0.05447,1.3345 0.245116,2.08347 0.299589,0.74897 0.762574,1.566 0.973643,2.15155 0.21107,0.58555 0.170218,0.9396 -0.09533,1.03492 -0.265545,0.0953 -0.755764,-0.0681 -1.300465,-0.0817 -0.544702,-0.0136 -1.143856,0.12256 -3.349919,1.57284 -2.206063,1.45028 -6.018869,4.21457 -8.081911,5.85547 -2.063041,1.6409 -2.376238,2.15836 -2.505603,2.64178 -0.129365,0.48342 -0.0749,0.93279 0.02723,1.25961 0.102132,0.32682 0.251923,0.53108 0.354054,0.80343 0.102131,0.27235 0.1566,0.61278 0.09532,0.87152 -0.06128,0.25873 -0.238301,0.43575 -0.551508,0.42213 -0.313207,-0.0136 -0.762573,-0.21788 -1.273233,-0.29277 -0.51066,-0.0749 -1.082577,-0.0204 -2.793076,1.03998 -1.710499,1.0604 -4.559401,3.12662 -6.230219,4.5325 -1.670819,1.40588 -2.163372,2.15126 -2.279708,2.84102 -0.116335,0.68976 0.143559,1.32383 0.871271,2.43909 0.727712,1.11526 1.923149,2.71158 2.465756,3.76669 0.542606,1.05512 0.432299,1.56886 0.126981,2.00094 -0.305317,0.43208 -0.805603,0.78243 -4.130954,3.01571 -3.32535,2.23327 -9.475498,6.3493 -12.741279,8.59799 -3.26578,2.2487 -3.647061,2.62998 -3.864941,3.08617 -0.217881,0.45619 -0.272349,0.98726 -0.313201,1.36855 -0.04085,0.38129 -0.06808,0.61278 -0.578749,1.09621 -0.510664,0.48343 -1.504715,1.21875 -3.452035,2.47157 -1.947321,1.25282 -4.847776,3.02305 -6.686138,4.36438 -1.838363,1.34133 -2.614541,2.25368 -3.240948,2.99583 -0.626407,0.74216 -1.103006,1.31408 -3.874202,3.16608 -2.771197,1.852 -7.83678,4.98395 -10.48537,6.76103 -2.648591,1.77707 -2.880086,2.19921 -3.166054,2.68263 -0.285967,0.48342 -0.626399,1.02811 -0.925985,1.43664 -0.299586,0.40852 -0.558311,0.68086 -1.436652,1.68857 -0.878341,1.00771 -2.376228,2.75071 -3.8605422,4.94995 -1.4843138,2.19924 -2.9549652,4.85458 -4.0103236,7.26489 -1.0553584,2.41031 -1.6953648,4.57544 -2.0766535,6.35933 -0.3812888,1.7839 -0.5038436,3.18647 -0.4493713,4.95675 0.054472,1.77029 0.2859645,3.90819 0.7149191,5.77379 0.4289546,1.8656 1.0553445,3.45881 1.9472985,5.24271 0.8919541,1.78391 2.0494138,3.7584 3.4247881,5.48101 1.3753739,1.72262 2.9685849,3.19328 4.5414119,4.41886 1.572827,1.22557 3.125186,2.20601 5.01803,3.14562 1.892844,0.93961 4.126056,1.83835 7.258105,2.79158 3.132049,0.95323 7.162731,1.96089 10.274335,2.69624 3.111605,0.73534 5.303968,1.19833 7.332983,1.67494 2.029016,0.47662 3.894567,0.96683 5.801027,1.82474 1.90646,0.85792 3.853711,2.08346 5.34483,3.34989 1.491119,1.26644 2.526025,2.57369 3.424781,4.13971 0.898757,1.56602 1.661318,3.39072 2.144739,5.0044 0.483421,1.61368 0.687678,3.01625 0.789809,4.55503 0.10213,1.53879 0.10213,3.2137 -0.166234,4.74033 -0.268363,1.52662 -0.805058,2.90485 -1.179545,3.94958 -0.374486,1.04472 -0.586721,1.75582 -0.638372,2.34673 -0.05165,0.59091 0.05729,1.06158 0.772215,1.28329 0.714927,0.22171 2.035792,0.19447 16.542308,0.22655 14.506516,0.0321 42.196887,0.12346 56.323927,0.16966 14.12705,0.0462 14.68884,0.0472 14.8683,-0.5961 0.17946,-0.6433 0.23251,-0.30666 -0.12414,-2.56291 -0.35664,-2.25626 -0.32724,-2.07125 -2.91113,-15.80969 -2.58389,-13.73845 -7.63979,-40.51074 -10.16759,-53.89606 -2.52779,-13.38532 -2.52779,-13.38529 -2.3942,-13.72898 z"
       id="path1"
       sodipodi:nodetypes="ccccccccccccccccccccccccccccccccccccccccccccccccccccccccccccccccccccccccccccccccccccccccccccccccccccc"
       inkscape:original-d="m 132.0092,176.16894 c 0.26717,-0.68743 0.53431,-1.37482 0.80147,-2.06225 9.20849,-13.47732 18.41609,-26.95333 27.62491,-40.43113 0.0407,-0.47411 0.0815,-0.94815 0.12221,-1.42224 -0.0225,-0.58829 -0.0449,-1.17651 -0.0674,-1.76478 -0.66036,-1.32845 -1.32068,-2.65681 -1.98104,-3.98526 -3.51648,-5.41698 -7.03275,-10.83363 -10.54923,-16.25061 -0.54241,-0.52854 -1.08479,-1.05705 -1.62719,-1.58558 7.62592,-5.0794 15.25152,-10.158605 22.87728,-15.237906 0.12256,-0.571942 0.24512,-1.143863 0.36767,-1.715796 -0.85791,-1.211975 -1.71579,-2.423901 -2.57369,-3.635852 -0.10894,-0.490238 -0.21788,-0.980456 -0.32682,-1.470683 1.03495,-0.599179 2.06985,-1.198335 3.10478,-1.7975 10.82607,-7.29909 21.65171,-14.597885 32.47756,-21.896827 0.0681,-0.108942 0.13618,-0.217879 0.20427,-0.326818 0.0136,-0.299591 0.0272,-0.599168 0.0409,-0.898753 2.17883,-1.920094 4.35758,-3.840115 6.53637,-5.760172 0.2315,-0.422148 0.46299,-0.84428 0.69449,-1.26642 -0.069,-0.475971 -0.13795,-0.951913 -0.20692,-1.427886 -0.54383,-0.204914 -1.08763,-0.409819 -1.63144,-0.614729 -2.83248,1.457094 -5.66485,2.914131 -8.49727,4.371194 -0.32683,-0.149794 -0.65364,-0.299582 -0.98046,-0.449374 -0.47662,0.204267 -0.95322,0.408522 -1.42983,0.612783 -11.67037,7.149296 -23.34027,14.298303 -35.01041,21.447453 -0.28597,-0.06809 -0.57193,-0.136176 -0.8579,-0.204261 -0.80344,-1.198358 -1.60686,-2.396667 -2.41028,-3.595002 -0.40854,-0.217884 -0.81705,-0.435758 -1.22557,-0.653637 -0.6128,-0.08171 -1.22557,-0.163409 -1.83836,-0.245113 -7.4625,4.834284 -14.9247,9.668375 -22.38705,14.502561 -0.58556,0.108942 -1.1711,0.217879 -1.75665,0.326819 -0.42215,-0.789826 -0.84428,-1.579621 -1.26642,-2.369431 -0.77621,-1.484331 -1.55239,-2.968601 -2.32858,-4.452901 -0.51747,-0.35406 -1.03493,-0.708107 -1.55239,-1.062159 -0.66726,0.02724 -1.33451,0.05447 -2.00176,0.0817 -4.3849,2.219687 -8.76962,4.439282 -13.15444,6.658924 -0.44938,0.571942 -0.89875,1.143863 -1.34812,1.715797 -0.0681,0.476618 -0.13617,0.953219 -0.20426,1.429829 -0.1498,0.08171 -0.29959,0.16341 -0.44938,0.245113 -0.6128,-0.313206 -1.22557,-0.626401 -1.83835,-0.939602 -0.54471,0 -1.0894,0 -1.63409,0 -4.23511,2.151597 -8.470043,4.303107 -12.705065,6.454662 -0.517472,0.626414 -1.034925,1.252804 -1.552387,1.879205 0.136178,0.680884 0.272349,1.361742 0.408522,2.042622 0.463002,0.81706 0.925986,1.63409 1.388978,2.45113 -0.04085,0.35406 -0.0817,0.70811 -0.122555,1.06216 -0.490239,-0.16341 -0.980456,-0.32682 -1.470684,-0.49022 -0.599178,0.13617 -1.198332,0.27234 -1.7975,0.40852 -3.812958,2.76439 -7.62576,5.52868 -11.438641,8.29301 -0.313208,0.51747 -0.626401,1.03493 -0.939601,1.55239 0.05447,0.44938 0.108939,0.89875 0.163406,1.34813 0.149797,0.20426 0.299585,0.40852 0.449377,0.61278 0.05447,0.34044 0.108939,0.68087 0.163409,1.02131 -0.17703,0.17703 -0.354052,0.35405 -0.53108,0.53108 -0.449384,-0.20427 -0.89875,-0.40853 -1.348126,-0.61279 -0.571942,0.0545 -1.143862,0.10894 -1.715796,0.16341 -2.849065,2.06634 -5.697968,4.13256 -8.547024,6.1989 -0.492579,0.74542 -0.985132,1.4908 -1.477711,2.23622 0.259908,0.6341 0.519801,1.26817 0.77971,1.90227 1.195518,1.59642 2.390951,3.19274 3.586484,4.78918 -0.110318,0.51379 -0.220626,1.02753 -0.330943,1.54132 -0.500318,0.35037 -1.000603,0.70072 -1.500919,1.05109 -6.150387,4.11618 -12.300531,8.23221 -18.4508,12.34831 -0.381296,0.38129 -0.762576,0.76257 -1.143865,1.14386 -0.05447,0.53109 -0.108939,1.06216 -0.163409,1.59324 -0.02723,0.2315 -0.05447,0.46299 -0.0817,0.69449 -0.994093,0.73536 -1.988146,1.47068 -2.982217,2.20602 -2.900571,1.7703 -5.801027,3.54053 -8.701537,5.3108 -0.776211,0.91239 -1.552387,1.82474 -2.328582,2.7371 -0.476621,0.57195 -0.95322,1.14387 -1.42983,1.7158 -5.065786,3.13207 -10.131368,6.26402 -15.197052,9.39603 -0.2315,0.42214 -0.462992,0.84428 -0.694488,1.26642 -0.340443,0.5447 -0.680872,1.08939 -1.021308,1.63409 -0.258736,0.27235 -0.517462,0.54469 -0.776193,0.81704 -1.497948,1.74307 -2.995835,3.48607 -4.4937521,5.2291 -1.4707118,2.65545 -2.9413646,5.31079 -4.4120471,7.96619 -0.6400321,2.16522 -1.2800383,4.33035 -1.9200577,6.49552 -0.1225592,1.40262 -0.2451137,2.80519 -0.3676705,4.20778 0.2315009,2.13798 0.4629927,4.27588 0.6944889,6.41381 0.6264142,1.59327 1.2528036,3.18648 1.8792052,4.77972 1.1575047,1.97457 2.3149631,3.94906 3.4724448,5.92358 1.5932715,1.47071 3.1864785,2.94137 4.7797175,4.41205 1.552418,0.98047 3.104774,1.96091 4.657161,2.94136 2.233303,0.89877 4.466517,1.7975 6.699775,2.69626 4.03084,1.0077 8.061518,2.01538 12.092278,3.02306 2.192449,0.46301 4.384813,0.92599 6.577219,1.38898 1.865625,0.49024 3.731175,0.98046 5.596763,1.47068 1.947331,1.2256 3.894585,2.45114 5.841878,3.67671 1.034944,1.3073 2.069849,2.61455 3.104774,3.92182 0.76259,1.82477 1.525151,3.64947 2.287728,5.47421 0.204266,1.40262 0.408522,2.80519 0.612783,4.20778 0,1.67498 0,3.34989 0,5.02483 -0.536729,1.37831 -1.073423,2.75654 -1.610149,4.13485 -0.212247,0.71114 -0.42448,1.42224 -0.636727,2.13338 0.108942,0.47068 0.217882,0.94135 0.326819,1.412 1.320919,-0.0272 2.641782,-0.0545 3.962672,-0.0817 27.692143,0.0914 55.382514,0.18277 83.074764,0.27416 0.56184,10e-4 1.12363,0.002 1.68547,0.003 -0.20292,-1.28759 -0.14987,-0.95095 -0.60875,-3.86262 -0.25441,-1.60084 -0.225,-1.41583 -0.3375,-2.12367 -5.05529,-26.76905 -10.11119,-53.54134 -15.16679,-80.31201 1e-5,3e-5 2e-5,9e-5 2e-5,9e-5 z"
       inkscape:path-effect="#path-effect1" />
  </g>
  <g
     inkscape:groupmode="layer"
     id="layer7"
     inkscape:label="F.Mask"
     style="display:none">
    <path
       id="path5"
       d="m 0,0 h 17.506 c 0.571,0 1.002,-0.517 0.899,-1.079 l -4.52,-24.748 c -0.183,-1.003 1.165,-1.508 1.686,-0.631 l 23.668,39.872 c 0.362,0.61 -0.077,1.381 -0.786,1.381 H 20.947 c -0.571,0 -1.002,0.517 -0.899,1.079 l 4.52,24.748 c 0.183,1.003 -1.165,1.508 -1.686,0.631 L -0.786,1.381 C -1.148,0.772 -0.709,0 0,0"
       style="display:inline;fill:#000000;fill-opacity:1;fill-rule:nonzero;stroke:none"
       transform="matrix(0.3175259,0,0,-0.3175259,98.000248,239.95835)"
       clip-path="url(#clipPath948)"
       inkscape:label="Lightenining Bolt" />
    <path
       id="path6"
       d="m 125.877,59.658 -98.27,-63.68 -0.615,0.949 c -0.426,0.657 -1.303,0.844 -1.96,0.419 l -7.734,-5.013 c -0.926,-0.599 -1.19,-1.836 -0.59,-2.761 l 10.307,-15.906 c 0.599,-0.925 1.836,-1.189 2.761,-0.589 l 7.735,5.012 c 0.656,0.425 0.844,1.303 0.418,1.959 l -0.614,0.949 98.272,63.681 c 0.985,0.639 1.267,1.955 0.629,2.94 l -0.315,0.486 -7.084,10.927 c -0.639,0.985 -1.955,1.266 -2.94,0.627 m 33.614,11.076 c -0.38,0.58 -1.13,0.8 -1.77,0.52 l -0.05,-0.01 -15.35,-6.86 -13.18,-5.84 6.76,-10.44 10.78,9.55 12.53,11.22 0.03,0.04 c 0.52,0.46 0.62,1.23 0.25,1.82"
       style="display:inline;fill:#231f20;fill-opacity:1;fill-rule:nonzero;stroke:none"
       transform="matrix(0.3175259,0,0,-0.3175259,157.79656,76.603241)"
       clip-path="url(#clipPath930)"
       inkscape:label="Soldering Iron"
       sodipodi:nodetypes="cccccccccccccccccccccccccc" />
  </g>
  <g
     inkscape:groupmode="layer"
     id="layer9"
     inkscape:label="F.Silk"
     style="display:inline">
    <path
       id="path7"
       style="display:inline;fill:#0000ff;fill-opacity:1;stroke:#000000;stroke-width:0.1;stroke-dasharray:none"
       d="M 208.54024 53.045858 C 208.15498 53.030338 207.59734 53.135888 206.75327 53.448934 C 205.06512 54.075027 202.23249 55.532084 200.65287 56.185718 C 199.07324 56.839351 198.74672 56.689197 198.345 56.716435 C 197.94328 56.743675 197.46646 56.947945 191.39297 60.624723 C 185.31948 64.301501 173.64948 71.450756 167.67142 74.991288 C 161.69337 78.53182 161.40724 78.463614 160.86253 77.830391 C 160.31783 77.197169 159.51464 75.999122 158.90865 75.291012 C 158.30267 74.582903 157.89434 74.3649 157.38368 74.215108 C 156.87302 74.065316 156.25988 73.983391 152.22223 76.35968 C 148.18459 78.73597 140.72259 83.570213 136.69863 86.041777 C 132.67468 88.513342 132.0891 88.622393 131.58525 88.28195 C 131.0814 87.941506 130.65945 87.151459 130.06028 86.014388 C 129.4611 84.877318 128.68501 83.393215 128.03818 82.474036 C 127.39135 81.554858 126.87354 81.20084 126.28118 81.037431 C 125.68882 80.874023 125.02145 80.900992 122.49537 82.024451 C 119.9693 83.147911 115.58487 85.367903 113.16777 86.763696 C 110.75067 88.159489 110.30111 88.731258 110.04238 89.255534 C 109.78365 89.77981 109.7157 90.2564 109.60675 90.535559 C 109.49781 90.814718 109.34828 90.896258 108.96699 90.780505 C 108.58569 90.664752 107.9727 90.35161 107.39396 90.195011 C 106.81521 90.038411 106.27038 90.038536 103.88048 91.114335 C 101.49058 92.190134 97.255727 94.341607 94.87948 95.730591 C 92.503233 97.119575 91.986074 97.746036 91.795431 98.399679 C 91.604788 99.053321 91.740791 99.734318 92.040377 100.48327 C 92.339966 101.23224 92.802892 102.04901 93.013961 102.63456 C 93.225031 103.22011 93.183903 103.57432 92.918359 103.66964 C 92.652814 103.76494 92.162881 103.60159 91.61818 103.58799 C 91.073478 103.57439 90.47406 103.71023 88.267997 105.16051 C 86.061934 106.61079 82.249362 109.37506 80.18632 111.01596 C 78.123279 112.65686 77.809895 113.17424 77.68053 113.65766 C 77.551165 114.14108 77.605788 114.59071 77.707918 114.91753 C 77.81005 115.24435 77.959771 115.44875 78.061902 115.7211 C 78.164033 115.99345 78.218785 116.33363 78.157503 116.59237 C 78.096223 116.8511 77.918806 117.02818 77.605599 117.01456 C 77.292392 117.00096 76.843468 116.79645 76.332808 116.72156 C 75.822148 116.64666 75.250196 116.70146 73.539697 117.7618 C 71.829198 118.8222 68.979888 120.88846 67.30907 122.29434 C 65.638251 123.70022 65.145958 124.44575 65.029622 125.13551 C 64.913287 125.82527 65.173175 126.45938 65.900887 127.57464 C 66.628599 128.6899 67.823763 130.28623 68.36637 131.34134 C 68.908976 132.39646 68.798812 132.91017 68.493494 133.34225 C 68.188177 133.77433 67.687831 134.12429 64.36248 136.35757 C 61.03713 138.59084 54.88692 142.7068 51.621139 144.95549 C 48.355359 147.20419 47.974138 147.58594 47.756258 148.04213 C 47.538377 148.49832 47.483951 149.02923 47.443099 149.41052 C 47.402249 149.79181 47.374989 150.02315 46.864323 150.50658 C 46.353659 150.99001 45.359657 151.72544 43.412337 152.97826 C 41.465016 154.23108 38.564802 156.00152 36.72644 157.34285 C 34.888077 158.68418 34.111702 159.59638 33.485295 160.33853 C 32.858888 161.08069 32.382308 161.65275 29.611112 163.50475 C 26.839915 165.35675 21.774554 168.4885 19.125964 170.26558 C 16.477373 172.04265 16.245717 172.46468 15.959749 172.9481 C 15.673782 173.43152 15.333294 173.97617 15.033708 174.3847 C 14.734122 174.79322 14.475444 175.06578 13.597103 176.07349 C 12.718762 177.0812 11.220671 178.82434 9.7363566 181.02358 C 8.2520428 183.22282 6.7816239 185.87794 5.7262655 188.28825 C 4.6709071 190.69856 4.0306783 192.86366 3.6493896 194.64755 C 3.2681008 196.43145 3.1458492 197.83407 3.2003215 199.60435 C 3.2547935 201.37464 3.4860519 203.51256 3.9150065 205.37816 C 4.3439611 207.24376 4.9702205 208.83684 5.8621745 210.62074 C 6.7541286 212.40465 7.9119141 214.37944 9.2872884 216.10205 C 10.662662 217.82467 12.255786 219.29533 13.828613 220.52091 C 15.40144 221.74648 16.953551 222.72684 18.846395 223.66645 C 20.739239 224.60606 22.972818 225.50478 26.104867 226.45801 C 29.236916 227.41124 33.267571 228.41862 36.379175 229.15397 C 39.49078 229.88931 41.683046 230.35219 43.712061 230.8288 C 45.741077 231.30542 47.606797 231.79611 49.513257 232.65402 C 51.419717 233.51194 53.367031 234.73725 54.85815 236.00368 C 56.349269 237.27012 57.383991 238.57746 58.282747 240.14348 C 59.181504 241.7095 59.943898 243.53415 60.427319 245.14783 C 60.91074 246.76151 61.115321 248.16381 61.217452 249.70259 C 61.319582 251.24138 61.319418 252.91675 61.051054 254.44338 C 60.782691 255.97 60.245768 257.34777 59.871281 258.3925 C 59.496795 259.43722 59.284728 260.14873 59.233077 260.73964 C 59.181427 261.33055 59.290197 261.80106 60.005123 262.02277 C 60.72005 262.24448 62.041266 262.21703 76.547782 262.24911 C 91.054298 262.28121 118.74444 262.37292 132.87148 262.41912 C 146.99853 262.46532 147.56036 262.46612 147.73982 261.82278 C 147.91928 261.17948 147.97245 261.51639 147.6158 259.26014 C 147.25916 257.00388 147.28824 257.1887 144.70435 243.45026 C 142.12046 229.71181 137.06481 202.93964 134.53701 189.55432 C 132.00922 176.169 132.00925 176.16913 132.14284 175.82544 C 132.27642 175.48173 132.54371 174.7941 137.28154 167.71173 C 142.01936 160.62935 151.22669 147.15344 155.85147 140.17749 C 160.47625 133.20153 160.51698 132.72726 160.52612 132.19607 C 160.53512 131.66488 160.51312 131.07703 160.17162 130.11867 C 159.83021 129.16031 159.16979 127.83178 157.08137 124.45907 C 154.99295 121.08635 151.47665 115.66976 149.44721 112.697 C 147.41776 109.72424 146.87542 109.19541 150.41718 106.39144 C 153.95894 103.58747 161.58447 98.508671 165.45863 95.683049 C 169.33279 92.857427 169.45554 92.285341 169.08787 91.393388 C 168.72019 90.501436 167.86183 89.289624 167.37841 88.438529 C 166.89499 87.587434 166.78622 87.097043 167.24922 86.55234 C 167.71223 86.007636 168.74721 85.408756 174.67771 81.459627 C 180.60821 77.510499 191.43404 70.211512 196.88101 66.507568 C 202.32798 62.803625 202.39588 62.694507 202.43674 62.490243 C 202.47764 62.285979 202.49134 61.986745 203.58757 60.876904 C 204.6838 59.767064 206.86225 57.846712 208.0674 56.67561 C 209.27254 55.504507 209.5044 55.082416 209.58566 54.633358 C 209.66696 54.1843 209.59806 53.708246 209.29162 53.367802 C 209.13842 53.19758 208.92551 53.061378 208.54024 53.045858 z M 208.07309 53.93986 C 208.21757 53.94396 208.356 54.01685 208.43896 54.143465 C 208.55644 54.330805 208.52509 54.575146 208.35989 54.721208 L 208.35007 54.734127 L 204.3715 58.2967 L 200.94846 61.329073 L 201.04871 61.483069 C 201.25129 61.795832 201.16149 62.213963 200.84872 62.416862 L 169.64494 82.637333 L 169.83976 82.938607 C 169.97503 83.146904 169.91576 83.425843 169.70747 83.560791 L 167.25129 85.151908 C 166.95758 85.342424 166.56454 85.258551 166.37434 84.96484 L 163.10167 79.914502 C 162.91116 79.62079 162.99523 79.227751 163.28926 79.037553 L 165.74492 77.445919 C 165.95354 77.31097 166.23184 77.370629 166.36711 77.579244 L 166.56244 77.880518 L 197.76571 57.660046 C 198.07847 57.457147 198.4966 57.546754 198.6995 57.859517 L 200.94846 61.329073 L 198.80234 58.01403 L 202.98709 56.15988 L 207.86121 53.981201 L 207.87723 53.978101 C 207.94073 53.950321 208.00741 53.93799 208.07309 53.93986 z M 157.07052 76.192765 L 157.07103 76.192765 C 157.36278 76.202427 157.63497 76.353727 157.79657 76.603076 L 167.2301 91.161361 C 167.41522 91.447134 167.4237 91.812294 167.25129 92.106006 L 166.6937 93.056335 C 166.58733 93.237643 166.4403 93.39181 166.26375 93.506437 L 163.50423 95.295992 C 163.36928 95.383632 163.18824 95.344165 163.10219 95.207625 C 163.01769 95.073629 162.83752 95.038892 162.7048 95.124943 L 161.86195 95.671163 C 161.72828 95.757843 161.69004 95.936626 161.77669 96.070622 L 161.77721 96.071139 C 161.86391 96.205134 161.82564 96.383913 161.69194 96.470597 L 147.26595 105.81886 C 146.63629 106.2272 145.79446 106.04357 145.39216 105.4101 L 142.13344 100.27967 C 140.76014 98.225903 139.0165 97.789435 138.03757 97.721167 C 137.54318 97.686237 137.1095 97.375645 136.89707 96.927934 L 134.3179 91.492607 C 134.02736 90.881052 134.2348 90.149096 134.80314 89.781083 L 150.68693 79.489205 C 150.8206 79.402515 150.99938 79.440077 151.08639 79.573437 L 151.08949 79.577055 C 151.17649 79.710416 151.35475 79.748488 151.48843 79.661804 L 152.33075 79.115584 C 152.46601 79.027944 152.50349 78.846822 152.41395 78.712508 C 152.32565 78.5801 152.36685 78.400967 152.50025 78.3146 L 155.26081 76.525562 C 155.43799 76.410617 155.63972 76.338816 155.84992 76.316272 L 156.94494 76.197933 C 156.98697 76.193352 157.02899 76.191497 157.07052 76.192765 z M 125.51792 82.146407 C 126.35407 82.183487 127.14349 82.669413 127.52813 83.480176 L 133.61303 96.30575 C 134.17283 97.485041 133.64383 98.859007 132.43791 99.358793 L 120.40402 104.3466 C 119.19806 104.84639 117.72986 104.3024 117.14117 103.13737 L 111.26039 91.501908 C 110.6717 90.336906 111.14717 88.911405 112.31821 88.334143 L 124.38259 82.385669 C 124.74844 82.205275 125.13785 82.129553 125.51792 82.146407 z M 106.77436 91.388737 C 107.62488 91.418727 108.44196 91.890989 108.85847 92.685815 L 114.8085 104.03913 C 115.41465 105.19524 114.9295 106.56347 113.73053 107.07977 L 106.73664 110.09147 C 105.53766 110.60777 104.76326 112.07787 105.01633 113.35846 L 105.669 116.6611 C 105.92207 117.94168 105.82211 119.19115 105.44679 119.43819 C 105.0718 119.68522 104.21743 118.97 103.54872 117.84914 L 93.14987 100.42333 C 92.48116 99.302449 92.891758 97.913757 94.062476 97.336178 L 105.62818 91.633167 C 105.99403 91.452772 106.38776 91.375106 106.77436 91.388737 z M 137.33839 100.42746 C 138.32088 100.41276 139.33091 100.90076 139.85555 101.72712 L 157.60072 129.66547 C 158.30023 130.76697 158.26556 132.54743 157.5232 133.6213 L 130.77806 172.3068 C 130.03601 173.38035 129.62891 175.3084 129.87373 176.59025 L 145.90944 260.54585 L 109.71113 260.54585 L 109.01712 245.90489 L 117.18716 232.14035 C 117.43229 231.72693 117.13479 231.20398 116.65438 231.20398 L 108.32 231.20398 L 105.61009 174.05656 C 105.54819 172.7528 106.56025 171.58469 107.85957 171.46085 L 108.45643 171.40401 C 109.75575 171.28017 109.94902 170.55802 108.88689 169.79945 L 104.19416 166.44927 C 103.13172 165.69102 102.86779 164.19005 103.60763 163.11459 L 121.94863 136.45007 C 122.68846 135.37461 124.2739 134.07026 125.47193 133.55205 L 130.72639 131.27829 C 131.92441 130.76009 133.97138 130.2884 135.27546 130.23029 L 135.96069 130.1998 C 137.26477 130.1417 137.35259 129.66861 136.15551 129.14819 L 133.9882 128.20561 C 132.79113 127.68519 131.61378 126.67271 131.37183 125.9551 C 131.13019 125.23781 131.26551 123.6364 131.67258 122.39615 L 132.33766 120.37198 C 132.74504 119.13172 132.26216 118.80643 131.26486 119.64851 L 126.17111 123.94954 C 125.17376 124.79162 123.31524 125.24722 122.04165 124.9624 L 111.45883 122.59562 C 110.18492 122.3108 108.97479 121.02293 108.77062 119.73378 L 107.96137 114.6359 C 107.75688 113.34674 108.57887 111.8905 109.78865 111.39992 L 136.38392 100.61556 C 136.68629 100.49292 137.01089 100.43235 137.33839 100.42746 z M 91.261096 104.84735 C 91.998826 104.84035 92.718828 105.20998 93.14987 105.90258 L 108.81248 131.06228 C 109.50215 132.17045 109.10573 133.54219 107.93088 134.11119 L 98.689583 138.58431 C 97.514738 139.15299 95.930295 138.75104 95.168868 137.69082 L 79.456649 115.8136 C 78.694904 114.7537 78.937955 113.26018 79.995634 112.49494 L 89.972803 105.27833 C 90.369432 104.99148 90.818458 104.85162 91.261096 104.84735 z M 76.109566 117.92045 C 76.877194 117.89285 77.647603 118.22761 78.135799 118.88112 L 92.981921 138.75587 C 93.763035 139.80148 93.541209 141.28959 92.488928 142.06213 L 85.93739 146.87321 C 84.885109 147.64575 83.360681 147.4418 82.54845 146.42 L 67.039836 126.90647 C 66.227604 125.88435 66.428641 124.42229 67.48632 123.65705 L 74.792851 118.37107 C 75.18948 118.08411 75.648989 117.937 76.109566 117.92045 z M 108.95717 124.83993 C 109.13718 124.83393 109.34704 124.85969 109.58453 124.91899 L 123.69012 128.43816 C 124.95642 128.75409 125.00504 129.41917 123.79813 129.9161 L 115.45445 133.35103 C 114.24722 133.84796 112.70893 133.34013 112.03451 132.22242 L 108.50759 126.37627 C 107.96013 125.46814 108.17716 124.86462 108.95717 124.83993 z M 69.373543 135.03672 C 69.782444 135.02872 70.188497 135.20523 70.459782 135.54677 L 78.682536 145.89394 C 79.180099 146.5201 79.027745 147.43892 78.354907 147.87108 L 58.167509 160.82843 C 58.013826 160.92683 57.842151 160.9936 57.662113 161.02376 L 56.476139 161.22272 C 56.122098 161.28212 55.766763 161.12612 55.571802 160.82481 L 55.150122 160.17472 L 42.426868 168.41969 C 42.250641 168.53369 42.05548 168.6161 41.850675 168.66309 L 37.860738 169.57983 L 37.860221 169.57931 L 33.991724 172.08562 C 33.67007 172.29392 33.240707 172.20212 33.032092 171.88046 L 30.983122 168.71838 C 30.720528 168.3129 30.161474 168.21501 29.77441 168.5246 C 29.43815 168.79386 29.391765 169.29207 29.626099 169.65373 L 31.649748 172.77653 C 31.858045 173.09819 31.766246 173.52787 31.444592 173.73617 L 28.547611 175.61357 C 28.225958 175.82218 27.796595 175.73059 27.58798 175.40893 L 25.557613 172.27527 C 25.33979 171.93901 24.912008 171.77663 24.541138 171.92904 C 24.047067 172.13194 23.880536 172.71692 24.156148 173.1424 L 26.205119 176.30448 C 26.413416 176.62614 26.321617 177.05582 25.999963 177.26412 L 22.706624 179.39887 C 22.384971 179.60748 21.954773 179.51537 21.746476 179.19371 L 18.021122 173.44523 C 17.812825 173.12357 17.904624 172.69369 18.226278 172.48508 L 18.798336 172.11508 C 19.11999 171.90646 19.54967 171.99806 19.757967 172.31971 L 21.732524 175.36707 C 21.995118 175.77224 22.553655 175.86993 22.940719 175.56034 C 23.277296 175.29108 23.323881 174.79339 23.089547 174.43173 L 21.140828 171.42416 C 20.932214 171.10251 21.023813 170.67231 21.345467 170.46401 L 24.242448 168.58713 C 24.564102 168.37883 24.993782 168.47063 25.202079 168.79228 L 27.176636 171.83912 C 27.43923 172.2446 27.997767 172.3425 28.384831 172.03291 C 28.721408 171.76365 28.76851 171.26544 28.534176 170.90378 L 26.584941 167.89621 C 26.376326 167.57456 26.467926 167.14468 26.789579 166.93606 L 29.687077 165.05918 C 30.008413 164.85088 30.438411 164.94268 30.646708 165.26433 L 32.706531 168.44347 C 32.958646 168.83212 33.432526 168.88226 33.760213 168.55457 C 34.0879 168.22688 34.150305 167.64098 33.898189 167.25232 L 32.029569 164.36826 C 31.820955 164.04661 31.912554 163.61693 32.234208 163.40863 L 33.379875 162.66552 L 33.380908 162.66656 L 35.846908 159.39647 C 35.9736 159.2285 36.128733 159.08393 36.305278 158.96962 L 49.027498 150.72517 L 48.611503 150.08335 C 48.418765 149.78582 48.418883 149.40347 48.610986 149.10563 L 49.269861 148.08553 C 49.372104 147.92709 49.506858 147.79134 49.664669 147.68814 L 68.662992 135.25686 C 68.881968 135.11362 69.128201 135.04181 69.373543 135.03672 z M 115.92057 137.27224 C 116.85694 137.23724 117.14071 137.87892 116.52725 138.84217 L 97.491207 168.74422 C 96.790427 169.84508 97.153911 171.13689 98.29891 171.61381 C 99.443908 172.09074 100.7573 172.41503 101.21708 172.3347 C 101.67686 172.2541 102.02648 173.25621 101.99377 174.56092 L 100.69049 226.79236 L 91.023385 243.07767 C 90.777937 243.49077 91.075752 244.01405 91.556169 244.01405 L 100.26106 244.01405 L 99.848686 260.54585 L 79.713481 260.54585 L 87.071688 179.1038 C 87.189172 177.80353 86.649183 175.88244 85.871244 174.83429 L 80.119141 167.08489 C 79.34152 166.03674 78.470783 164.13756 78.184375 162.86396 L 76.764823 156.55168 C 76.478415 155.27809 77.110359 153.61057 78.168355 152.84597 L 79.692293 151.74371 C 80.75029 150.97911 82.161931 150.61391 82.829053 150.93239 C 83.496175 151.25055 84.905388 150.88319 85.961161 150.11538 L 96.757918 142.26418 C 97.813692 141.49641 99.722431 140.64849 100.99952 140.37955 L 115.47977 137.3296 C 115.63945 137.296 115.78681 137.27724 115.92057 137.27224 z M 15.719971 175.94223 C 16.017061 175.94023 16.312908 176.08369 16.490983 176.35874 L 18.760612 179.86086 C 18.98669 180.20982 18.948402 180.66561 18.667078 180.97138 C 17.284252 182.47519 14.986896 185.25221 13.167155 188.82723 C 9.6219781 195.79058 9.4615791 202.46174 12.690181 208.65445 C 17.645491 218.15927 27.638775 220.24107 38.219373 222.44534 C 44.054228 223.66114 50.088249 224.91814 55.206449 227.53805 C 61.260398 230.63678 65.207789 235.2314 67.27393 241.58319 C 69.258197 247.68157 69.303397 254.03168 67.420691 260.54585 L 61.267061 260.54585 C 63.180879 254.97407 63.574627 249.19879 61.688224 243.40013 C 58.175431 232.6033 48.372746 230.56082 37.021513 228.19589 C 26.100527 225.92082 13.722486 223.34204 7.4811971 211.37004 C 3.3530429 203.45127 3.5406515 194.67258 8.0237996 185.98348 C 10.485578 181.2117 13.597408 177.72968 15.078666 176.21508 C 15.256897 176.03282 15.488901 175.94357 15.719971 175.94223 z M 105.49899 226.71639 C 105.66797 226.70987 105.83943 226.85104 105.80129 227.06004 L 104.36624 234.91796 C 104.33353 235.09641 104.47019 235.26058 104.65149 235.26058 L 110.21033 235.26058 C 110.43545 235.26058 110.57435 235.50562 110.45941 235.69931 L 102.94462 248.35952 C 102.77919 248.63799 102.35115 248.47749 102.40925 248.15901 L 103.84431 240.30109 C 103.87701 240.12265 103.74036 239.95848 103.55905 239.95848 L 98.00022 239.95848 C 97.775094 239.95848 97.635678 239.71312 97.750623 239.51975 L 105.26593 226.85954 C 105.32279 226.76381 105.41047 226.71981 105.49899 226.71639 z " />
  </g>
</svg>
