<?xml version="1.0" encoding="UTF-8" standalone="no"?>
<!-- Created with Inkscape (http://www.inkscape.org/) -->

<svg
   width="210mm"
   height="297mm"
   viewBox="0 0 210 297"
   version="1.1"
   id="svg1"
   inkscape:version="1.4.3 (0d15f75, 2025-12-25)"
   sodipodi:docname="ifixit-fist-iron.svg"
   inkscape:export-filename="f.mask.svg"
   inkscape:export-xdpi="96"
   inkscape:export-ydpi="96"
   xmlns:inkscape="http://www.inkscape.org/namespaces/inkscape"
   xmlns:sodipodi="http://sodipodi.sourceforge.net/DTD/sodipodi-0.dtd"
   xmlns="http://www.w3.org/2000/svg"
   xmlns:svg="http://www.w3.org/2000/svg">
  <sodipodi:namedview
     id="namedview1"
     pagecolor="#ffffff"
     bordercolor="#666666"
     borderopacity="1.0"
     inkscape:showpageshadow="2"
     inkscape:pageopacity="0.0"
     inkscape:pagecheckerboard="0"
     inkscape:deskcolor="#d1d1d1"
     inkscape:document-units="mm"
     inkscape:zoom="0.61602926"
     inkscape:cx="174.5047"
     inkscape:cy="552.73348"
     inkscape:window-width="1920"
     inkscape:window-height="1116"
     inkscape:window-x="0"
     inkscape:window-y="38"
     inkscape:window-maximized="0"
     inkscape:current-layer="svg1" />
  <defs
     id="defs1">
    <inkscape:path-effect
       effect="bspline"
       id="path-effect8"
       is_visible="true"
       lpeversion="1.3"
       weight="33.333333"
       steps="2"
       helper_size="0"
       apply_no_weight="true"
       apply_with_weight="true"
       only_selected="false"
       uniform="false" />
    <inkscape:path-effect
       effect="bspline"
       id="path-effect5"
       is_visible="true"
       lpeversion="1.3"
       weight="33.333333"
       steps="2"
       helper_size="0"
       apply_no_weight="true"
       apply_with_weight="true"
       only_selected="false"
       uniform="false" />
    <inkscape:path-effect
       effect="bspline"
       id="path-effect4"
       is_visible="true"
       lpeversion="1.3"
       weight="33.333333"
       steps="2"
       helper_size="0"
       apply_no_weight="true"
       apply_with_weight="true"
       only_selected="false"
       uniform="false" />
    <inkscape:path-effect
       effect="bspline"
       id="path-effect3"
       is_visible="true"
       lpeversion="1.3"
       weight="33.333333"
       steps="2"
       helper_size="0"
       apply_no_weight="true"
       apply_with_weight="true"
       only_selected="false"
       uniform="false" />
    <inkscape:path-effect
       effect="bspline"
       id="path-effect2"
       is_visible="true"
       lpeversion="1.3"
       weight="33.333333"
       steps="2"
       helper_size="0"
       apply_no_weight="true"
       apply_with_weight="true"
       only_selected="false"
       uniform="false" />
    <inkscape:path-effect
       effect="bspline"
       id="path-effect1"
       is_visible="true"
       lpeversion="1.3"
       weight="33.333333"
       steps="2"
       helper_size="0"
       apply_no_weight="true"
       apply_with_weight="true"
       only_selected="false"
       uniform="false" />
    <clipPath
       clipPathUnits="userSpaceOnUse"
       id="clipPath930">
      <path
         d="M 0,708.661 H 708.661 V 0 H 0 Z"
         transform="translate(-496.11764,-579.29912)"
         id="path930" />
    </clipPath>
    <clipPath
       clipPathUnits="userSpaceOnUse"
       id="clipPath932">
      <path
         d="M 0,708.661 H 708.661 V 0 H 0 Z"
         transform="translate(-308.73898,-280.07821)"
         id="path932" />
    </clipPath>
    <clipPath
       clipPathUnits="userSpaceOnUse"
       id="clipPath934">
      <path
         d="M 0,708.661 H 708.661 V 0 H 0 Z"
         transform="translate(-411.02654,-277.89491)"
         id="path934" />
    </clipPath>
    <clipPath
       clipPathUnits="userSpaceOnUse"
       id="clipPath936">
      <path
         d="M 0,708.661 H 708.661 V 0 H 0 Z"
         transform="translate(-419.95484,-517.24881)"
         id="path936" />
    </clipPath>
    <clipPath
       clipPathUnits="userSpaceOnUse"
       id="clipPath938">
      <path
         d="M 0,708.661 H 708.661 V 0 H 0 Z"
         transform="translate(-335.31171,-473.83361)"
         id="path938" />
    </clipPath>
    <clipPath
       clipPathUnits="userSpaceOnUse"
       id="clipPath940">
      <path
         d="M 0,708.661 H 708.661 V 0 H 0 Z"
         transform="translate(-341.84961,-407.78781)"
         id="path940" />
    </clipPath>
    <clipPath
       clipPathUnits="userSpaceOnUse"
       id="clipPath942">
      <path
         d="M 0,708.661 H 708.661 V 0 H 0 Z"
         transform="translate(-291.99343,-383.55881)"
         id="path942" />
    </clipPath>
    <clipPath
       clipPathUnits="userSpaceOnUse"
       id="clipPath944">
      <path
         d="M 0,708.661 H 708.661 V 0 H 0 Z"
         transform="translate(-389.04433,-411.39771)"
         id="path944" />
    </clipPath>
    <clipPath
       clipPathUnits="userSpaceOnUse"
       id="clipPath946">
      <path
         d="M 0,708.661 H 708.661 V 0 H 0 Z"
         transform="translate(-366.54598,-92.4074)"
         id="path946" />
    </clipPath>
    <clipPath
       clipPathUnits="userSpaceOnUse"
       id="clipPath948">
      <path
         d="M 0,708.661 H 708.661 V 0 H 0 Z"
         transform="translate(-307.79818,-64.836799)"
         id="path948" />
    </clipPath>
  </defs>
  <g
     inkscape:label="Layer 1"
     inkscape:groupmode="layer"
     id="layer1"
     style="display:none">
    <path
       id="path929"
       d="M 0,0 C -0.582,0.898 -1.62,1.392 -2.684,1.277 L -6.133,0.903 C -6.795,0.832 -7.43,0.606 -7.988,0.244 l -8.694,-5.633 c -0.42,-0.272 -0.55,-0.837 -0.272,-1.254 0.282,-0.423 0.164,-0.994 -0.262,-1.27 l -2.652,-1.719 c -0.421,-0.273 -0.983,-0.154 -1.257,0.266 l -0.008,0.011 c -0.274,0.42 -0.836,0.539 -1.257,0.266 l -50.024,-32.412 c -1.79,-1.159 -2.444,-3.465 -1.529,-5.391 l 8.124,-17.118 c 0.669,-1.41 2.034,-2.387 3.591,-2.497 3.083,-0.215 8.574,-1.591 12.899,-8.059 l 10.263,-16.157 c 1.267,-1.995 3.918,-2.574 5.901,-1.288 l 45.433,29.441 c 0.421,0.273 0.542,0.836 0.269,1.258 l -0.002,0.003 c -0.273,0.422 -0.152,0.985 0.269,1.258 l 2.653,1.72 c 0.418,0.271 0.987,0.162 1.253,-0.26 0.271,-0.43 0.84,-0.555 1.265,-0.279 l 8.691,5.636 c 0.556,0.361 1.019,0.846 1.354,1.417 l 1.756,2.993 c 0.543,0.925 0.517,2.076 -0.066,2.976 z m 125.877,59.658 -98.27,-63.68 -0.615,0.949 c -0.426,0.657 -1.303,0.844 -1.96,0.419 l -7.734,-5.013 c -0.926,-0.599 -1.19,-1.836 -0.59,-2.761 l 10.307,-15.906 c 0.599,-0.925 1.836,-1.189 2.761,-0.589 l 7.735,5.012 c 0.656,0.425 0.844,1.303 0.418,1.959 l -0.614,0.949 98.272,63.681 c 0.985,0.639 1.267,1.955 0.629,2.94 l -0.315,0.486 -7.084,10.927 c -0.639,0.985 -1.955,1.266 -2.94,0.627 m 33.614,11.076 c -0.38,0.58 -1.13,0.8 -1.77,0.52 l -0.05,-0.01 -15.35,-6.86 -13.18,-5.84 6.76,-10.44 10.78,9.55 12.53,11.22 0.03,0.04 c 0.52,0.46 0.62,1.23 0.25,1.82 m -500.036,-294.606 c -0.497,-0.325 -0.921,-0.751 -1.243,-1.25 l -2.076,-3.213 c -0.605,-0.938 -0.605,-2.143 0.002,-3.08 l 1.31,-2.021 -40.067,-25.965 c -0.556,-0.36 -1.044,-0.815 -1.443,-1.344 l -7.766,-10.299 -0.003,0.003 -3.609,-2.339 c -1.013,-0.656 -1.302,-2.009 -0.645,-3.022 l 5.885,-9.083 c 0.794,-1.224 0.599,-3.07 -0.433,-4.102 v 0 c -1.032,-1.032 -2.525,-0.874 -3.319,0.35 l -6.488,10.013 c -0.656,1.013 -2.01,1.302 -3.022,0.646 l -9.124,-5.912 c -1.013,-0.657 -1.302,-2.01 -0.645,-3.023 l 6.138,-9.472 c 0.738,-1.139 0.591,-2.708 -0.469,-3.556 -1.219,-0.975 -2.978,-0.667 -3.805,0.61 l -6.219,9.596 c -0.656,1.013 -2.01,1.302 -3.023,0.646 l -9.123,-5.912 c -1.013,-0.656 -1.302,-2.01 -0.645,-3.023 l 6.138,-9.472 c 0.738,-1.139 0.591,-2.707 -0.469,-3.555 -1.219,-0.975 -2.978,-0.667 -3.805,0.609 l -6.219,9.597 c -0.656,1.013 -2.009,1.302 -3.022,0.645 l -1.801,-1.166 c -1.013,-0.657 -1.302,-2.01 -0.646,-3.023 l 11.732,-18.105 c 0.656,-1.013 2.01,-1.302 3.023,-0.645 l 10.373,6.722 c 1.013,0.656 1.302,2.01 0.646,3.023 l -6.454,9.959 c -0.868,1.34 -0.343,3.182 1.213,3.821 1.168,0.48 2.515,-0.032 3.201,-1.091 l 6.394,-9.868 c 0.657,-1.013 2.01,-1.302 3.023,-0.645 l 9.123,5.912 c 1.013,0.656 1.302,2.009 0.646,3.022 l -6.373,9.835 c -0.738,1.139 -0.591,2.708 0.468,3.556 1.219,0.975 2.979,0.667 3.806,-0.61 l 6.453,-9.959 c 0.657,-1.013 2.01,-1.302 3.023,-0.646 l 12.182,7.894 -7.382,11.392 7.385,-11.394 12.565,2.887 c 0.645,0.148 1.259,0.408 1.814,0.767 l 40.071,25.967 1.328,-2.048 c 0.614,-0.949 1.733,-1.441 2.848,-1.254 l 3.735,0.627 c 0.567,0.095 1.108,0.305 1.592,0.615 l 63.576,40.808 c 2.119,1.361 2.599,4.254 1.032,6.226 l -25.896,32.587 c -1.367,1.721 -3.82,2.116 -5.659,0.913 z m 17.453,-251.475 c -16.119,8.251 -35.122,12.21 -53.498,16.039 -33.322,6.942 -64.795,13.499 -80.401,43.433 -10.168,19.503 -9.662,40.513 1.503,62.443 5.731,11.259 12.965,20.004 17.32,24.74 0.886,0.963 1.007,2.398 0.295,3.497 l -7.148,11.03 c -0.997,1.54 -3.164,1.765 -4.447,0.453 -4.665,-4.77 -14.465,-15.737 -22.218,-30.765 -14.119,-27.365 -14.71,-55.012 -1.709,-79.951 19.656,-37.704 58.638,-45.826 93.032,-52.991 35.749,-7.448 66.622,-13.88 77.685,-47.883 32.817,-100.877 -153.487,-199.484 -155.371,-200.467 l 8.553,-16.405 c 2.037,1.062 50.398,26.461 95.156,65.937 26.628,23.485 46.371,47.091 58.676,70.161 15.958,29.916 19.518,59.018 10.577,86.497 -6.507,20.004 -18.939,34.473 -38.005,44.232"
       style="display:inline;fill:#231f20;fill-opacity:1;fill-rule:nonzero;stroke:none"
       transform="matrix(0.31752589,0,0,-0.31752589,157.79656,76.603242)"
       clip-path="url(#clipPath930)"
       inkscape:label="Soldering Iron" />
    <path
       id="path931"
       d="m 0,0 c 3.606,-1.502 7.742,-2.524 9.19,-2.271 1.448,0.254 2.55,-2.902 2.447,-7.011 l -34.438,-1380.457 c -0.103,-4.11 -3.136,-5.856 -6.741,-3.88 l -116.931,64.08 c -3.606,1.976 -6.253,6.942 -5.883,11.036 L -35.358,-23.589 c 0.37,4.095 -1.332,10.145 -3.782,13.446 l -18.115,24.405 c -2.449,3.301 -5.191,9.283 -6.093,13.294 l -4.47,19.88 c -0.902,4.011 1.087,9.262 4.419,11.67 l 4.8,3.471 c 3.332,2.408 7.777,3.558 9.878,2.555 2.101,-1.002 6.54,0.155 9.865,2.573 l 34.002,24.726 c 3.325,2.418 9.337,5.089 13.359,5.936 l 45.604,9.605 c 4.023,0.848 5.507,-1.297 3.299,-4.764 L -2.544,9.036 C -4.751,5.569 -3.606,1.502 0,0"
       style="display:inline;fill:#231f20;fill-opacity:1;fill-rule:nonzero;stroke:none"
       transform="matrix(0.31752589,0,0,-0.31752589,98.298974,171.61363)"
       clip-path="url(#clipPath932)" />
    <path
       id="path933"
       d="m 0,0 c -2.337,-3.381 -3.619,-9.452 -2.848,-13.489 l 307.631,-1610.593 c 0.772,-4.038 -1.547,-5.725 -5.152,-3.749 l -303.468,166.308 c -3.605,1.975 -6.713,6.952 -6.908,11.058 L -79.263,-5.511 c -0.195,4.106 2.993,7.785 7.085,8.175 l 1.879,0.18 c 4.092,0.39 4.702,2.663 1.357,5.052 l -14.78,10.552 c -3.346,2.388 -4.177,7.114 -1.847,10.501 l 57.762,83.977 c 2.33,3.387 7.323,7.494 11.096,9.126 l 16.549,7.161 c 3.773,1.632 10.22,3.118 14.327,3.301 l 2.158,0.096 c 4.107,0.183 4.383,1.673 0.613,3.312 l -6.825,2.968 c -3.77,1.639 -7.478,4.828 -8.24,7.088 -0.761,2.259 -0.335,7.303 0.947,11.209 l 2.094,6.374 c 1.283,3.906 -0.237,4.931 -3.378,2.279 l -16.043,-13.545 c -3.141,-2.652 -8.993,-4.088 -13.004,-3.191 l -33.33,7.454 c -4.012,0.897 -7.822,4.953 -8.465,9.013 l -2.549,16.055 c -0.644,4.06 1.945,8.646 5.755,10.191 l 83.757,33.964 c 3.809,1.545 8.73,-0.03 10.933,-3.5 l 55.887,-87.989 c 2.203,-3.469 2.094,-9.075 -0.244,-12.457 z"
       style="display:inline;fill:#231f20;fill-opacity:1;fill-rule:nonzero;stroke:none"
       transform="matrix(0.31752589,0,0,-0.31752589,130.77793,172.30689)"
       clip-path="url(#clipPath934)" />
    <path
       id="path935"
       d="M 0,0 C 1.763,-3.714 0.097,-8.041 -3.701,-9.615 L -41.6,-25.324 c -3.798,-1.574 -8.422,0.14 -10.276,3.809 l -18.52,36.645 c -1.854,3.669 -0.356,8.158 3.332,9.976 l 37.994,18.733 c 3.687,1.818 8.145,0.267 9.907,-3.447 z"
       style="display:inline;fill:#231f20;fill-opacity:1;fill-rule:nonzero;stroke:none"
       transform="matrix(0.31752589,0,0,-0.31752589,133.6129,96.305824)"
       clip-path="url(#clipPath936)" />
    <path
       id="path937"
       d="m 0,0 c -3.776,-1.626 -6.214,-6.256 -5.417,-10.289 l 2.055,-10.402 c 0.797,-4.033 0.482,-7.968 -0.7,-8.746 -1.181,-0.778 -3.872,1.474 -5.978,5.004 l -32.749,54.88 c -2.106,3.53 -0.813,7.905 2.874,9.724 l 36.425,17.96 c 3.687,1.818 8.265,0.326 10.173,-3.315 L 25.422,19.06 c 1.909,-3.641 0.381,-7.95 -3.395,-9.576 z"
       style="fill:#231f20;fill-opacity:1;fill-rule:nonzero;stroke:none"
       transform="matrix(0.31752589,0,0,-0.31752589,106.7365,110.09128)"
       clip-path="url(#clipPath938)" />
    <path
       id="path939"
       d="m 0,0 c 2.172,-3.49 0.923,-7.81 -2.777,-9.602 l -29.104,-14.087 c -3.7,-1.791 -8.689,-0.524 -11.087,2.815 l -49.483,68.899 c -2.399,3.338 -1.635,8.041 1.696,10.451 l 31.422,22.727 c 3.331,2.409 7.834,1.525 10.006,-1.965 z"
       style="fill:#231f20;fill-opacity:1;fill-rule:nonzero;stroke:none"
       transform="matrix(0.31752589,0,0,-0.31752589,108.81246,131.06253)"
       clip-path="url(#clipPath940)" />
    <path
       id="path941"
       d="m 0,0 c 2.46,-3.293 1.762,-7.979 -1.552,-10.412 l -20.633,-15.152 c -3.314,-2.433 -8.116,-1.791 -10.674,1.427 L -81.7,37.318 c -2.558,3.219 -1.926,7.823 1.405,10.233 l 23.011,16.648 c 3.331,2.41 8.069,1.686 10.529,-1.607 z"
       style="fill:#231f20;fill-opacity:1;fill-rule:nonzero;stroke:none"
       transform="matrix(0.31752589,0,0,-0.31752589,92.98184,138.75586)"
       clip-path="url(#clipPath942)"
       inkscape:label="pinkie" />
    <path
       id="path943"
       d="m 0,0 c 3.801,1.565 3.648,3.66 -0.34,4.655 l -44.423,11.084 c -3.989,0.996 -5.514,-1.07 -3.392,-4.59 l 11.107,-18.411 c 2.124,-3.52 6.97,-5.12 10.772,-3.555 z"
       style="display:inline;fill:#231f20;fill-opacity:1;fill-rule:nonzero;stroke:none"
       transform="matrix(0.31752589,0,0,-0.31752589,123.79801,129.91629)"
       clip-path="url(#clipPath944)"
       inkscape:label="path943" />
    <path
       id="path945"
       d="m 0,0 h -39.521 l 0.002,32.011 -41.202,-69.406 c -0.773,-1.301 0.165,-2.948 1.678,-2.948 h 39.522 v -32.014 l 41.2,69.408 C 2.451,-1.647 1.513,0 0,0"
       style="display:inline;fill:#ffffff;fill-opacity:1;fill-rule:nonzero;stroke:none"
       transform="matrix(0.31752589,0,0,-0.31752589,116.6542,231.20397)"
       clip-path="url(#clipPath946)" />
    <path
       id="path947"
       d="m 0,0 h 17.506 c 0.571,0 1.002,-0.517 0.899,-1.079 l -4.52,-24.748 c -0.183,-1.003 1.165,-1.508 1.686,-0.631 l 23.668,39.872 c 0.362,0.61 -0.077,1.381 -0.786,1.381 H 20.947 c -0.571,0 -1.002,0.517 -0.899,1.079 l 4.52,24.748 c 0.183,1.003 -1.165,1.508 -1.686,0.631 L -0.786,1.381 C -1.148,0.772 -0.709,0 0,0"
       style="display:inline;fill:#faa21a;fill-opacity:1;fill-rule:nonzero;stroke:none"
       transform="matrix(0.31752589,0,0,-0.31752589,98.000249,239.95835)"
       clip-path="url(#clipPath948)"
       inkscape:label="Lightenining Bolt" />
  </g>
  <g
     inkscape:groupmode="layer"
     id="layer8"
     inkscape:label="Edge.Cut"
     style="display:none">
    <path
       style="display:inline;fill:none;stroke:#000000;stroke-width:0.1;stroke-dasharray:none"
       d="m 132.14278,175.82522 c 0.13358,-0.34371 0.40073,-1.0311 5.13856,-8.11347 4.73782,-7.08238 13.94542,-20.55839 18.5702,-27.53434 4.62478,-6.97596 4.66551,-7.45 4.67465,-7.98119 0.009,-0.53119 -0.0133,-1.11941 -0.35475,-2.07777 -0.34141,-0.95836 -1.00173,-2.28672 -3.09015,-5.65943 -2.08842,-3.37272 -5.60469,-8.78937 -7.63413,-11.76213 -2.02945,-2.97276 -2.57183,-3.50127 0.96993,-6.30524 3.54176,-2.80397 11.16736,-7.883164 15.04152,-10.708786 3.87416,-2.825622 3.99671,-3.397544 3.62904,-4.289497 -0.36768,-0.891952 -1.22556,-2.103879 -1.70898,-2.954974 -0.48342,-0.851095 -0.59236,-1.341313 -0.12936,-1.886016 0.46301,-0.544704 1.49791,-1.143856 7.42841,-5.092985 5.9305,-3.949128 16.75614,-11.247925 22.20311,-14.951869 5.44697,-3.703943 5.51506,-3.812876 5.55592,-4.01714 0.0409,-0.204264 0.0545,-0.50384 1.15073,-1.613681 1.09623,-1.10984 3.27498,-3.029862 4.48013,-4.200964 1.20514,-1.171103 1.43663,-1.593234 1.51789,-2.042292 0.0813,-0.449058 0.0123,-0.924997 -0.29411,-1.265441 -0.3064,-0.340444 -0.8502,-0.545348 -2.53834,0.08074 -1.68815,0.626093 -4.52052,2.08313 -6.10014,2.736764 -1.57963,0.653633 -1.90644,0.503846 -2.30816,0.531084 -0.40172,0.02724 -0.87832,0.231493 -6.95181,3.908271 -6.07349,3.676778 -17.74339,10.825784 -23.72145,14.366316 -5.97805,3.540532 -6.26401,3.472447 -6.80872,2.839224 -0.5447,-0.633222 -1.34811,-1.831535 -1.9541,-2.539645 -0.60598,-0.708109 -1.01449,-0.925981 -1.52515,-1.075773 -0.51066,-0.149792 -1.12343,-0.231494 -5.16108,2.144795 -4.03764,2.37629 -11.49984,7.21038 -15.5238,9.681944 -4.02395,2.471565 -4.60949,2.580502 -5.11334,2.240059 -0.50385,-0.340444 -0.92598,-1.130238 -1.52515,-2.267309 -0.59918,-1.13707 -1.37536,-2.621341 -2.02219,-3.54052 -0.64683,-0.919178 -1.16429,-1.273228 -1.75665,-1.436637 -0.59236,-0.163408 -1.25961,-0.136175 -3.78569,0.987284 -2.52607,1.12346 -6.91079,3.343054 -9.32789,4.738847 -2.4171,1.395793 -2.86647,1.967716 -3.1252,2.491992 -0.25873,0.524276 -0.32681,1.000875 -0.43576,1.280034 -0.10894,0.279159 -0.25873,0.360861 -0.64002,0.245108 -0.3813,-0.115753 -0.99407,-0.428947 -1.57281,-0.585546 -0.57875,-0.1566 -1.12344,-0.1566 -3.51334,0.919199 -2.3899,1.075799 -6.624833,3.227309 -9.00108,4.616293 -2.376247,1.388984 -2.8937,2.015374 -3.084343,2.669017 -0.190643,0.653642 -0.05447,1.3345 0.245116,2.08347 0.299589,0.74897 0.762574,1.566 0.973643,2.15155 0.21107,0.58555 0.170218,0.9396 -0.09533,1.03492 -0.265545,0.0953 -0.755764,-0.0681 -1.300465,-0.0817 -0.544702,-0.0136 -1.143856,0.12256 -3.349919,1.57284 -2.206063,1.45028 -6.018869,4.21457 -8.081911,5.85547 -2.063041,1.6409 -2.376238,2.15836 -2.505603,2.64178 -0.129365,0.48342 -0.0749,0.93279 0.02723,1.25961 0.102132,0.32682 0.251923,0.53108 0.354054,0.80343 0.102131,0.27235 0.1566,0.61278 0.09532,0.87152 -0.06128,0.25873 -0.238301,0.43575 -0.551508,0.42213 -0.313207,-0.0136 -0.762573,-0.21788 -1.273233,-0.29277 -0.51066,-0.0749 -1.082577,-0.0204 -2.793076,1.03998 -1.710499,1.0604 -4.559401,3.12662 -6.230219,4.5325 -1.670819,1.40588 -2.163372,2.15126 -2.279708,2.84102 -0.116335,0.68976 0.143559,1.32383 0.871271,2.43909 0.727712,1.11526 1.923149,2.71158 2.465756,3.76669 0.542606,1.05512 0.432299,1.56886 0.126981,2.00094 -0.305317,0.43208 -0.805603,0.78243 -4.130954,3.01571 -3.32535,2.23327 -9.475498,6.3493 -12.741279,8.59799 -3.26578,2.2487 -3.647061,2.62998 -3.864941,3.08617 -0.217881,0.45619 -0.272349,0.98726 -0.313201,1.36855 -0.04085,0.38129 -0.06808,0.61278 -0.578749,1.09621 -0.510664,0.48343 -1.504715,1.21875 -3.452035,2.47157 -1.947321,1.25282 -4.847776,3.02305 -6.686138,4.36438 -1.838363,1.34133 -2.614541,2.25368 -3.240948,2.99583 -0.626407,0.74216 -1.103006,1.31408 -3.874202,3.16608 -2.771197,1.852 -7.83678,4.98395 -10.48537,6.76103 -2.648591,1.77707 -2.880086,2.19921 -3.166054,2.68263 -0.285967,0.48342 -0.626399,1.02811 -0.925985,1.43664 -0.299586,0.40852 -0.558311,0.68086 -1.436652,1.68857 -0.878341,1.00771 -2.376228,2.75071 -3.8605422,4.94995 -1.4843138,2.19924 -2.9549652,4.85458 -4.0103236,7.26489 -1.0553584,2.41031 -1.6953648,4.57544 -2.0766535,6.35933 -0.3812888,1.7839 -0.5038436,3.18647 -0.4493713,4.95675 0.054472,1.77029 0.2859645,3.90819 0.7149191,5.77379 0.4289546,1.8656 1.0553445,3.45881 1.9472985,5.24271 0.8919541,1.78391 2.0494138,3.7584 3.4247881,5.48101 1.3753739,1.72262 2.9685849,3.19328 4.5414119,4.41886 1.572827,1.22557 3.125186,2.20601 5.01803,3.14562 1.892844,0.93961 4.126056,1.83835 7.258105,2.79158 3.132049,0.95323 7.162731,1.96089 10.274335,2.69624 3.111605,0.73534 5.303968,1.19833 7.332983,1.67494 2.029016,0.47662 3.894567,0.96683 5.801027,1.82474 1.90646,0.85792 3.853711,2.08346 5.34483,3.34989 1.491119,1.26644 2.526025,2.57369 3.424781,4.13971 0.898757,1.56602 1.661318,3.39072 2.144739,5.0044 0.483421,1.61368 0.687678,3.01625 0.789809,4.55503 0.10213,1.53879 0.10213,3.2137 -0.166234,4.74033 -0.268363,1.52662 -0.805058,2.90485 -1.179545,3.94958 -0.374486,1.04472 -0.586721,1.75582 -0.638372,2.34673 -0.05165,0.59091 0.05729,1.06158 0.772215,1.28329 0.714927,0.22171 2.035792,0.19447 16.542308,0.22655 14.506516,0.0321 42.196887,0.12346 56.323927,0.16966 14.12705,0.0462 14.68884,0.0472 14.8683,-0.5961 0.17946,-0.6433 0.23251,-0.30666 -0.12414,-2.56291 -0.35664,-2.25626 -0.32724,-2.07125 -2.91113,-15.80969 -2.58389,-13.73845 -7.63979,-40.51074 -10.16759,-53.89606 -2.52779,-13.38532 -2.52779,-13.38529 -2.3942,-13.72898 z"
       id="path1"
       sodipodi:nodetypes="ccccccccccccccccccccccccccccccccccccccccccccccccccccccccccccccccccccccccccccccccccccccccccccccccccccc"
       inkscape:original-d="m 132.0092,176.16894 c 0.26717,-0.68743 0.53431,-1.37482 0.80147,-2.06225 9.20849,-13.47732 18.41609,-26.95333 27.62491,-40.43113 0.0407,-0.47411 0.0815,-0.94815 0.12221,-1.42224 -0.0225,-0.58829 -0.0449,-1.17651 -0.0674,-1.76478 -0.66036,-1.32845 -1.32068,-2.65681 -1.98104,-3.98526 -3.51648,-5.41698 -7.03275,-10.83363 -10.54923,-16.25061 -0.54241,-0.52854 -1.08479,-1.05705 -1.62719,-1.58558 7.62592,-5.0794 15.25152,-10.158605 22.87728,-15.237906 0.12256,-0.571942 0.24512,-1.143863 0.36767,-1.715796 -0.85791,-1.211975 -1.71579,-2.423901 -2.57369,-3.635852 -0.10894,-0.490238 -0.21788,-0.980456 -0.32682,-1.470683 1.03495,-0.599179 2.06985,-1.198335 3.10478,-1.7975 10.82607,-7.29909 21.65171,-14.597885 32.47756,-21.896827 0.0681,-0.108942 0.13618,-0.217879 0.20427,-0.326818 0.0136,-0.299591 0.0272,-0.599168 0.0409,-0.898753 2.17883,-1.920094 4.35758,-3.840115 6.53637,-5.760172 0.2315,-0.422148 0.46299,-0.84428 0.69449,-1.26642 -0.069,-0.475971 -0.13795,-0.951913 -0.20692,-1.427886 -0.54383,-0.204914 -1.08763,-0.409819 -1.63144,-0.614729 -2.83248,1.457094 -5.66485,2.914131 -8.49727,4.371194 -0.32683,-0.149794 -0.65364,-0.299582 -0.98046,-0.449374 -0.47662,0.204267 -0.95322,0.408522 -1.42983,0.612783 -11.67037,7.149296 -23.34027,14.298303 -35.01041,21.447453 -0.28597,-0.06809 -0.57193,-0.136176 -0.8579,-0.204261 -0.80344,-1.198358 -1.60686,-2.396667 -2.41028,-3.595002 -0.40854,-0.217884 -0.81705,-0.435758 -1.22557,-0.653637 -0.6128,-0.08171 -1.22557,-0.163409 -1.83836,-0.245113 -7.4625,4.834284 -14.9247,9.668375 -22.38705,14.502561 -0.58556,0.108942 -1.1711,0.217879 -1.75665,0.326819 -0.42215,-0.789826 -0.84428,-1.579621 -1.26642,-2.369431 -0.77621,-1.484331 -1.55239,-2.968601 -2.32858,-4.452901 -0.51747,-0.35406 -1.03493,-0.708107 -1.55239,-1.062159 -0.66726,0.02724 -1.33451,0.05447 -2.00176,0.0817 -4.3849,2.219687 -8.76962,4.439282 -13.15444,6.658924 -0.44938,0.571942 -0.89875,1.143863 -1.34812,1.715797 -0.0681,0.476618 -0.13617,0.953219 -0.20426,1.429829 -0.1498,0.08171 -0.29959,0.16341 -0.44938,0.245113 -0.6128,-0.313206 -1.22557,-0.626401 -1.83835,-0.939602 -0.54471,0 -1.0894,0 -1.63409,0 -4.23511,2.151597 -8.470043,4.303107 -12.705065,6.454662 -0.517472,0.626414 -1.034925,1.252804 -1.552387,1.879205 0.136178,0.680884 0.272349,1.361742 0.408522,2.042622 0.463002,0.81706 0.925986,1.63409 1.388978,2.45113 -0.04085,0.35406 -0.0817,0.70811 -0.122555,1.06216 -0.490239,-0.16341 -0.980456,-0.32682 -1.470684,-0.49022 -0.599178,0.13617 -1.198332,0.27234 -1.7975,0.40852 -3.812958,2.76439 -7.62576,5.52868 -11.438641,8.29301 -0.313208,0.51747 -0.626401,1.03493 -0.939601,1.55239 0.05447,0.44938 0.108939,0.89875 0.163406,1.34813 0.149797,0.20426 0.299585,0.40852 0.449377,0.61278 0.05447,0.34044 0.108939,0.68087 0.163409,1.02131 -0.17703,0.17703 -0.354052,0.35405 -0.53108,0.53108 -0.449384,-0.20427 -0.89875,-0.40853 -1.348126,-0.61279 -0.571942,0.0545 -1.143862,0.10894 -1.715796,0.16341 -2.849065,2.06634 -5.697968,4.13256 -8.547024,6.1989 -0.492579,0.74542 -0.985132,1.4908 -1.477711,2.23622 0.259908,0.6341 0.519801,1.26817 0.77971,1.90227 1.195518,1.59642 2.390951,3.19274 3.586484,4.78918 -0.110318,0.51379 -0.220626,1.02753 -0.330943,1.54132 -0.500318,0.35037 -1.000603,0.70072 -1.500919,1.05109 -6.150387,4.11618 -12.300531,8.23221 -18.4508,12.34831 -0.381296,0.38129 -0.762576,0.76257 -1.143865,1.14386 -0.05447,0.53109 -0.108939,1.06216 -0.163409,1.59324 -0.02723,0.2315 -0.05447,0.46299 -0.0817,0.69449 -0.994093,0.73536 -1.988146,1.47068 -2.982217,2.20602 -2.900571,1.7703 -5.801027,3.54053 -8.701537,5.3108 -0.776211,0.91239 -1.552387,1.82474 -2.328582,2.7371 -0.476621,0.57195 -0.95322,1.14387 -1.42983,1.7158 -5.065786,3.13207 -10.131368,6.26402 -15.197052,9.39603 -0.2315,0.42214 -0.462992,0.84428 -0.694488,1.26642 -0.340443,0.5447 -0.680872,1.08939 -1.021308,1.63409 -0.258736,0.27235 -0.517462,0.54469 -0.776193,0.81704 -1.497948,1.74307 -2.995835,3.48607 -4.4937521,5.2291 -1.4707118,2.65545 -2.9413646,5.31079 -4.4120471,7.96619 -0.6400321,2.16522 -1.2800383,4.33035 -1.9200577,6.49552 -0.1225592,1.40262 -0.2451137,2.80519 -0.3676705,4.20778 0.2315009,2.13798 0.4629927,4.27588 0.6944889,6.41381 0.6264142,1.59327 1.2528036,3.18648 1.8792052,4.77972 1.1575047,1.97457 2.3149631,3.94906 3.4724448,5.92358 1.5932715,1.47071 3.1864785,2.94137 4.7797175,4.41205 1.552418,0.98047 3.104774,1.96091 4.657161,2.94136 2.233303,0.89877 4.466517,1.7975 6.699775,2.69626 4.03084,1.0077 8.061518,2.01538 12.092278,3.02306 2.192449,0.46301 4.384813,0.92599 6.577219,1.38898 1.865625,0.49024 3.731175,0.98046 5.596763,1.47068 1.947331,1.2256 3.894585,2.45114 5.841878,3.67671 1.034944,1.3073 2.069849,2.61455 3.104774,3.92182 0.76259,1.82477 1.525151,3.64947 2.287728,5.47421 0.204266,1.40262 0.408522,2.80519 0.612783,4.20778 0,1.67498 0,3.34989 0,5.02483 -0.536729,1.37831 -1.073423,2.75654 -1.610149,4.13485 -0.212247,0.71114 -0.42448,1.42224 -0.636727,2.13338 0.108942,0.47068 0.217882,0.94135 0.326819,1.412 1.320919,-0.0272 2.641782,-0.0545 3.962672,-0.0817 27.692143,0.0914 55.382514,0.18277 83.074764,0.27416 0.56184,10e-4 1.12363,0.002 1.68547,0.003 -0.20292,-1.28759 -0.14987,-0.95095 -0.60875,-3.86262 -0.25441,-1.60084 -0.225,-1.41583 -0.3375,-2.12367 -5.05529,-26.76905 -10.11119,-53.54134 -15.16679,-80.31201 1e-5,3e-5 2e-5,9e-5 2e-5,9e-5 z"
       inkscape:path-effect="#path-effect1" />
  </g>
  <g
     inkscape:groupmode="layer"
     id="layer7"
     inkscape:label="F.Mask"
     style="display:inline">
    <path
       id="path5"
       d="m 0,0 h 17.506 c 0.571,0 1.002,-0.517 0.899,-1.079 l -4.52,-24.748 c -0.183,-1.003 1.165,-1.508 1.686,-0.631 l 23.668,39.872 c 0.362,0.61 -0.077,1.381 -0.786,1.381 H 20.947 c -0.571,0 -1.002,0.517 -0.899,1.079 l 4.52,24.748 c 0.183,1.003 -1.165,1.508 -1.686,0.631 L -0.786,1.381 C -1.148,0.772 -0.709,0 0,0"
       style="display:inline;fill:#000000;fill-opacity:1;fill-rule:nonzero;stroke:none"
       transform="matrix(0.3175259,0,0,-0.3175259,98.000248,239.95835)"
       clip-path="url(#clipPath948)"
       inkscape:label="Lightenining Bolt" />
    <path
       id="path6"
       d="m 125.877,59.658 -98.27,-63.68 -0.615,0.949 c -0.426,0.657 -1.303,0.844 -1.96,0.419 l -7.734,-5.013 c -0.926,-0.599 -1.19,-1.836 -0.59,-2.761 l 10.307,-15.906 c 0.599,-0.925 1.836,-1.189 2.761,-0.589 l 7.735,5.012 c 0.656,0.425 0.844,1.303 0.418,1.959 l -0.614,0.949 98.272,63.681 c 0.985,0.639 1.267,1.955 0.629,2.94 l -0.315,0.486 -7.084,10.927 c -0.639,0.985 -1.955,1.266 -2.94,0.627 m 33.614,11.076 c -0.38,0.58 -1.13,0.8 -1.77,0.52 l -0.05,-0.01 -15.35,-6.86 -13.18,-5.84 6.76,-10.44 10.78,9.55 12.53,11.22 0.03,0.04 c 0.52,0.46 0.62,1.23 0.25,1.82"
       style="display:none;fill:#231f20;fill-opacity:1;fill-rule:nonzero;stroke:none"
       transform="matrix(0.3175259,0,0,-0.3175259,157.79656,76.603241)"
       clip-path="url(#clipPath930)"
       inkscape:label="Soldering Iron"
       sodipodi:nodetypes="cccccccccccccccccccccccccc" />
  </g>
  <g
     inkscape:groupmode="layer"
     id="layer9"
     inkscape:label="F.Silk"
     style="display:none">
    <path
       id="path7"
       style="display:inline;fill:#0000ff;fill-opacity:1;stroke:none;stroke-width:0.1;stroke-dasharray:none"
       d="m 208.54024,53.045858 c -0.38526,-0.01552 -0.9429,0.09003 -1.78697,0.403076 -1.68815,0.626093 -4.52078,2.08315 -6.1004,2.736784 -1.57963,0.653633 -1.90615,0.503479 -2.30787,0.530717 -0.40172,0.02724 -0.87854,0.23151 -6.95203,3.908288 -6.07349,3.676778 -17.74349,10.826033 -23.72155,14.366565 -5.97805,3.540532 -6.26418,3.472326 -6.80889,2.839103 -0.5447,-0.633222 -1.34789,-1.831269 -1.95388,-2.539379 -0.60598,-0.708109 -1.01431,-0.926112 -1.52497,-1.075904 -0.51066,-0.149792 -1.1238,-0.231717 -5.16145,2.144572 -4.03764,2.37629 -11.49964,7.210533 -15.5236,9.682097 -4.02395,2.471565 -4.60953,2.580616 -5.11338,2.240173 -0.50385,-0.340444 -0.9258,-1.130491 -1.52497,-2.267562 -0.59918,-1.13707 -1.37527,-2.621173 -2.0221,-3.540352 -0.64683,-0.919178 -1.16464,-1.273196 -1.757,-1.436605 -0.59236,-0.163408 -1.25973,-0.136439 -3.78581,0.98702 -2.52607,1.12346 -6.9105,3.343452 -9.3276,4.739245 -2.4171,1.395793 -2.86666,1.967562 -3.12539,2.491838 -0.25873,0.524276 -0.32668,1.000866 -0.43563,1.280025 -0.10894,0.279159 -0.25847,0.360699 -0.63976,0.244946 -0.3813,-0.115753 -0.99429,-0.428895 -1.57303,-0.585494 -0.57875,-0.1566 -1.12358,-0.156475 -3.51348,0.919324 -2.3899,1.075799 -6.624753,3.227272 -9.001,4.616256 -2.376247,1.388984 -2.893406,2.015445 -3.084049,2.669088 -0.190643,0.653642 -0.05464,1.334639 0.244946,2.083591 0.299589,0.74897 0.762515,1.56574 0.973584,2.15129 0.21107,0.58555 0.169942,0.93976 -0.0956,1.03508 -0.265545,0.0953 -0.755478,-0.068 -1.300179,-0.0816 -0.544702,-0.0136 -1.14412,0.12224 -3.350183,1.57252 -2.206063,1.45028 -6.018635,4.21455 -8.081677,5.85545 -2.063041,1.6409 -2.376425,2.15828 -2.50579,2.6417 -0.129365,0.48342 -0.07474,0.93305 0.02739,1.25987 0.102132,0.32682 0.251853,0.53122 0.353984,0.80357 0.102131,0.27235 0.156883,0.61253 0.0956,0.87127 -0.06128,0.25873 -0.238697,0.43581 -0.551904,0.42219 -0.313207,-0.0136 -0.762131,-0.21811 -1.272791,-0.293 -0.51066,-0.0749 -1.082612,-0.0201 -2.793111,1.04024 -1.710499,1.0604 -4.559809,3.12666 -6.230627,4.53254 -1.670819,1.40588 -2.163112,2.15141 -2.279448,2.84117 -0.116335,0.68976 0.143553,1.32387 0.871265,2.43913 0.727712,1.11526 1.922876,2.71159 2.465483,3.7667 0.542606,1.05512 0.432442,1.56883 0.127124,2.00091 -0.305317,0.43208 -0.805663,0.78204 -4.131014,3.01532 -3.32535,2.23327 -9.47556,6.34923 -12.741341,8.59792 -3.26578,2.2487 -3.647001,2.63045 -3.864881,3.08664 -0.217881,0.45619 -0.272307,0.9871 -0.313159,1.36839 -0.04085,0.38129 -0.06811,0.61263 -0.578776,1.09606 -0.510664,0.48343 -1.504666,1.21886 -3.451986,2.47168 -1.947321,1.25282 -4.847535,3.02326 -6.685897,4.36459 -1.838363,1.34133 -2.614738,2.25353 -3.241145,2.99568 -0.626407,0.74216 -1.102987,1.31422 -3.874183,3.16622 -2.771197,1.852 -7.836558,4.98375 -10.485148,6.76083 -2.648591,1.77707 -2.880247,2.1991 -3.166215,2.68252 -0.285967,0.48342 -0.626455,1.02807 -0.926041,1.4366 -0.299586,0.40852 -0.558264,0.68108 -1.436605,1.68879 -0.878341,1.00771 -2.376432,2.75085 -3.8607464,4.95009 -1.4843138,2.19924 -2.9547327,4.85436 -4.0100911,7.26467 -1.0553584,2.41031 -1.6955872,4.57541 -2.0768759,6.3593 -0.3812888,1.7839 -0.5035404,3.18652 -0.4490681,4.9568 0.054472,1.77029 0.2857304,3.90821 0.714685,5.77381 0.4289546,1.8656 1.055214,3.45868 1.947168,5.24258 0.8919541,1.78391 2.0497396,3.7587 3.4251139,5.48131 1.3753736,1.72262 2.9684976,3.19328 4.5413246,4.41886 1.572827,1.22557 3.124938,2.20593 5.017782,3.14554 1.892844,0.93961 4.126423,1.83833 7.258472,2.79156 3.132049,0.95323 7.162704,1.96061 10.274308,2.69596 3.111605,0.73534 5.303871,1.19822 7.332886,1.67483 2.029016,0.47662 3.894736,0.96731 5.801196,1.82522 1.90646,0.85792 3.853774,2.08323 5.344893,3.34966 1.491119,1.26644 2.525841,2.57378 3.424597,4.1398 0.898757,1.56602 1.661151,3.39067 2.144572,5.00435 0.483421,1.61368 0.688002,3.01598 0.790133,4.55476 0.10213,1.53879 0.101966,3.21416 -0.166398,4.74079 -0.268363,1.52662 -0.805286,2.90439 -1.179773,3.94912 -0.374486,1.04472 -0.586553,1.75623 -0.638204,2.34714 -0.05165,0.59091 0.05712,1.06142 0.772046,1.28313 0.714927,0.22171 2.036143,0.19426 16.542659,0.22634 14.506516,0.0321 42.196655,0.12381 56.323695,0.17001 14.12705,0.0462 14.68888,0.047 14.86834,-0.59634 0.17946,-0.6433 0.23263,-0.30639 -0.12402,-2.56264 -0.35664,-2.25626 -0.32756,-2.07144 -2.91145,-15.80988 -2.58389,-13.73845 -7.63954,-40.51062 -10.16734,-53.89594 -2.52779,-13.38532 -2.52776,-13.38519 -2.39417,-13.72888 0.13358,-0.34371 0.40087,-1.03134 5.1387,-8.11371 4.73782,-7.08238 13.94515,-20.55829 18.56993,-27.53424 4.62478,-6.97596 4.66551,-7.45023 4.67465,-7.98142 0.009,-0.53119 -0.013,-1.11904 -0.3545,-2.0774 -0.34141,-0.95836 -1.00183,-2.28689 -3.09025,-5.6596 -2.08842,-3.37272 -5.60472,-8.78931 -7.63416,-11.76207 -2.02945,-2.97276 -2.57179,-3.50159 0.96997,-6.30556 3.54176,-2.80397 11.16729,-7.882769 15.04145,-10.708391 3.87416,-2.825622 3.99691,-3.397708 3.62924,-4.289661 -0.36768,-0.891952 -1.22604,-2.103764 -1.70946,-2.954859 -0.48342,-0.851095 -0.59219,-1.341486 -0.12919,-1.886189 0.46301,-0.544704 1.49799,-1.143584 7.42849,-5.092713 5.9305,-3.949128 16.75633,-11.248115 22.2033,-14.952059 5.44697,-3.703943 5.51487,-3.813061 5.55573,-4.017325 0.0409,-0.204264 0.0546,-0.503498 1.15083,-1.613339 1.09623,-1.10984 3.27468,-3.030192 4.47983,-4.201294 1.20514,-1.171103 1.437,-1.593194 1.51826,-2.042252 0.0813,-0.449058 0.0124,-0.925112 -0.29404,-1.265556 -0.1532,-0.170222 -0.36611,-0.306424 -0.75138,-0.321944 z m -0.46715,0.894002 c 0.14448,0.0041 0.28291,0.07699 0.36587,0.203605 0.11748,0.18734 0.0861,0.431681 -0.0791,0.577743 l -0.01,0.01292 -3.97857,3.562573 -3.42304,3.032373 0.10025,0.153996 c 0.20258,0.312763 0.11278,0.730894 -0.19999,0.933793 l -31.20378,20.220471 0.19482,0.301274 c 0.13527,0.208297 0.076,0.487236 -0.13229,0.622184 l -2.45618,1.591117 c -0.29371,0.190516 -0.68675,0.106643 -0.87695,-0.187068 l -3.27267,-5.050338 c -0.19051,-0.293712 -0.10644,-0.686751 0.18759,-0.876949 l 2.45566,-1.591634 c 0.20862,-0.134949 0.48692,-0.07529 0.62219,0.133325 l 0.19533,0.301274 31.20327,-20.220472 c 0.31276,-0.202899 0.73089,-0.113292 0.93379,0.199471 l 0.0483,0.06722 0.0545,0.08729 4.18475,-1.85415 4.87412,-2.178679 0.016,-0.0031 c 0.0635,-0.02778 0.13018,-0.04011 0.19586,-0.03824 z m -51.00257,22.252905 h 5.1e-4 c 0.29175,0.0097 0.56394,0.160962 0.72554,0.410311 l 9.43353,14.558285 c 0.18512,0.285773 0.1936,0.650933 0.0212,0.944645 l -0.55759,0.950329 c -0.10637,0.181308 -0.2534,0.335475 -0.42995,0.450102 l -2.75952,1.789555 c -0.13495,0.08764 -0.31599,0.04817 -0.40204,-0.08837 -0.0845,-0.133996 -0.26467,-0.168733 -0.39739,-0.08268 l -0.84285,0.54622 c -0.13367,0.08668 -0.17191,0.265463 -0.0853,0.399459 l 5.2e-4,5.17e-4 c 0.0867,0.133995 0.0484,0.312774 -0.0853,0.399458 l -14.42599,9.348264 c -0.62966,0.40834 -1.47149,0.22471 -1.87379,-0.40876 l -3.25872,-5.13043 c -1.3733,-2.053768 -3.11694,-2.490236 -4.09587,-2.558504 -0.49439,-0.03493 -0.92807,-0.345522 -1.1405,-0.793233 l -2.57917,-5.435327 c -0.29054,-0.611555 -0.0831,-1.343511 0.48524,-1.711524 l 15.88379,-10.291878 c 0.13367,-0.08669 0.31245,-0.04913 0.39946,0.08423 l 0.003,0.0036 c 0.087,0.133361 0.26526,0.171433 0.39894,0.08475 l 0.84232,-0.54622 c 0.13526,-0.08764 0.17274,-0.268762 0.0832,-0.403076 -0.0883,-0.132408 -0.0471,-0.311541 0.0863,-0.397908 l 2.76056,-1.789038 c 0.17718,-0.114945 0.37891,-0.186746 0.58911,-0.20929 l 1.09502,-0.118339 c 0.042,-0.0046 0.084,-0.0064 0.12558,-0.0052 z m -31.5526,5.953642 c 0.83615,0.03708 1.62557,0.523006 2.01021,1.333769 l 6.0849,12.825574 c 0.5598,1.179291 0.0308,2.553257 -1.17512,3.053043 l -12.03389,4.987807 c -1.20596,0.49979 -2.67416,-0.0442 -3.26285,-1.20923 l -5.88078,-11.635462 c -0.58869,-1.165002 -0.11322,-2.590503 1.05782,-3.167765 l 12.06438,-5.948474 c 0.36585,-0.180394 0.75526,-0.256116 1.13533,-0.239262 z m -18.74356,9.24233 c 0.85052,0.02999 1.6676,0.502252 2.08411,1.297078 l 5.95003,11.353315 c 0.60615,1.15611 0.121,2.52434 -1.07797,3.04064 l -6.99389,3.0117 c -1.19898,0.5163 -1.97338,1.9864 -1.72031,3.26699 l 0.65267,3.30264 c 0.25307,1.28058 0.15311,2.53005 -0.22221,2.77709 -0.37499,0.24703 -1.22936,-0.46819 -1.89807,-1.58905 L 93.14987,100.42333 c -0.66871,-1.120881 -0.258112,-2.509573 0.912606,-3.087152 l 11.565704,-5.703011 c 0.36585,-0.180395 0.75958,-0.258061 1.14618,-0.24443 z m 30.56403,9.038723 c 0.98249,-0.0147 1.99252,0.4733 2.51716,1.29966 l 17.74517,27.93835 c 0.69951,1.1015 0.66484,2.88196 -0.0775,3.95583 l -26.74514,38.6855 c -0.74205,1.07355 -1.14915,3.0016 -0.90433,4.28345 l 16.03571,83.9556 h -36.19831 l -0.69401,-14.64096 8.17004,-13.76454 c 0.24513,-0.41342 -0.0524,-0.93637 -0.53278,-0.93637 H 108.32 l -2.70991,-57.14742 c -0.0619,-1.30376 0.95016,-2.47187 2.24948,-2.59571 l 0.59686,-0.0568 c 1.29932,-0.12384 1.49259,-0.84599 0.43046,-1.60456 l -4.69273,-3.35018 c -1.06244,-0.75825 -1.32637,-2.25922 -0.58653,-3.33468 l 18.341,-26.66452 c 0.73983,-1.07546 2.32527,-2.37981 3.5233,-2.89802 l 5.25446,-2.27376 c 1.19802,-0.5182 3.24499,-0.98989 4.54907,-1.048 l 0.68523,-0.0305 c 1.30408,-0.0581 1.3919,-0.53119 0.19482,-1.05161 l -2.16731,-0.94258 c -1.19707,-0.52042 -2.37442,-1.5329 -2.61637,-2.25051 -0.24164,-0.71729 -0.10632,-2.3187 0.30075,-3.55895 l 0.66508,-2.02417 c 0.40738,-1.24026 -0.0755,-1.56555 -1.0728,-0.72347 l -5.09375,4.30103 c -0.99735,0.84208 -2.85587,1.29768 -4.12946,1.01286 l -10.58282,-2.36678 c -1.27391,-0.28482 -2.48404,-1.57269 -2.68821,-2.86184 l -0.80925,-5.09788 c -0.20449,-1.28916 0.6175,-2.7454 1.82728,-3.23598 l 26.59527,-10.78436 c 0.30237,-0.12264 0.62697,-0.18321 0.95447,-0.1881 z m -46.077294,4.41989 c 0.73773,-0.007 1.457732,0.36263 1.888774,1.05523 l 15.66261,25.1597 c 0.68967,1.10817 0.29325,2.47991 -0.8816,3.04891 l -9.241297,4.47312 c -1.174845,0.56868 -2.759288,0.16673 -3.520715,-0.89349 L 79.456649,115.8136 c -0.761745,-1.0599 -0.518694,-2.55342 0.538985,-3.31866 l 9.977169,-7.21661 c 0.396629,-0.28685 0.845655,-0.42671 1.288293,-0.43098 z m -15.15153,13.0731 c 0.767628,-0.0276 1.538037,0.30716 2.026233,0.96067 l 14.846122,19.87475 c 0.781114,1.04561 0.559288,2.53372 -0.492993,3.30626 l -6.551538,4.81108 c -1.052281,0.77254 -2.576709,0.56859 -3.38894,-0.45321 L 67.039836,126.90647 c -0.812232,-1.02212 -0.611195,-2.48418 0.446484,-3.24942 l 7.306531,-5.28598 c 0.396629,-0.28696 0.856138,-0.43407 1.316715,-0.45062 z m 32.847604,6.91948 c 0.18001,-0.006 0.38987,0.0198 0.62736,0.0791 l 14.10559,3.51917 c 1.2663,0.31593 1.31492,0.98101 0.10801,1.47794 l -8.34368,3.43493 c -1.20723,0.49693 -2.74552,-0.0109 -3.41994,-1.12861 l -3.52692,-5.84615 c -0.54746,-0.90813 -0.33043,-1.51165 0.44958,-1.53634 z m -39.583627,10.19679 c 0.408901,-0.008 0.814954,0.16851 1.086239,0.51005 l 8.222754,10.34717 c 0.497563,0.62616 0.345209,1.54498 -0.327629,1.97714 l -20.187398,12.95735 c -0.153683,0.0984 -0.325358,0.16517 -0.505396,0.19533 l -1.185974,0.19896 c -0.354041,0.0594 -0.709376,-0.0966 -0.904337,-0.39791 l -0.42168,-0.65009 -12.723254,8.24497 c -0.176227,0.114 -0.371388,0.19641 -0.576193,0.2434 l -3.989937,0.91674 -5.17e-4,-5.2e-4 -3.868497,2.50631 c -0.321654,0.2083 -0.751017,0.1165 -0.959632,-0.20516 l -2.04897,-3.16208 c -0.262594,-0.40548 -0.821648,-0.50337 -1.208712,-0.19378 -0.33626,0.26926 -0.382645,0.76747 -0.148311,1.12913 l 2.023649,3.1228 c 0.208297,0.32166 0.116498,0.75134 -0.205156,0.95964 l -2.896981,1.8774 c -0.321653,0.20861 -0.751016,0.11702 -0.959631,-0.20464 l -2.030367,-3.13366 c -0.217823,-0.33626 -0.645605,-0.49864 -1.016475,-0.34623 -0.494071,0.2029 -0.660602,0.78788 -0.38499,1.21336 l 2.048971,3.16208 c 0.208297,0.32166 0.116498,0.75134 -0.205156,0.95964 l -3.293339,2.13475 c -0.321653,0.20861 -0.751851,0.1165 -0.960148,-0.20516 l -3.725354,-5.74848 c -0.208297,-0.32166 -0.116498,-0.75154 0.205156,-0.96015 l 0.572058,-0.37 c 0.321654,-0.20862 0.751334,-0.11702 0.959631,0.20463 l 1.974557,3.04736 c 0.262594,0.40517 0.821131,0.50286 1.208195,0.19327 0.336577,-0.26926 0.383162,-0.76695 0.148828,-1.12861 l -1.948719,-3.00757 c -0.208614,-0.32165 -0.117015,-0.75185 0.204639,-0.96015 l 2.896981,-1.87688 c 0.321654,-0.2083 0.751334,-0.1165 0.959631,0.20515 l 1.974557,3.04684 c 0.262594,0.40548 0.821131,0.50338 1.208195,0.19379 0.336577,-0.26926 0.383679,-0.76747 0.149345,-1.12913 l -1.949235,-3.00757 c -0.208615,-0.32165 -0.117015,-0.75153 0.204638,-0.96015 l 2.897498,-1.87688 c 0.321336,-0.2083 0.751334,-0.1165 0.959631,0.20515 l 2.059823,3.17914 c 0.252115,0.38865 0.725995,0.43879 1.053682,0.1111 0.327687,-0.32769 0.390092,-0.91359 0.137976,-1.30225 l -1.86862,-2.88406 c -0.208614,-0.32165 -0.117015,-0.75133 0.204639,-0.95963 l 1.145667,-0.74311 0.001,0.001 2.466,-3.27009 c 0.126692,-0.16797 0.281825,-0.31254 0.45837,-0.42685 l 12.72222,-8.24445 -0.415995,-0.64182 c -0.192738,-0.29753 -0.19262,-0.67988 -5.17e-4,-0.97772 l 0.658875,-1.0201 c 0.102243,-0.15844 0.236997,-0.29419 0.394808,-0.39739 l 18.998323,-12.43128 c 0.218976,-0.14324 0.465209,-0.21505 0.710551,-0.22014 z m 46.547027,2.23552 c 0.93637,-0.035 1.22014,0.60668 0.60668,1.56993 l -19.036043,29.90205 c -0.70078,1.10086 -0.337296,2.39267 0.807703,2.86959 1.144998,0.47693 2.45839,0.80122 2.91817,0.72089 0.45978,-0.0806 0.8094,0.92151 0.77669,2.22622 l -1.30328,52.23144 -9.667105,16.28531 c -0.245448,0.4131 0.05237,0.93638 0.532784,0.93638 h 8.704891 l -0.412374,16.5318 H 79.713481 l 7.358207,-81.44205 c 0.117484,-1.30027 -0.422505,-3.22136 -1.200444,-4.26951 l -5.752103,-7.7494 c -0.777621,-1.04815 -1.648358,-2.94733 -1.934766,-4.22093 l -1.419552,-6.31228 c -0.286408,-1.27359 0.345536,-2.94111 1.403532,-3.70571 l 1.523938,-1.10226 c 1.057997,-0.7646 2.469638,-1.1298 3.13676,-0.81132 0.667122,0.31816 2.076335,-0.0492 3.132108,-0.81701 l 10.796757,-7.8512 c 1.055774,-0.76777 2.964513,-1.61569 4.241602,-1.88463 l 14.48025,-3.04995 c 0.15968,-0.0336 0.30704,-0.0524 0.4408,-0.0574 z M 15.719971,175.94223 c 0.29709,-0.002 0.592937,0.14146 0.771012,0.41651 l 2.269629,3.50212 c 0.226078,0.34896 0.18779,0.80475 -0.09353,1.11052 -1.382826,1.50381 -3.680182,4.28083 -5.499923,7.85585 -3.5451769,6.96335 -3.7055759,13.63451 -0.476974,19.82722 4.95531,9.50482 14.948594,11.58662 25.529192,13.79089 5.834855,1.2158 11.868876,2.4728 16.987076,5.09271 6.053949,3.09873 10.00134,7.69335 12.067481,14.04514 1.984267,6.09838 2.029467,12.44849 0.146761,18.96266 h -6.15363 c 1.913818,-5.57178 2.307566,-11.34706 0.421163,-17.14572 C 58.175431,232.6033 48.372746,230.56082 37.021513,228.19589 26.100527,225.92082 13.722486,223.34204 7.4811971,211.37004 3.3530429,203.45127 3.5406515,194.67258 8.0237996,185.98348 c 2.4617784,-4.77178 5.5736084,-8.2538 7.0548664,-9.7684 0.178231,-0.18226 0.410235,-0.27151 0.641305,-0.27285 z m 89.779019,50.77416 c 0.16898,-0.007 0.34044,0.13465 0.3023,0.34365 l -1.43505,7.85792 c -0.0327,0.17845 0.10395,0.34262 0.28525,0.34262 h 5.55884 c 0.22512,0 0.36402,0.24504 0.24908,0.43873 l -7.51479,12.66021 c -0.16543,0.27847 -0.59347,0.11797 -0.53537,-0.20051 l 1.43506,-7.85792 c 0.0327,-0.17844 -0.10395,-0.34261 -0.28526,-0.34261 h -5.55883 c -0.225126,0 -0.364542,-0.24536 -0.249597,-0.43873 l 7.515307,-12.66021 c 0.0569,-0.0957 0.14454,-0.13973 0.23306,-0.14315 z"
       sodipodi:nodetypes="sssssssssssssssssssssssssssssssssssscssssssssssssssssssssssssssssssssssssssssssssssssccsssssssssssssssssccccccccccccccsccccccccsssccccccccccccccccccccccscsccccssccccccccsscccssscccccsscccccccccscccccccccccccccccccccccccsccccccccccsccccccccsccccccccccccccsccccccccccccccccccccccccccccsccccccccccccsccccccccccccccsccsccccscccccccscccccccscccccccccccccccscsccssccccssccsccssccc" />
  </g>
</svg>
