<?xml version="1.0" encoding="UTF-8" standalone="no"?>
<!-- Created with Inkscape (http://www.inkscape.org/) -->

<svg
   width="210mm"
   height="297mm"
   viewBox="0 0 210 297"
   version="1.1"
   id="svg1"
   inkscape:version="1.4.3 (0d15f75, 2025-12-25)"
   sodipodi:docname="ifixit-fist-wrench.svg"
   xmlns:inkscape="http://www.inkscape.org/namespaces/inkscape"
   xmlns:sodipodi="http://sodipodi.sourceforge.net/DTD/sodipodi-0.dtd"
   xmlns="http://www.w3.org/2000/svg"
   xmlns:svg="http://www.w3.org/2000/svg">
  <sodipodi:namedview
     id="namedview1"
     pagecolor="#ffffff"
     bordercolor="#666666"
     borderopacity="1.0"
     inkscape:showpageshadow="2"
     inkscape:pageopacity="0.0"
     inkscape:pagecheckerboard="0"
     inkscape:deskcolor="#d1d1d1"
     inkscape:document-units="mm"
     inkscape:zoom="1.257402"
     inkscape:cx="352.31373"
     inkscape:cy="897.48542"
     inkscape:window-width="1920"
     inkscape:window-height="1116"
     inkscape:window-x="1879"
     inkscape:window-y="382"
     inkscape:window-maximized="0"
     inkscape:current-layer="layer8" />
  <defs
     id="defs1">
    <inkscape:path-effect
       effect="bspline"
       id="path-effect1"
       is_visible="true"
       lpeversion="1.3"
       weight="33.333333"
       steps="2"
       helper_size="0"
       apply_no_weight="true"
       apply_with_weight="true"
       only_selected="false"
       uniform="false" />
    <clipPath
       clipPathUnits="userSpaceOnUse"
       id="clipPath930">
      <path
         d="M 0,708.661 H 708.661 V 0 H 0 Z"
         transform="translate(-496.11764,-579.29912)"
         id="path930" />
    </clipPath>
    <clipPath
       clipPathUnits="userSpaceOnUse"
       id="clipPath932">
      <path
         d="M 0,708.661 H 708.661 V 0 H 0 Z"
         transform="translate(-308.73898,-280.07821)"
         id="path932" />
    </clipPath>
    <clipPath
       clipPathUnits="userSpaceOnUse"
       id="clipPath934">
      <path
         d="M 0,708.661 H 708.661 V 0 H 0 Z"
         transform="translate(-411.02654,-277.89491)"
         id="path934" />
    </clipPath>
    <clipPath
       clipPathUnits="userSpaceOnUse"
       id="clipPath936">
      <path
         d="M 0,708.661 H 708.661 V 0 H 0 Z"
         transform="translate(-419.95484,-517.24881)"
         id="path936" />
    </clipPath>
    <clipPath
       clipPathUnits="userSpaceOnUse"
       id="clipPath938">
      <path
         d="M 0,708.661 H 708.661 V 0 H 0 Z"
         transform="translate(-335.31171,-473.83361)"
         id="path938" />
    </clipPath>
    <clipPath
       clipPathUnits="userSpaceOnUse"
       id="clipPath940">
      <path
         d="M 0,708.661 H 708.661 V 0 H 0 Z"
         transform="translate(-341.84961,-407.78781)"
         id="path940" />
    </clipPath>
    <clipPath
       clipPathUnits="userSpaceOnUse"
       id="clipPath942">
      <path
         d="M 0,708.661 H 708.661 V 0 H 0 Z"
         transform="translate(-291.99343,-383.55881)"
         id="path942" />
    </clipPath>
    <clipPath
       clipPathUnits="userSpaceOnUse"
       id="clipPath944">
      <path
         d="M 0,708.661 H 708.661 V 0 H 0 Z"
         transform="translate(-389.04433,-411.39771)"
         id="path944" />
    </clipPath>
    <clipPath
       clipPathUnits="userSpaceOnUse"
       id="clipPath946">
      <path
         d="M 0,708.661 H 708.661 V 0 H 0 Z"
         transform="translate(-366.54598,-92.4074)"
         id="path946" />
    </clipPath>
    <clipPath
       clipPathUnits="userSpaceOnUse"
       id="clipPath948">
      <path
         d="M 0,708.661 H 708.661 V 0 H 0 Z"
         transform="translate(-307.79818,-64.836799)"
         id="path948" />
    </clipPath>
  </defs>
  <g
     inkscape:label="Layer 1"
     inkscape:groupmode="layer"
     id="layer1">
    <path
       id="path929"
       d="M 0,0 C -0.582,0.898 -1.62,1.392 -2.684,1.277 L -6.133,0.903 C -6.795,0.832 -7.43,0.606 -7.988,0.244 l -8.694,-5.633 c -0.42,-0.272 -0.55,-0.837 -0.272,-1.254 0.282,-0.423 0.164,-0.994 -0.262,-1.27 l -2.652,-1.719 c -0.421,-0.273 -0.983,-0.154 -1.257,0.266 l -0.008,0.011 c -0.274,0.42 -0.836,0.539 -1.257,0.266 l -50.024,-32.412 c -1.79,-1.159 -2.444,-3.465 -1.529,-5.391 l 8.124,-17.118 c 0.669,-1.41 2.034,-2.387 3.591,-2.497 3.083,-0.215 8.574,-1.591 12.899,-8.059 l 10.263,-16.157 c 1.267,-1.995 3.918,-2.574 5.901,-1.288 l 45.433,29.441 c 0.421,0.273 0.542,0.836 0.269,1.258 l -0.002,0.003 c -0.273,0.422 -0.152,0.985 0.269,1.258 l 2.653,1.72 c 0.418,0.271 0.987,0.162 1.253,-0.26 0.271,-0.43 0.84,-0.555 1.265,-0.279 l 8.691,5.636 c 0.556,0.361 1.019,0.846 1.354,1.417 l 1.756,2.993 c 0.543,0.925 0.517,2.076 -0.066,2.976 z m 125.877,59.658 -98.27,-63.68 -0.615,0.949 c -0.426,0.657 -1.303,0.844 -1.96,0.419 l -7.734,-5.013 c -0.926,-0.599 -1.19,-1.836 -0.59,-2.761 l 10.307,-15.906 c 0.599,-0.925 1.836,-1.189 2.761,-0.589 l 7.735,5.012 c 0.656,0.425 0.844,1.303 0.418,1.959 l -0.614,0.949 98.272,63.681 c 0.985,0.639 1.267,1.955 0.629,2.94 l -0.315,0.486 -7.084,10.927 c -0.639,0.985 -1.955,1.266 -2.94,0.627 m 33.614,11.076 c -0.38,0.58 -1.13,0.8 -1.77,0.52 l -0.05,-0.01 -15.35,-6.86 -13.18,-5.84 6.76,-10.44 10.78,9.55 12.53,11.22 0.03,0.04 c 0.52,0.46 0.62,1.23 0.25,1.82 m -500.036,-294.606 c -0.497,-0.325 -0.921,-0.751 -1.243,-1.25 l -2.076,-3.213 c -0.605,-0.938 -0.605,-2.143 0.002,-3.08 l 1.31,-2.021 -40.067,-25.965 c -0.556,-0.36 -1.044,-0.815 -1.443,-1.344 l -7.766,-10.299 -0.003,0.003 -3.609,-2.339 c -1.013,-0.656 -1.302,-2.009 -0.645,-3.022 l 5.885,-9.083 c 0.794,-1.224 0.599,-3.07 -0.433,-4.102 v 0 c -1.032,-1.032 -2.525,-0.874 -3.319,0.35 l -6.488,10.013 c -0.656,1.013 -2.01,1.302 -3.022,0.646 l -9.124,-5.912 c -1.013,-0.657 -1.302,-2.01 -0.645,-3.023 l 6.138,-9.472 c 0.738,-1.139 0.591,-2.708 -0.469,-3.556 -1.219,-0.975 -2.978,-0.667 -3.805,0.61 l -6.219,9.596 c -0.656,1.013 -2.01,1.302 -3.023,0.646 l -9.123,-5.912 c -1.013,-0.656 -1.302,-2.01 -0.645,-3.023 l 6.138,-9.472 c 0.738,-1.139 0.591,-2.707 -0.469,-3.555 -1.219,-0.975 -2.978,-0.667 -3.805,0.609 l -6.219,9.597 c -0.656,1.013 -2.009,1.302 -3.022,0.645 l -1.801,-1.166 c -1.013,-0.657 -1.302,-2.01 -0.646,-3.023 l 11.732,-18.105 c 0.656,-1.013 2.01,-1.302 3.023,-0.645 l 10.373,6.722 c 1.013,0.656 1.302,2.01 0.646,3.023 l -6.454,9.959 c -0.868,1.34 -0.343,3.182 1.213,3.821 1.168,0.48 2.515,-0.032 3.201,-1.091 l 6.394,-9.868 c 0.657,-1.013 2.01,-1.302 3.023,-0.645 l 9.123,5.912 c 1.013,0.656 1.302,2.009 0.646,3.022 l -6.373,9.835 c -0.738,1.139 -0.591,2.708 0.468,3.556 1.219,0.975 2.979,0.667 3.806,-0.61 l 6.453,-9.959 c 0.657,-1.013 2.01,-1.302 3.023,-0.646 l 12.182,7.894 -7.382,11.392 7.385,-11.394 12.565,2.887 c 0.645,0.148 1.259,0.408 1.814,0.767 l 40.071,25.967 1.328,-2.048 c 0.614,-0.949 1.733,-1.441 2.848,-1.254 l 3.735,0.627 c 0.567,0.095 1.108,0.305 1.592,0.615 l 63.576,40.808 c 2.119,1.361 2.599,4.254 1.032,6.226 l -25.896,32.587 c -1.367,1.721 -3.82,2.116 -5.659,0.913 z m 17.453,-251.475 c -16.119,8.251 -35.122,12.21 -53.498,16.039 -33.322,6.942 -64.795,13.499 -80.401,43.433 -10.168,19.503 -9.662,40.513 1.503,62.443 5.731,11.259 12.965,20.004 17.32,24.74 0.886,0.963 1.007,2.398 0.295,3.497 l -7.148,11.03 c -0.997,1.54 -3.164,1.765 -4.447,0.453 -4.665,-4.77 -14.465,-15.737 -22.218,-30.765 -14.119,-27.365 -14.71,-55.012 -1.709,-79.951 19.656,-37.704 58.638,-45.826 93.032,-52.991 35.749,-7.448 66.622,-13.88 77.685,-47.883 32.817,-100.877 -153.487,-199.484 -155.371,-200.467 l 8.553,-16.405 c 2.037,1.062 50.398,26.461 95.156,65.937 26.628,23.485 46.371,47.091 58.676,70.161 15.958,29.916 19.518,59.018 10.577,86.497 -6.507,20.004 -18.939,34.473 -38.005,44.232"
       style="display:inline;fill:#231f20;fill-opacity:1;fill-rule:nonzero;stroke:none"
       transform="matrix(0.31752589,0,0,-0.31752589,157.79656,76.603242)"
       clip-path="url(#clipPath930)" />
    <path
       id="path931"
       d="m 0,0 c 3.606,-1.502 7.742,-2.524 9.19,-2.271 1.448,0.254 2.55,-2.902 2.447,-7.011 l -34.438,-1380.457 c -0.103,-4.11 -3.136,-5.856 -6.741,-3.88 l -116.931,64.08 c -3.606,1.976 -6.253,6.942 -5.883,11.036 L -35.358,-23.589 c 0.37,4.095 -1.332,10.145 -3.782,13.446 l -18.115,24.405 c -2.449,3.301 -5.191,9.283 -6.093,13.294 l -4.47,19.88 c -0.902,4.011 1.087,9.262 4.419,11.67 l 4.8,3.471 c 3.332,2.408 7.777,3.558 9.878,2.555 2.101,-1.002 6.54,0.155 9.865,2.573 l 34.002,24.726 c 3.325,2.418 9.337,5.089 13.359,5.936 l 45.604,9.605 c 4.023,0.848 5.507,-1.297 3.299,-4.764 L -2.544,9.036 C -4.751,5.569 -3.606,1.502 0,0"
       style="display:inline;fill:#231f20;fill-opacity:1;fill-rule:nonzero;stroke:none"
       transform="matrix(0.31752589,0,0,-0.31752589,98.298974,171.61363)"
       clip-path="url(#clipPath932)" />
    <path
       id="path933"
       d="m 0,0 c -2.337,-3.381 -3.619,-9.452 -2.848,-13.489 l 307.631,-1610.593 c 0.772,-4.038 -1.547,-5.725 -5.152,-3.749 l -303.468,166.308 c -3.605,1.975 -6.713,6.952 -6.908,11.058 L -79.263,-5.511 c -0.195,4.106 2.993,7.785 7.085,8.175 l 1.879,0.18 c 4.092,0.39 4.702,2.663 1.357,5.052 l -14.78,10.552 c -3.346,2.388 -4.177,7.114 -1.847,10.501 l 57.762,83.977 c 2.33,3.387 7.323,7.494 11.096,9.126 l 16.549,7.161 c 3.773,1.632 10.22,3.118 14.327,3.301 l 2.158,0.096 c 4.107,0.183 4.383,1.673 0.613,3.312 l -6.825,2.968 c -3.77,1.639 -7.478,4.828 -8.24,7.088 -0.761,2.259 -0.335,7.303 0.947,11.209 l 2.094,6.374 c 1.283,3.906 -0.237,4.931 -3.378,2.279 l -16.043,-13.545 c -3.141,-2.652 -8.993,-4.088 -13.004,-3.191 l -33.33,7.454 c -4.012,0.897 -7.822,4.953 -8.465,9.013 l -2.549,16.055 c -0.644,4.06 1.945,8.646 5.755,10.191 l 83.757,33.964 c 3.809,1.545 8.73,-0.03 10.933,-3.5 l 55.887,-87.989 c 2.203,-3.469 2.094,-9.075 -0.244,-12.457 z"
       style="display:inline;fill:#231f20;fill-opacity:1;fill-rule:nonzero;stroke:none"
       transform="matrix(0.31752589,0,0,-0.31752589,130.77793,172.30689)"
       clip-path="url(#clipPath934)" />
    <path
       id="path935"
       d="M 0,0 C 1.763,-3.714 0.097,-8.041 -3.701,-9.615 L -41.6,-25.324 c -3.798,-1.574 -8.422,0.14 -10.276,3.809 l -18.52,36.645 c -1.854,3.669 -0.356,8.158 3.332,9.976 l 37.994,18.733 c 3.687,1.818 8.145,0.267 9.907,-3.447 z"
       style="display:inline;fill:#231f20;fill-opacity:1;fill-rule:nonzero;stroke:none"
       transform="matrix(0.31752589,0,0,-0.31752589,133.6129,96.305824)"
       clip-path="url(#clipPath936)" />
    <path
       id="path937"
       d="m 0,0 c -3.776,-1.626 -6.214,-6.256 -5.417,-10.289 l 2.055,-10.402 c 0.797,-4.033 0.482,-7.968 -0.7,-8.746 -1.181,-0.778 -3.872,1.474 -5.978,5.004 l -32.749,54.88 c -2.106,3.53 -0.813,7.905 2.874,9.724 l 36.425,17.96 c 3.687,1.818 8.265,0.326 10.173,-3.315 L 25.422,19.06 c 1.909,-3.641 0.381,-7.95 -3.395,-9.576 z"
       style="fill:#231f20;fill-opacity:1;fill-rule:nonzero;stroke:none"
       transform="matrix(0.31752589,0,0,-0.31752589,106.7365,110.09128)"
       clip-path="url(#clipPath938)" />
    <path
       id="path939"
       d="m 0,0 c 2.172,-3.49 0.923,-7.81 -2.777,-9.602 l -29.104,-14.087 c -3.7,-1.791 -8.689,-0.524 -11.087,2.815 l -49.483,68.899 c -2.399,3.338 -1.635,8.041 1.696,10.451 l 31.422,22.727 c 3.331,2.409 7.834,1.525 10.006,-1.965 z"
       style="fill:#231f20;fill-opacity:1;fill-rule:nonzero;stroke:none"
       transform="matrix(0.31752589,0,0,-0.31752589,108.81246,131.06253)"
       clip-path="url(#clipPath940)" />
    <path
       id="path941"
       d="m 0,0 c 2.46,-3.293 1.762,-7.979 -1.552,-10.412 l -20.633,-15.152 c -3.314,-2.433 -8.116,-1.791 -10.674,1.427 L -81.7,37.318 c -2.558,3.219 -1.926,7.823 1.405,10.233 l 23.011,16.648 c 3.331,2.41 8.069,1.686 10.529,-1.607 z"
       style="fill:#231f20;fill-opacity:1;fill-rule:nonzero;stroke:none"
       transform="matrix(0.31752589,0,0,-0.31752589,92.98184,138.75586)"
       clip-path="url(#clipPath942)" />
    <path
       id="path943"
       d="m 0,0 c 3.801,1.565 3.648,3.66 -0.34,4.655 l -44.423,11.084 c -3.989,0.996 -5.514,-1.07 -3.392,-4.59 l 11.107,-18.411 c 2.124,-3.52 6.97,-5.12 10.772,-3.555 z"
       style="display:inline;fill:#231f20;fill-opacity:1;fill-rule:nonzero;stroke:none"
       transform="matrix(0.31752589,0,0,-0.31752589,123.79801,129.91629)"
       clip-path="url(#clipPath944)" />
    <path
       id="path945"
       d="m 0,0 h -39.521 l 0.002,32.011 -41.202,-69.406 c -0.773,-1.301 0.165,-2.948 1.678,-2.948 h 39.522 v -32.014 l 41.2,69.408 C 2.451,-1.647 1.513,0 0,0"
       style="display:inline;fill:#ffffff;fill-opacity:1;fill-rule:nonzero;stroke:none"
       transform="matrix(0.31752589,0,0,-0.31752589,116.6542,231.20397)"
       clip-path="url(#clipPath946)" />
    <path
       id="path947"
       d="m 0,0 h 17.506 c 0.571,0 1.002,-0.517 0.899,-1.079 l -4.52,-24.748 c -0.183,-1.003 1.165,-1.508 1.686,-0.631 l 23.668,39.872 c 0.362,0.61 -0.077,1.381 -0.786,1.381 H 20.947 c -0.571,0 -1.002,0.517 -0.899,1.079 l 4.52,24.748 c 0.183,1.003 -1.165,1.508 -1.686,0.631 L -0.786,1.381 C -1.148,0.772 -0.709,0 0,0"
       style="display:inline;fill:#faa21a;fill-opacity:1;fill-rule:nonzero;stroke:none"
       transform="matrix(0.31752589,0,0,-0.31752589,98.000249,239.95835)"
       clip-path="url(#clipPath948)" />
  </g>
  <g
     inkscape:groupmode="layer"
     id="layer8"
     inkscape:label="Edge.Cut">
    <path
       style="fill:none;stroke:#000000;stroke-width:0.1;stroke-dasharray:none"
       d="m 132.14278,175.82522 c 0.13358,-0.34371 0.40073,-1.0311 5.13856,-8.11347 4.73782,-7.08238 13.94542,-20.55839 18.5702,-27.53434 4.62478,-6.97596 4.66551,-7.45 4.67465,-7.98119 0.009,-0.53119 -0.0133,-1.11941 -0.35475,-2.07777 -0.34141,-0.95836 -1.00173,-2.28672 -3.09015,-5.65943 -2.08842,-3.37272 -5.60469,-8.78937 -7.63413,-11.76213 -2.02945,-2.97276 -2.57183,-3.50127 0.96993,-6.30524 3.54176,-2.80397 11.16736,-7.883164 15.04152,-10.708786 3.87416,-2.825622 3.99671,-3.397544 3.62904,-4.289497 -0.36768,-0.891952 -1.22556,-2.103879 -1.70898,-2.954974 -0.48342,-0.851095 -0.59236,-1.341313 -0.12936,-1.886016 0.46301,-0.544704 1.49791,-1.143856 7.42841,-5.092985 5.9305,-3.949128 16.75614,-11.247925 22.20311,-14.951869 5.44697,-3.703943 5.51506,-3.812876 5.55592,-4.01714 0.0409,-0.204264 0.0545,-0.50384 1.15073,-1.613681 1.09623,-1.10984 3.27498,-3.029862 4.48013,-4.200964 1.20514,-1.171103 1.43663,-1.593234 1.51789,-2.042292 0.0813,-0.449058 0.0123,-0.924997 -0.29411,-1.265441 -0.3064,-0.340444 -0.8502,-0.545348 -2.53834,0.08074 -1.68815,0.626093 -4.52052,2.08313 -6.10014,2.736764 -1.57963,0.653633 -1.90644,0.503846 -2.30816,0.531084 -0.40172,0.02724 -0.87832,0.231493 -6.95181,3.908271 -6.07349,3.676778 -17.74339,10.825784 -23.72145,14.366316 -5.97805,3.540532 -6.26401,3.472447 -6.80872,2.839224 -0.5447,-0.633222 -1.34811,-1.831535 -1.9541,-2.539645 -0.60598,-0.708109 -1.01449,-0.925981 -1.52515,-1.075773 -0.51066,-0.149792 -1.12343,-0.231494 -5.16108,2.144795 -4.03764,2.37629 -11.49984,7.21038 -15.5238,9.681944 -4.02395,2.471565 -4.60949,2.580502 -5.11334,2.240059 -0.50385,-0.340444 -0.92598,-1.130238 -1.52515,-2.267309 -0.59918,-1.13707 -1.37536,-2.621341 -2.02219,-3.54052 -0.64683,-0.919178 -1.16429,-1.273228 -1.75665,-1.436637 -0.59236,-0.163408 -1.25961,-0.136175 -3.78569,0.987284 -2.52607,1.12346 -6.91079,3.343054 -9.32789,4.738847 -2.4171,1.395793 -2.86647,1.967716 -3.1252,2.491992 -0.25873,0.524276 -0.32681,1.000875 -0.43576,1.280034 -0.10894,0.279159 -0.25873,0.360861 -0.64002,0.245108 -0.3813,-0.115753 -0.99407,-0.428947 -1.57281,-0.585546 -0.57875,-0.1566 -1.12344,-0.1566 -3.51334,0.919199 -2.3899,1.075799 -6.624833,3.227309 -9.00108,4.616293 -2.376247,1.388984 -2.8937,2.015374 -3.084343,2.669017 -0.190643,0.653642 -0.05447,1.3345 0.245116,2.08347 0.299589,0.74897 0.762574,1.566 0.973643,2.15155 0.21107,0.58555 0.170218,0.9396 -0.09533,1.03492 -0.265545,0.0953 -0.755764,-0.0681 -1.300465,-0.0817 -0.544702,-0.0136 -1.143856,0.12256 -3.349919,1.57284 -2.206063,1.45028 -6.018869,4.21457 -8.081911,5.85547 -2.063041,1.6409 -2.376238,2.15836 -2.505603,2.64178 -0.129365,0.48342 -0.0749,0.93279 0.02723,1.25961 0.102132,0.32682 0.251923,0.53108 0.354054,0.80343 0.102131,0.27235 0.1566,0.61278 0.09532,0.87152 -0.06128,0.25873 -0.238301,0.43575 -0.551508,0.42213 -0.313207,-0.0136 -0.762573,-0.21788 -1.273233,-0.29277 -0.51066,-0.0749 -1.082577,-0.0204 -2.793076,1.03998 -1.710499,1.0604 -4.559401,3.12662 -6.230219,4.5325 -1.670819,1.40588 -2.163372,2.15126 -2.279708,2.84102 -0.116335,0.68976 0.143559,1.32383 0.871271,2.43909 0.727712,1.11526 1.923149,2.71158 2.465756,3.76669 0.542606,1.05512 0.432299,1.56886 0.126981,2.00094 -0.305317,0.43208 -0.805603,0.78243 -4.130954,3.01571 -3.32535,2.23327 -9.475498,6.3493 -12.741279,8.59799 -3.26578,2.2487 -3.647061,2.62998 -3.864941,3.08617 -0.217881,0.45619 -0.272349,0.98726 -0.313201,1.36855 -0.04085,0.38129 -0.06808,0.61278 -0.578749,1.09621 -0.510664,0.48343 -1.504715,1.21875 -3.452035,2.47157 -1.947321,1.25282 -4.847776,3.02305 -6.686138,4.36438 -1.838363,1.34133 -2.614541,2.25368 -3.240948,2.99583 -0.626407,0.74216 -1.103006,1.31408 -3.874202,3.16608 -2.771197,1.852 -7.83678,4.98395 -10.48537,6.76103 -2.648591,1.77707 -2.880086,2.19921 -3.166054,2.68263 -0.285967,0.48342 -0.626399,1.02811 -0.925985,1.43664 -0.299586,0.40852 -0.558311,0.68086 -1.436652,1.68857 -0.878341,1.00771 -2.376228,2.75071 -3.8605422,4.94995 -1.4843138,2.19924 -2.9549652,4.85458 -4.0103236,7.26489 -1.0553584,2.41031 -1.6953648,4.57544 -2.0766535,6.35933 -0.3812888,1.7839 -0.5038436,3.18647 -0.4493713,4.95675 0.054472,1.77029 0.2859645,3.90819 0.7149191,5.77379 0.4289546,1.8656 1.0553445,3.45881 1.9472985,5.24271 0.8919541,1.78391 2.0494138,3.7584 3.4247881,5.48101 1.3753739,1.72262 2.9685849,3.19328 4.5414119,4.41886 1.572827,1.22557 3.125186,2.20601 5.01803,3.14562 1.892844,0.93961 4.126056,1.83835 7.258105,2.79158 3.132049,0.95323 7.162731,1.96089 10.274335,2.69624 3.111605,0.73534 5.303968,1.19833 7.332983,1.67494 2.029016,0.47662 3.894567,0.96683 5.801027,1.82474 1.90646,0.85792 3.853711,2.08346 5.34483,3.34989 1.491119,1.26644 2.526025,2.57369 3.424781,4.13971 0.898757,1.56602 1.661318,3.39072 2.144739,5.0044 0.483421,1.61368 0.687678,3.01625 0.789809,4.55503 0.10213,1.53879 0.10213,3.2137 -0.166234,4.74033 -0.268363,1.52662 -0.805058,2.90485 -1.179545,3.94958 -0.374486,1.04472 -0.586721,1.75582 -0.638372,2.34673 -0.05165,0.59091 0.05729,1.06158 0.772215,1.28329 0.714927,0.22171 2.035792,0.19447 16.542308,0.22655 14.506516,0.0321 42.196887,0.12346 56.323927,0.16966 14.12705,0.0462 14.68884,0.0472 14.8683,-0.5961 0.17946,-0.6433 0.23251,-0.30666 -0.12414,-2.56291 -0.35664,-2.25626 -0.32724,-2.07125 -2.91113,-15.80969 -2.58389,-13.73845 -7.63979,-40.51074 -10.16759,-53.89606 -2.52779,-13.38532 -2.52779,-13.38529 -2.3942,-13.72898 z"
       id="path1"
       inkscape:path-effect="#path-effect1"
       inkscape:original-d="m 132.0092,176.16894 c 0.26717,-0.68743 0.53431,-1.37482 0.80147,-2.06225 9.20849,-13.47732 18.41609,-26.95333 27.62491,-40.43113 0.0407,-0.47411 0.0815,-0.94815 0.12221,-1.42224 -0.0225,-0.58829 -0.0449,-1.17651 -0.0674,-1.76478 -0.66036,-1.32845 -1.32068,-2.65681 -1.98104,-3.98526 -3.51648,-5.41698 -7.03275,-10.83363 -10.54923,-16.25061 -0.54241,-0.52854 -1.08479,-1.05705 -1.62719,-1.58558 7.62592,-5.0794 15.25152,-10.158605 22.87728,-15.237906 0.12256,-0.571942 0.24512,-1.143863 0.36767,-1.715796 -0.85791,-1.211975 -1.71579,-2.423901 -2.57369,-3.635852 -0.10894,-0.490238 -0.21788,-0.980456 -0.32682,-1.470683 1.03495,-0.599179 2.06985,-1.198335 3.10478,-1.7975 10.82607,-7.29909 21.65171,-14.597885 32.47756,-21.896827 0.0681,-0.108942 0.13618,-0.217879 0.20427,-0.326818 0.0136,-0.299591 0.0272,-0.599168 0.0409,-0.898753 2.17883,-1.920094 4.35758,-3.840115 6.53637,-5.760172 0.2315,-0.422148 0.46299,-0.84428 0.69449,-1.26642 -0.069,-0.475971 -0.13795,-0.951913 -0.20692,-1.427886 -0.54383,-0.204914 -1.08763,-0.409819 -1.63144,-0.614729 -2.83248,1.457094 -5.66485,2.914131 -8.49727,4.371194 -0.32683,-0.149794 -0.65364,-0.299582 -0.98046,-0.449374 -0.47662,0.204267 -0.95322,0.408522 -1.42983,0.612783 -11.67037,7.149296 -23.34027,14.298303 -35.01041,21.447453 -0.28597,-0.06809 -0.57193,-0.136176 -0.8579,-0.204261 -0.80344,-1.198358 -1.60686,-2.396667 -2.41028,-3.595002 -0.40854,-0.217884 -0.81705,-0.435758 -1.22557,-0.653637 -0.6128,-0.08171 -1.22557,-0.163409 -1.83836,-0.245113 -7.4625,4.834284 -14.9247,9.668375 -22.38705,14.502561 -0.58556,0.108942 -1.1711,0.217879 -1.75665,0.326819 -0.42215,-0.789826 -0.84428,-1.579621 -1.26642,-2.369431 -0.77621,-1.484331 -1.55239,-2.968601 -2.32858,-4.452901 -0.51747,-0.35406 -1.03493,-0.708107 -1.55239,-1.062159 -0.66726,0.02724 -1.33451,0.05447 -2.00176,0.0817 -4.3849,2.219687 -8.76962,4.439282 -13.15444,6.658924 -0.44938,0.571942 -0.89875,1.143863 -1.34812,1.715797 -0.0681,0.476618 -0.13617,0.953219 -0.20426,1.429829 -0.1498,0.08171 -0.29959,0.16341 -0.44938,0.245113 -0.6128,-0.313206 -1.22557,-0.626401 -1.83835,-0.939602 -0.54471,0 -1.0894,0 -1.63409,0 -4.23511,2.151597 -8.470043,4.303107 -12.705065,6.454662 -0.517472,0.626414 -1.034925,1.252804 -1.552387,1.879205 0.136178,0.680884 0.272349,1.361742 0.408522,2.042622 0.463002,0.81706 0.925986,1.63409 1.388978,2.45113 -0.04085,0.35406 -0.0817,0.70811 -0.122555,1.06216 -0.490239,-0.16341 -0.980456,-0.32682 -1.470684,-0.49022 -0.599178,0.13617 -1.198332,0.27234 -1.7975,0.40852 -3.812958,2.76439 -7.62576,5.52868 -11.438641,8.29301 -0.313208,0.51747 -0.626401,1.03493 -0.939601,1.55239 0.05447,0.44938 0.108939,0.89875 0.163406,1.34813 0.149797,0.20426 0.299585,0.40852 0.449377,0.61278 0.05447,0.34044 0.108939,0.68087 0.163409,1.02131 -0.17703,0.17703 -0.354052,0.35405 -0.53108,0.53108 -0.449384,-0.20427 -0.89875,-0.40853 -1.348126,-0.61279 -0.571942,0.0545 -1.143862,0.10894 -1.715796,0.16341 -2.849065,2.06634 -5.697968,4.13256 -8.547024,6.1989 -0.492579,0.74542 -0.985132,1.4908 -1.477711,2.23622 0.259908,0.6341 0.519801,1.26817 0.77971,1.90227 1.195518,1.59642 2.390951,3.19274 3.586484,4.78918 -0.110318,0.51379 -0.220626,1.02753 -0.330943,1.54132 -0.500318,0.35037 -1.000603,0.70072 -1.500919,1.05109 -6.150387,4.11618 -12.300531,8.23221 -18.4508,12.34831 -0.381296,0.38129 -0.762576,0.76257 -1.143865,1.14386 -0.05447,0.53109 -0.108939,1.06216 -0.163409,1.59324 -0.02723,0.2315 -0.05447,0.46299 -0.0817,0.69449 -0.994093,0.73536 -1.988146,1.47068 -2.982217,2.20602 -2.900571,1.7703 -5.801027,3.54053 -8.701537,5.3108 -0.776211,0.91239 -1.552387,1.82474 -2.328582,2.7371 -0.476621,0.57195 -0.95322,1.14387 -1.42983,1.7158 -5.065786,3.13207 -10.131368,6.26402 -15.197052,9.39603 -0.2315,0.42214 -0.462992,0.84428 -0.694488,1.26642 -0.340443,0.5447 -0.680872,1.08939 -1.021308,1.63409 -0.258736,0.27235 -0.517462,0.54469 -0.776193,0.81704 -1.497948,1.74307 -2.995835,3.48607 -4.4937521,5.2291 -1.4707118,2.65545 -2.9413646,5.31079 -4.4120471,7.96619 -0.6400321,2.16522 -1.2800383,4.33035 -1.9200577,6.49552 -0.1225592,1.40262 -0.2451137,2.80519 -0.3676705,4.20778 0.2315009,2.13798 0.4629927,4.27588 0.6944889,6.41381 0.6264142,1.59327 1.2528036,3.18648 1.8792052,4.77972 1.1575047,1.97457 2.3149631,3.94906 3.4724448,5.92358 1.5932715,1.47071 3.1864785,2.94137 4.7797175,4.41205 1.552418,0.98047 3.104774,1.96091 4.657161,2.94136 2.233303,0.89877 4.466517,1.7975 6.699775,2.69626 4.03084,1.0077 8.061518,2.01538 12.092278,3.02306 2.192449,0.46301 4.384813,0.92599 6.577219,1.38898 1.865625,0.49024 3.731175,0.98046 5.596763,1.47068 1.947331,1.2256 3.894585,2.45114 5.841878,3.67671 1.034944,1.3073 2.069849,2.61455 3.104774,3.92182 0.76259,1.82477 1.525151,3.64947 2.287728,5.47421 0.204266,1.40262 0.408522,2.80519 0.612783,4.20778 0,1.67498 0,3.34989 0,5.02483 -0.536729,1.37831 -1.073423,2.75654 -1.610149,4.13485 -0.212247,0.71114 -0.42448,1.42224 -0.636727,2.13338 0.108942,0.47068 0.217882,0.94135 0.326819,1.412 1.320919,-0.0272 2.641782,-0.0545 3.962672,-0.0817 27.692143,0.0914 55.382514,0.18277 83.074764,0.27416 0.56184,10e-4 1.12363,0.002 1.68547,0.003 -0.20292,-1.28759 -0.14987,-0.95095 -0.60875,-3.86262 -0.25441,-1.60084 -0.225,-1.41583 -0.3375,-2.12367 -5.05529,-26.76905 -10.11119,-53.54134 -15.16679,-80.31201 1e-5,3e-5 2e-5,9e-5 2e-5,9e-5 z"
       sodipodi:nodetypes="ccccccccccccccccccccccccccccccccccccccccccccccccccccccccccccccccccccccccccccccccccccccccccccccccccccc" />
  </g>
</svg>
