<?xml version="1.0" encoding="UTF-8" standalone="no"?>
<svg
   id="Layer_1"
   data-name="Layer 1"
   viewBox="0 0 33.229037 5.3114853"
   version="1.1"
   width="11.630163"
   height="1.8590199"
   xml:space="preserve"
   xmlns="http://www.w3.org/2000/svg"
   xmlns:svg="http://www.w3.org/2000/svg"><defs
     id="defs1"><style
       id="style1">
      .cls-1 {
        fill: #000;
      }

      .cls-1, .cls-2 {
        stroke-width: 0px;
      }

      .cls-2 {
        fill: #fff;
      }
    </style><style
       id="style1-8">
      .st0 {
        fill: #fff;
      }
    </style></defs><path
     d="m 2.6557093,0.47869564 c 0.7090844,0 0.7931826,0.002736 1.0733592,0.0154409 0.7196955,0.032739 1.0558757,0.37424455 1.0886239,1.08863296 0.012827,0.2799517 0.015319,0.3640499 0.015319,1.0731282 0,0.7093033 -0.00274,0.7931736 -0.015319,1.0731343 -0.03301,0.7137228 -0.3682567,1.0558697 -1.0886239,1.0886269 -0.2801766,0.012827 -0.3638371,0.015441 -1.0733592,0.015441 -0.7090753,0 -0.7931766,-0.00274 -1.0731252,-0.015441 C 0.86111051,4.7846464 0.52671141,4.4416514 0.49395722,3.7288101 0.48113032,3.4488524 0.47851631,3.364973 0.47851631,2.6556698 c 0,-0.7090753 0.002736,-0.7929486 0.0154409,-1.0731222 C 0.52696673,0.86838111 0.86222298,0.52666582 1.5825841,0.49391163 1.8627637,0.48132789 1.946634,0.4785923 2.6557093,0.4785923 Z M 2.6557093,0 C 1.9344637,0 1.8441678,0.0033435 1.5609,0.01595764 0.59641436,0.06020436 0.06040801,0.59534748 0.01614001,1.5606993 0.00306995,1.8442103 0,1.9345001 0,2.6557427 0,3.3769975 0.0033435,3.4675031 0.01598803,3.7507891 0.06023172,4.7152686 0.595387,5.2512841 1.5607358,5.2955278 c 0.2834988,0.012888 0.3737917,0.015958 1.0950525,0.015958 0.7212456,0 0.8117574,-0.00334 1.0950403,-0.015958 0.9635799,-0.044241 1.5009266,-0.5793838 1.544529,-1.5447387 0.01307,-0.283286 0.01614,-0.3737916 0.01614,-1.0950464 0,-0.7212426 -0.00334,-0.8115324 -0.015988,-1.0948154 C 5.2520379,0.59734143 4.7163386,0.06043841 3.7509806,0.01618256 3.4674818,0.0031125 3.3769701,4.2553696e-5 2.6557093,4.2553696e-5 Z m 0,1.2920062 c -0.7531153,0 -1.3637092,0.6105999 -1.3637092,1.3637213 0,0.7531184 0.6105939,1.3639311 1.3637092,1.3639311 0.7531275,0 1.3637244,-0.6105969 1.3637244,-1.3639311 0,-0.7531214 -0.6105969,-1.3637213 -1.3637244,-1.3637213 z m 0,2.2489628 c -0.488863,0 -0.8852294,-0.3961506 -0.8852294,-0.8852415 0,-0.4888751 0.3963664,-0.8852384 0.8852294,-0.8852384 0.4888812,0 0.8852445,0.3963633 0.8852445,0.8852384 0,0.4890909 -0.3963633,0.8852415 -0.8852445,0.8852415 z M 4.0734282,0.91954889 c -0.1761632,0 -0.3188974,0.14274031 -0.3188974,0.31868771 0,0.1759352 0.1427342,0.3186846 0.3188974,0.3186846 0.1759413,0 0.3184719,-0.1427494 0.3184719,-0.3186846 0,-0.1759474 -0.1425306,-0.31868771 -0.3184719,-0.31868771 z"
     id="path1-8"
     style="display:inline;fill:#000000;fill-opacity:1;stroke-width:0.22131" /><path
     d="M 7.2910287,1.1176272 7.2727002,1.4370079 Q 7.38789,1.2459023 7.552816,1.151658 7.720359,1.054797 7.9376442,1.054797 q 0.2722616,0 0.4450418,0.1282751 0.1727801,0.1282781 0.2225193,0.3246178 0.049739,0.1937257 0.049739,0.6492357 V 4.591562 H 7.597318 V 2.185725 q 0,-0.3586517 -0.023556,-0.4371876 -0.023556,-0.078539 -0.1308952,-0.078539 -0.1125667,0 -0.1413634,0.091627 -0.028815,0.089007 -0.028815,0.4816896 V 4.591562 H 6.2150645 V 1.1176272 Z m 4.1231703,1.7984864 h -1.369156 v 0.7513341 q 0,0.2356107 0.03403,0.3036754 0.03403,0.068065 0.130892,0.068065 0.120424,0 0.159692,-0.08901 0.04188,-0.091624 0.04188,-0.3507944 V 3.141253 h 1.002653 v 0.2565532 q 0,0.3219978 -0.04189,0.4947779 -0.03927,0.1727832 -0.188488,0.3691229 -0.149218,0.1963428 -0.379592,0.2958212 -0.227756,0.096861 -0.573316,0.096861 -0.3350926,0 -0.5916457,-0.096861 Q 9.3827191,4.4606668 9.2387356,4.2931208 9.0973692,4.1229577 9.0423929,3.9213808 8.9874165,3.7171869 8.9874165,3.3297416 V 2.3166171 q 0,-0.4555099 0.123041,-0.7173003 0.123041,-0.2644074 0.4031537,-0.4031537 0.2801158,-0.1413664 0.6440018,-0.1413664 0.445042,0 0.733008,0.1701631 0.290584,0.167543 0.405771,0.4476588 0.117807,0.2774957 0.117807,0.7827479 z M 10.353956,2.350651 V 2.0967148 q 0,-0.2696415 -0.02881,-0.3481774 -0.02879,-0.078539 -0.117804,-0.078539 -0.10995,0 -0.136129,0.068068 -0.02617,0.065444 -0.02617,0.3586486 v 0.253936 z m 2.463427,-1.2330238 -0.04188,0.45551 q 0.230373,-0.4895438 0.667561,-0.5183405 v 1.2225525 q -0.290584,0 -0.426716,0.078536 -0.13613,0.078539 -0.167543,0.2199023 -0.03142,0.1387493 -0.03142,0.6440015 V 4.591562 H 11.759759 V 1.1176272 Z M 16.084507,0.35320479 V 4.591562 H 15.02688 V 4.3402429 q -0.151837,0.1570748 -0.31938,0.2356107 -0.167547,0.078536 -0.350798,0.078536 -0.246082,0 -0.426716,-0.1282751 Q 13.749351,4.3952193 13.696995,4.2250562 13.647256,4.054893 13.647256,3.6700648 V 2.0443586 q 0,-0.4005367 0.04974,-0.5680827 0.05236,-0.1675431 0.235608,-0.2932041 0.183254,-0.1282751 0.437187,-0.1282751 0.196343,0 0.358652,0.070685 0.164926,0.070682 0.298438,0.2120481 V 0.35320479 Z M 15.02688,1.9919993 q 0,-0.1911056 -0.03403,-0.2565532 -0.03142,-0.065448 -0.128278,-0.065448 -0.09424,0 -0.128275,0.060214 -0.03142,0.057593 -0.03142,0.2617873 v 1.7016281 q 0,0.2120481 0.03142,0.2801127 0.03141,0.065448 0.120421,0.065448 0.102099,0 0.136132,-0.073302 0.03403,-0.075919 0.03403,-0.3665028 z m 2.785431,-1.63879451 v 0.53666594 q -0.327234,0 -0.387448,0.0314137 -0.05759,0.0287845 -0.05759,0.17016317 v 0.1099496 h 0.445041 V 1.7511545 H 17.560995 V 4.591562 H 16.503369 V 1.7511545 H 16.286084 V 1.2013972 h 0.217285 q 0,-0.34294326 0.02356,-0.45813003 0.02356,-0.11518678 0.115187,-0.20419391 0.09424,-0.0916272 0.26179,-0.13874937 0.167543,-0.0471191 0.520958,-0.0471191 z m 1.290618,0 V 4.591562 H 18.013888 V 0.35320479 Z m 1.32465,2.11001591 H 19.435401 V 2.230227 q 0,-0.4031537 0.09163,-0.6204389 0.09424,-0.2199023 0.374357,-0.3874484 0.280113,-0.167543 0.727771,-0.167543 0.536666,0 0.808928,0.1911056 0.272258,0.1884886 0.327235,0.4659842 0.05498,0.2748787 0.05498,1.1361625 v 1.743513 h -1.02883 V 4.2826495 q -0.09686,0.1858715 -0.251316,0.2801128 -0.151837,0.091627 -0.363886,0.091627 -0.277498,0 -0.510489,-0.1544547 -0.23038,-0.1570716 -0.23038,-0.6832663 V 3.5313184 q 0,-0.3900654 0.123041,-0.5314318 0.12304,-0.1413664 0.609967,-0.329855 0.520958,-0.2041939 0.557609,-0.2748756 0.03665,-0.070685 0.03665,-0.2879699 0,-0.2722586 -0.04189,-0.3534146 -0.03927,-0.083773 -0.133513,-0.083773 -0.107335,0 -0.133512,0.070685 -0.02617,0.068065 -0.02617,0.3586517 z m 0.33509,0.4764524 q -0.253937,0.1858715 -0.295822,0.3115296 -0.03927,0.125658 -0.03927,0.3612687 0,0.2696415 0.03403,0.3481774 0.03665,0.078539 0.141364,0.078539 0.09948,0 0.128278,-0.060211 0.03141,-0.062831 0.03141,-0.3246178 z m 2.479138,-1.8220459 -0.04189,0.45551 Q 23.430296,1.0835934 23.86748,1.0547967 v 1.2225525 q -0.290584,0 -0.426713,0.078536 -0.136132,0.078539 -0.167546,0.2199023 -0.03141,0.1387493 -0.03141,0.6440015 v 1.371773 h -1.05763 V 1.1176272 Z m 3.25665,1.7984864 h -1.369153 v 0.7513341 q 0,0.2356107 0.03403,0.3036754 0.03403,0.068065 0.130892,0.068065 0.120424,0 0.159692,-0.08901 0.04189,-0.091624 0.04189,-0.3507944 V 3.141253 h 1.00265 v 0.2565532 q 0,0.3219978 -0.04188,0.4947779 -0.03927,0.1727832 -0.188489,0.3691229 -0.149217,0.1963428 -0.379594,0.2958212 -0.227753,0.096861 -0.573317,0.096861 -0.335089,0 -0.591639,-0.096861 Q 24.46698,4.4606668 24.322993,4.2931208 24.18163,4.1229577 24.126654,3.9213808 24.071677,3.7171869 24.071677,3.3297416 V 2.3166171 q 0,-0.4555099 0.123041,-0.7173003 0.123041,-0.2644074 0.403154,-0.4031537 0.280116,-0.1413664 0.644002,-0.1413664 0.445038,0 0.733008,0.1701631 0.290584,0.167543 0.405771,0.4476588 0.117804,0.2774957 0.117804,0.7827479 z M 25.438213,2.350651 V 2.0967148 q 0,-0.2696415 -0.02878,-0.3481774 -0.02878,-0.078539 -0.117804,-0.078539 -0.109953,0 -0.136129,0.068068 -0.02617,0.065444 -0.02617,0.3586486 V 2.350651 Z M 29.003775,2.22761 H 28.066573 V 2.0391214 q 0,-0.2408448 -0.02879,-0.3036753 -0.02617,-0.065448 -0.136132,-0.065448 -0.08901,0 -0.133512,0.060214 -0.0445,0.057593 -0.0445,0.1753972 0,0.1596919 0.02094,0.2356107 0.02356,0.073302 0.133512,0.1623089 0.11257,0.089007 0.45813,0.2591703 0.460747,0.2251394 0.604731,0.4240962 0.143983,0.1989598 0.143983,0.5785539 0,0.4240963 -0.109949,0.6413815 -0.109953,0.2146682 -0.369123,0.332472 -0.256553,0.1151868 -0.620439,0.1151868 -0.403154,0 -0.691121,-0.125658 Q 27.008958,4.4030735 26.901626,4.1884053 26.79429,3.9737401 26.79429,3.5391696 v -0.167543 h 0.937206 v 0.2199023 q 0,0.2801127 0.03403,0.3638858 0.03665,0.083773 0.141366,0.083773 0.11257,0 0.157072,-0.054976 0.04451,-0.057593 0.04451,-0.2382278 0,-0.248699 -0.05759,-0.3115295 -0.06021,-0.062828 -0.615202,-0.37174 -0.465992,-0.2617876 -0.56809,-0.4738357 -0.102099,-0.2146682 -0.102099,-0.5078723 0,-0.416242 0.109953,-0.6125847 0.10995,-0.1989598 0.37174,-0.3062924 0.264404,-0.1073326 0.612585,-0.1073326 0.34556,0 0.586405,0.089007 0.243465,0.08639 0.37174,0.2303766 0.130895,0.1439835 0.157075,0.2670214 0.02878,0.123041 0.02878,0.3848313 z M 30.456701,0.35320479 V 4.591562 h -1.08904 V 0.35320479 Z m 2.77234,1.98435481 v 0.8508156 q 0,0.4686013 -0.04712,0.6885036 -0.04712,0.2172852 -0.201577,0.4083878 -0.154454,0.1884885 -0.397919,0.2801158 -0.240845,0.089007 -0.554992,0.089007 -0.350794,0 -0.594259,-0.075919 Q 31.189707,4.4999348 31.053578,4.3454801 30.920066,4.1884053 30.862472,3.968503 30.804879,3.7459836 30.804879,3.3035619 V 2.4134785 q 0,-0.4843067 0.104715,-0.7565683 0.104716,-0.2722616 0.376977,-0.4371875 0.272259,-0.164926 0.696358,-0.164926 0.356032,0 0.609965,0.1073326 0.256553,0.1047155 0.395302,0.2748786 0.138747,0.1701631 0.188489,0.3507975 0.05236,0.1806343 0.05236,0.5497542 z M 32.171415,2.0757723 q 0,-0.2670244 -0.02879,-0.3350891 -0.02878,-0.070685 -0.123041,-0.070685 -0.09424,0 -0.125658,0.070685 -0.03141,0.068065 -0.03141,0.3350891 v 1.5681128 q 0,0.246082 0.03141,0.3220008 0.03142,0.073302 0.123041,0.073302 0.09424,0 0.123041,-0.068065 0.03141,-0.068065 0.03141,-0.2932041 z"
     id="text3"
     style="font-size:66.6667px;font-family:Impact;-inkscape-font-specification:'Impact, Normal';white-space:pre;display:inline;fill:#000000;fill-opacity:1;stroke:#ffffff;stroke-width:0"
     aria-label="nerdflareslo" /></svg>
