<?xml version="1.0" encoding="UTF-8"?>
<svg id="Ebene_2" data-name="Ebene 2" xmlns="http://www.w3.org/2000/svg" viewBox="0 0 227.03 63.7">
  <defs>
    <style>
      .cls-1 {
        fill: #fff;
      }
    </style>
  </defs>
  <g id="Ebene_1-2" data-name="Ebene 1">
    <g>
      <g>
        <path class="cls-1" d="M58.99,28.46c-.94,0-1.36-.44-1.38-1.2,0-.34.08-.56.08-1.08l-.98-7.56c-1.5,2.68-4.08,7.48-4.1,7.64-.06.74-.8,1.34-1.54,1.34-.6,0-1.22-.42-1.44-1.48-.56-2.7-1.6-5.26-2.56-7.82-.5,2.8-1.28,7.46-1.28,8.06,0,.06.02.16.02.22,0,1.04-.74,1.46-1.44,1.46-.64,0-1.24-.38-1.24-1.1,0-.36.14-.78.5-1.3.08-.1,1-6.26,1.12-7,.16-.96.46-1.92.46-2.9,0-.84.08-.86.56-1.4.3-.34.72-.82,1.22-.82.1,0,.18,0,.3.06.58.24,2.36,5.6,2.68,6.4.54,1.38,1.02,2.8,1.38,3.98,1.66-3,3.22-6,4.92-9,.26-.48.66-.74,1.24-.74,1.16,0,1.32,1.02,1.4,2.52.06,1.34.16,3.5.68,6.66.16,1,.48,2.38.48,3.1,0,1.12-.28,1.96-1.08,1.96Z"/>
        <path class="cls-1" d="M63.46,27.56c-1.6,0-2.52-1.76-2.52-3.3,0-1.88,1.8-5.24,3.98-5.24,1.86,0,3.02,1.96,3.02,3.74,0,2.84-2.62,4.8-4.48,4.8ZM65.18,21.2c-1,0-2.16,2.14-2.16,3.04,0,.28.12,1.26.62,1.26,1.24,0,2.28-1.82,2.28-2.94,0-.46-.18-1.36-.74-1.36Z"/>
        <path class="cls-1" d="M76.97,20.68c-.72.62-3.6,5.1-3.88,5.7-.36.76-.98,1.3-1.56,1.3-.44,0-.84-.3-1.1-1-.5-1.34-.6-2.98-1.1-4.28-.14-.38-.48-1.06-.48-1.62,0-.44.32-.86.82-.86.7,0,1.38.9,1.66,1.8.26.9.2,1.14.5,2.34l.04.14c.42-.56,3.94-5.44,3.96-5.5.38-.88.9-1.24,1.36-1.24.52,0,.94.48.94,1.18,0,.6-.32,1.34-1.16,2.04Z"/>
        <path class="cls-1" d="M86.03,24.74c-.18.12-.6.46-.8.6-1.24.84-2.9,2.26-4.72,2.26s-3.36-2.02-3.36-3.92c0-2.7,2.96-4.5,5.58-4.5,1.12,0,1.96.36,1.96,1.04,0,.2-.08.56-.38.92-1.22,1.46-3.42,2.5-4.96,2.52v.12c0,.78.56,1.82,1.46,1.84,1.18-.04,3.4-1.88,3.66-2.22.32-.42.6-.9,1.1-.9.54,0,1.14.54,1.14,1.1,0,.48-.38.96-.68,1.14ZM81.1,21.14c-.76.32-1.18.7-1.14.7,1.42-.18,2.12-.74,2.52-1.04-.14,0-.74.08-1.38.34Z"/>
        <path class="cls-1" d="M102.8,20.04c-.24,0-.5-.06-.66-.06-.9,0-1.74.18-2.42.32-.14,1.2-.38,3.56-.38,5.08,0,.86.14,1.36.14,1.56,0,.68-.46,1-.96,1-.62,0-1.34-.52-1.34-1.5,0-1.44.02-2.1.4-5.64-.62.2-.76.38-1.4.84-.18.12-.4.18-.58.18-.6,0-1.14-.56-1.14-1.14,0-.3.12-.6.44-.86.56-.46,2.22-1.04,3-1.26.1-.56.38-1.94.38-3.08,0-.28-.02-.56-.02-.8,0-.62.16-1.32.98-1.32.86,0,1.1,1,1.1,2.1s-.22,2.24-.3,2.72c.58-.08,1.1-.12,1.64-.12.26,0,.52,0,.82.02.86.06,1.26.58,1.26,1.08,0,.44-.34.86-.96.88Z"/>
        <path class="cls-1" d="M110.76,27.62c-.56,0-1.16-.44-1.16-1.62,0-.88.16-2,.16-3.14,0-.4,0-1.64-.52-1.64-1,0-2.58,2.12-3.04,3.08-.3.58-.36,1.2-.36,1.64,0,.28.06.58.06.96,0,1.02-.64,1.48-1.28,1.48-.6,0-1.18-.42-1.18-1.16,0-.52.32-.96.34-1.5.1-2.58.1-4.38.34-6.6.18-1.54.22-2.7.3-3.46.14-1.22.7-1.7,1.22-1.7.56,0,1.08.52,1.08,1.34,0,.76-.28,1.68-.42,2.94-.1,1.06-.2,2.12-.28,3.16,1.06-1,2.36-2.26,3.62-2.26,2.04,0,2.16,3.7,2.16,5.32,0,.48-.04.88-.04,1.3,0,.46.04.7.04.9-.04.6-.52.96-1.04.96Z"/>
        <path class="cls-1" d="M121.79,24.74c-.18.12-.6.46-.8.6-1.24.84-2.9,2.26-4.72,2.26s-3.36-2.02-3.36-3.92c0-2.7,2.96-4.5,5.58-4.5,1.12,0,1.96.36,1.96,1.04,0,.2-.08.56-.38.92-1.22,1.46-3.42,2.5-4.96,2.52v.12c0,.78.56,1.82,1.46,1.84,1.18-.04,3.4-1.88,3.66-2.22.32-.42.6-.9,1.1-.9.54,0,1.14.54,1.14,1.1,0,.48-.38.96-.68,1.14ZM116.86,21.14c-.76.32-1.18.7-1.14.7,1.42-.18,2.12-.74,2.52-1.04-.14,0-.74.08-1.38.34Z"/>
        <path class="cls-1" d="M125.36,29.14c-.48,0-1.16-.38-1.16-1,0-.18.06-.4.24-.64.22-.34,2.46-1.12,2.46-1.3,0-.42-4.1-.5-4.1-3.54,0-2.2,1.88-3.86,3.34-5.08.28-.24.72-.38,1.08-.38.76,0,1.82.5,1.82,1.42,0,.42-.2.8-.8.8-.3,0-.46-.08-.72-.2-.86.2-2.64,2.52-2.64,3.46,0,1.48,4.2,1.08,4.2,3.58,0,1.06-2.78,2.88-3.72,2.88Z"/>
        <path class="cls-1" d="M138.52,24.74c-.18.12-.6.46-.8.6-1.24.84-2.9,2.26-4.72,2.26s-3.36-2.02-3.36-3.92c0-2.7,2.96-4.5,5.58-4.5,1.12,0,1.96.36,1.96,1.04,0,.2-.08.56-.38.92-1.22,1.46-3.42,2.5-4.96,2.52v.12c0,.78.56,1.82,1.46,1.84,1.18-.04,3.4-1.88,3.66-2.22.32-.42.6-.9,1.1-.9.54,0,1.14.54,1.14,1.1,0,.48-.38.96-.68,1.14ZM133.6,21.14c-.76.32-1.18.7-1.14.7,1.42-.18,2.12-.74,2.52-1.04-.14,0-.74.08-1.38.34Z"/>
        <path class="cls-1" d="M150.04,27.56c-1.6,0-2.52-1.76-2.52-3.3,0-1.88,1.8-5.24,3.98-5.24,1.86,0,3.02,1.96,3.02,3.74,0,2.84-2.62,4.8-4.48,4.8ZM151.76,21.2c-1,0-2.16,2.14-2.16,3.04,0,.28.12,1.26.62,1.26,1.24,0,2.28-1.82,2.28-2.94,0-.46-.18-1.36-.74-1.36Z"/>
        <path class="cls-1" d="M163.54,20.68c-.72.62-3.6,5.1-3.88,5.7-.36.76-.98,1.3-1.56,1.3-.44,0-.84-.3-1.1-1-.5-1.34-.6-2.98-1.1-4.28-.14-.38-.48-1.06-.48-1.62,0-.44.32-.86.82-.86.7,0,1.38.9,1.66,1.8.26.9.2,1.14.5,2.34l.04.14c.42-.56,3.94-5.44,3.96-5.5.38-.88.9-1.24,1.36-1.24.52,0,.94.48.94,1.18,0,.6-.32,1.34-1.16,2.04Z"/>
        <path class="cls-1" d="M172.6,24.74c-.18.12-.6.46-.8.6-1.24.84-2.9,2.26-4.72,2.26s-3.36-2.02-3.36-3.92c0-2.7,2.96-4.5,5.58-4.5,1.12,0,1.96.36,1.96,1.04,0,.2-.08.56-.38.92-1.22,1.46-3.42,2.5-4.96,2.52v.12c0,.78.56,1.82,1.46,1.84,1.18-.04,3.4-1.88,3.66-2.22.32-.42.6-.9,1.1-.9.54,0,1.14.54,1.14,1.1,0,.48-.38.96-.68,1.14ZM167.68,21.14c-.76.32-1.18.7-1.14.7,1.42-.18,2.12-.74,2.52-1.04-.14,0-.74.08-1.38.34Z"/>
        <path class="cls-1" d="M181.26,20.94c-.26,0-.42-.14-.6-.14-.68,0-2.54,2.1-3.86,4-.58.82-.3,2.16-.72,2.66-.22.28-.54.42-.88.42-.58,0-1.16-.46-1.16-1.44,0-.86.36-1.4.36-3.74,0-.9-.1-1.76-.38-2.52-.04-.12-.06-.22-.06-.32,0-.54.54-.92,1.1-.92.6,0,1.24.42,1.32,1.5.04.36.02.86.04,1.56.82-.92,2.1-2.34,3.02-2.82.4-.22.8-.38,1.26-.38.82,0,1.64.46,1.64,1.26,0,.5-.58.88-1.08.88Z"/>
        <path class="cls-1" d="M51.4,52.62c-.56,0-1.16-.44-1.16-1.62,0-.88.16-2,.16-3.14,0-.4,0-1.64-.52-1.64-1,0-2.58,2.12-3.04,3.08-.3.58-.36,1.2-.36,1.64,0,.28.06.58.06.96,0,1.02-.64,1.48-1.28,1.48-.6,0-1.18-.42-1.18-1.16,0-.52.32-.96.34-1.5.1-2.58.1-4.38.34-6.6.18-1.54.22-2.7.3-3.46.14-1.22.7-1.7,1.22-1.7.56,0,1.08.52,1.08,1.34,0,.76-.28,1.68-.42,2.94-.1,1.06-.2,2.12-.28,3.16,1.06-1,2.36-2.26,3.62-2.26,2.04,0,2.16,3.7,2.16,5.32,0,.48-.04.88-.04,1.3,0,.46.04.7.04.9-.04.6-.52.96-1.04.96Z"/>
        <path class="cls-1" d="M62.42,49.74c-.18.12-.6.46-.8.6-1.24.84-2.9,2.26-4.72,2.26s-3.36-2.02-3.36-3.92c0-2.7,2.96-4.5,5.58-4.5,1.12,0,1.96.36,1.96,1.04,0,.2-.08.56-.38.92-1.22,1.46-3.42,2.5-4.96,2.52v.12c0,.78.56,1.82,1.46,1.84,1.18-.04,3.4-1.88,3.66-2.22.32-.42.6-.9,1.1-.9.54,0,1.14.54,1.14,1.1,0,.48-.38.96-.68,1.14ZM57.49,46.14c-.76.32-1.18.7-1.14.7,1.42-.18,2.12-.74,2.52-1.04-.14,0-.74.08-1.38.34Z"/>
        <path class="cls-1" d="M71.07,45.94c-.26,0-.42-.14-.6-.14-.68,0-2.54,2.1-3.86,4-.58.82-.3,2.16-.72,2.66-.22.28-.54.42-.88.42-.58,0-1.16-.46-1.16-1.44,0-.86.36-1.4.36-3.74,0-.9-.1-1.76-.38-2.52-.04-.12-.06-.22-.06-.32,0-.54.54-.92,1.1-.92.6,0,1.24.42,1.32,1.5.04.36.02.86.04,1.56.82-.92,2.1-2.34,3.02-2.82.4-.22.8-.38,1.26-.38.82,0,1.64.46,1.64,1.26,0,.5-.58.88-1.08.88Z"/>
        <path class="cls-1" d="M80.12,49.74c-.18.12-.6.46-.8.6-1.24.84-2.9,2.26-4.72,2.26s-3.36-2.02-3.36-3.92c0-2.7,2.96-4.5,5.58-4.5,1.12,0,1.96.36,1.96,1.04,0,.2-.08.56-.38.92-1.22,1.46-3.42,2.5-4.96,2.52v.12c0,.78.56,1.82,1.46,1.84,1.18-.04,3.4-1.88,3.66-2.22.32-.42.6-.9,1.1-.9.54,0,1.14.54,1.14,1.1,0,.48-.38.96-.68,1.14ZM75.19,46.14c-.76.32-1.18.7-1.14.7,1.42-.18,2.12-.74,2.52-1.04-.14,0-.74.08-1.38.34Z"/>
        <path class="cls-1" d="M96.47,40.72c-.64,0-.88-.46-1.42-.46-1.46,0-1.66,3.82-1.66,5.92.56-.04,1.08-.04,1.62-.06.4-.02.74-.14,1.04-.14.54,0,.86.62.86,1.16s-.4,1.08-1.32,1.12c-1.1.04-1.6,0-2.16.06,0,1.56-.06,3.08-.26,4.56-.2,1.56-.44,3.06-.7,4.6-.06.44-.08.9-.26,1.3-.18.38-.56.54-.9.54-.6,0-1.26-.58-1.26-1.3,0-.26.1-.56.34-.86,0,0,.48-1.74.78-4.36.18-1.68.22-2.58.22-3.74-.3.32-.64.58-.98.58-.6,0-1.06-.56-1.06-1.2,0-.92,1.18-1.6,2.04-1.88,0-.2.02-.46.02-.68,0-6.04,1.9-7.64,3.8-7.64.88,0,2.14.36,2.14,1.48,0,.48-.34,1-.88,1Z"/>
        <path class="cls-1" d="M99.25,52.56c-1.6,0-2.52-1.76-2.52-3.3,0-1.88,1.8-5.24,3.98-5.24,1.86,0,3.02,1.96,3.02,3.74,0,2.84-2.62,4.8-4.48,4.8ZM100.97,46.2c-1,0-2.16,2.14-2.16,3.04,0,.28.12,1.26.62,1.26,1.24,0,2.28-1.82,2.28-2.94,0-.46-.18-1.36-.74-1.36Z"/>
        <path class="cls-1" d="M112.17,45.94c-.26,0-.42-.14-.6-.14-.68,0-2.54,2.1-3.86,4-.58.82-.3,2.16-.72,2.66-.22.28-.54.42-.88.42-.58,0-1.16-.46-1.16-1.44,0-.86.36-1.4.36-3.74,0-.9-.1-1.76-.38-2.52-.04-.12-.06-.22-.06-.32,0-.54.54-.92,1.1-.92.6,0,1.24.42,1.32,1.5.04.36.02.86.04,1.56.82-.92,2.1-2.34,3.02-2.82.4-.22.8-.38,1.26-.38.82,0,1.64.46,1.64,1.26,0,.5-.58.88-1.08.88Z"/>
        <path class="cls-1" d="M126.61,52.26c-.1.18-.32.26-.58.26-.3,0-.64-.12-.86-.34-.56.28-1.3.62-2.02.62-1.1,0-1.9-.9-1.9-2,0-1.54,1.42-3.2,2.86-3.2.48,0,.96.18,1.38.64,0-.72-.28-2.52-1.28-2.52-.34,0-.64.22-.66.3-.06.38-.36.56-.72.56-.46,0-1.02-.36-1.02-.92,0-1.18,1.34-1.76,2.54-1.76,2.16,0,3.2,2.16,3.2,4.18,0,1.88-.68,3.78-.94,4.18ZM124.23,49.56c-.5,0-1.02.6-1.02,1.2,0,.12.06.18.16.18.32,0,1.02-.52,1.2-.64-.1-.32-.16-.74-.34-.74Z"/>
        <path class="cls-1" d="M144.41,45.04c-.24,0-.5-.06-.66-.06-.9,0-1.74.18-2.42.32-.14,1.2-.38,3.56-.38,5.08,0,.86.14,1.36.14,1.56,0,.68-.46,1-.96,1-.62,0-1.34-.52-1.34-1.5,0-1.44.02-2.1.4-5.64-.62.2-.76.38-1.4.84-.18.12-.4.18-.58.18-.6,0-1.14-.56-1.14-1.14,0-.3.12-.6.44-.86.56-.46,2.22-1.04,3-1.26.1-.56.38-1.94.38-3.08,0-.28-.02-.56-.02-.8,0-.62.16-1.32.98-1.32.86,0,1.1,1,1.1,2.1s-.22,2.24-.3,2.72c.58-.08,1.1-.12,1.64-.12.26,0,.52,0,.82.02.86.06,1.26.58,1.26,1.08,0,.44-.34.86-.96.88Z"/>
        <path class="cls-1" d="M152.91,45.94c-.26,0-.42-.14-.6-.14-.68,0-2.54,2.1-3.86,4-.58.82-.3,2.16-.72,2.66-.22.28-.54.42-.88.42-.58,0-1.16-.46-1.16-1.44,0-.86.36-1.4.36-3.74,0-.9-.1-1.76-.38-2.52-.04-.12-.06-.22-.06-.32,0-.54.54-.92,1.1-.92.6,0,1.24.42,1.32,1.5.04.36.02.86.04,1.56.82-.92,2.1-2.34,3.02-2.82.4-.22.8-.38,1.26-.38.82,0,1.64.46,1.64,1.26,0,.5-.58.88-1.08.88Z"/>
        <path class="cls-1" d="M161.95,49.74c-.18.12-.6.46-.8.6-1.24.84-2.9,2.26-4.72,2.26s-3.36-2.02-3.36-3.92c0-2.7,2.96-4.5,5.58-4.5,1.12,0,1.96.36,1.96,1.04,0,.2-.08.56-.38.92-1.22,1.46-3.42,2.5-4.96,2.52v.12c0,.78.56,1.82,1.46,1.84,1.18-.04,3.4-1.88,3.66-2.22.32-.42.6-.9,1.1-.9.54,0,1.14.54,1.14,1.1,0,.48-.38.96-.68,1.14ZM157.03,46.14c-.76.32-1.18.7-1.14.7,1.42-.18,2.12-.74,2.52-1.04-.14,0-.74.08-1.38.34Z"/>
        <path class="cls-1" d="M168.49,52.26c-.1.18-.32.26-.58.26-.3,0-.64-.12-.86-.34-.56.28-1.3.62-2.02.62-1.1,0-1.9-.9-1.9-2,0-1.54,1.42-3.2,2.86-3.2.48,0,.96.18,1.38.64,0-.72-.28-2.52-1.28-2.52-.34,0-.64.22-.66.3-.06.38-.36.56-.72.56-.46,0-1.02-.36-1.02-.92,0-1.18,1.34-1.76,2.54-1.76,2.16,0,3.2,2.16,3.2,4.18,0,1.88-.68,3.78-.94,4.18ZM166.11,49.56c-.5,0-1.02.6-1.02,1.2,0,.12.06.18.16.18.32,0,1.02-.52,1.2-.64-.1-.32-.16-.74-.34-.74Z"/>
        <path class="cls-1" d="M178.19,45.04c-.24,0-.5-.06-.66-.06-.9,0-1.74.18-2.42.32-.14,1.2-.38,3.56-.38,5.08,0,.86.14,1.36.14,1.56,0,.68-.46,1-.96,1-.62,0-1.34-.52-1.34-1.5,0-1.44.02-2.1.4-5.64-.62.2-.76.38-1.4.84-.18.12-.4.18-.58.18-.6,0-1.14-.56-1.14-1.14,0-.3.12-.6.44-.86.56-.46,2.22-1.04,3-1.26.1-.56.38-1.94.38-3.08,0-.28-.02-.56-.02-.8,0-.62.16-1.32.98-1.32.86,0,1.1,1,1.1,2.1s-.22,2.24-.3,2.72c.58-.08,1.1-.12,1.64-.12.26,0,.52,0,.82.02.86.06,1.26.58,1.26,1.08,0,.44-.34.86-.96.88Z"/>
        <path class="cls-1" d="M178.83,52.98c-.68,0-1.18-.54-1.18-1.08,0-.64.58-1.42,1.3-1.42.58,0,1.16.48,1.16,1.28,0,.62-.74,1.22-1.28,1.22Z"/>
      </g>
      <path class="cls-1" d="M29.02,34.41c-2.13-.47-3.17-.8-4.4-1.23-.61-.25-1.29-.45-2.11-.85-.84-.37-1.86-.86-3.13-1.64-1.26-.76-3.55-2.19-5.56-4.54-2.04-2.31-3.54-5.66-4.05-9.08-.52-3.2-.29-6.36.09-8.74,1.7,3.77,2.91,6.95,2.91,6.95.32.84,1.4,1.38,2.34,1.01.96-.33,1.42-1.46,1.08-2.33,0,0-1.55-4.15-3.72-8.6-.27-.55-.55-1.12-.83-1.68l-.64-1.25c-.29-.5-.53-1.17-.87-1.42l-.48-.5-.24-.25c-.08-.04-.16-.08-.24-.11-.3-.14-.87-.2-1.24-.1-.38.09-.67.25-1.01.53-.34.27-.65.75-.92,1.21-.27.43-.53.86-.79,1.27-.14.23-.27.45-.4.67-.25.43-.49.84-.71,1.22-.43.76-.78,1.4-1.01,1.87C1.29,10.56,1.33,10.57.02,13.14c-.15.29.81.9,1.01.65,1.79-2.28,1.82-2.27,4.45-5.45.23-.28.51-.64.83-1.07-.46,2.69-.79,6.43-.11,10.38.34,1.98.93,3.99,1.81,5.84.87,1.85,2.02,3.52,3.28,4.88,2.52,2.73,5.29,4.21,6.82,4.83,1.55.64,2.73.99,3.7,1.24.95.28,1.7.38,2.37.53,1.35.24,2.46.42,4.68.63.5.05.65-1.08.18-1.19Z"/>
      <path class="cls-1" d="M227.01,6.38c-.04-.84-.04-1.27-.22-3.46-.02-.47-.11-.92-.26-1.25-.16-.34-.32-.57-.54-.79-.2-.21-.62-.44-.95-.49-.17-.02-.28-.07-.46-.02l-.54.13c-.18.05-.36.07-.55.14l-.63.43c-.42.29-.85.58-1.27.9-.49.36-.97.72-1.45,1.07-3.44,2.57-6.28,5.17-6.28,5.17-.69.61-.81,1.84-.1,2.57.67.76,1.88.77,2.54.18,0,0,1.94-1.74,4.5-3.81-.02.06-.03.11-.05.17-.73,2.55-2.04,5.95-4.03,9.22-1.97,3.28-4.6,6.36-7.21,8.66-2.6,2.32-5.1,3.91-6.48,4.78-2.78,1.75-4.31,2.41-5.59,2.97-1.29.55-2.36.97-4.61,1.58-.5.14-.3,1.26.24,1.18,2.38-.36,3.57-.66,4.99-1.02,1.42-.39,3.11-.82,6.3-2.22,1.59-.71,4.39-2.26,7.32-4.69,2.94-2.4,5.91-5.75,8.11-9.32,2.18-3.49,3.63-7.14,4.44-9.93.83,3.49.87,3.48,1.39,5.92.06.28,1.19.16,1.19-.12.03-2.51.06-2.52.22-6.1.02-.45.01-1.07-.02-1.83Z"/>
    </g>
  </g>
</svg>