<?xml version="1.0" encoding="UTF-8" standalone="no"?>
<!-- Created with Inkscape (http://www.inkscape.org/) -->

<svg
   width="194.85988mm"
   height="177.14604mm"
   viewBox="0 0 194.85988 177.14604"
   version="1.1"
   id="svg1"
   xml:space="preserve"
   sodipodi:docname="DX hackathon_nerdflare.svg"
   inkscape:version="1.4 (e7c3feb1, 2024-10-09)"
   xmlns:inkscape="http://www.inkscape.org/namespaces/inkscape"
   xmlns:sodipodi="http://sodipodi.sourceforge.net/DTD/sodipodi-0.dtd"
   xmlns="http://www.w3.org/2000/svg"
   xmlns:svg="http://www.w3.org/2000/svg"><sodipodi:namedview
     id="namedview1"
     pagecolor="#ffffff"
     bordercolor="#000000"
     borderopacity="0.25"
     inkscape:showpageshadow="2"
     inkscape:pageopacity="0.0"
     inkscape:pagecheckerboard="0"
     inkscape:deskcolor="#d1d1d1"
     inkscape:document-units="mm"
     inkscape:zoom="0.25642811"
     inkscape:cx="906.68686"
     inkscape:cy="335.37665"
     inkscape:window-width="1792"
     inkscape:window-height="895"
     inkscape:window-x="0"
     inkscape:window-y="44"
     inkscape:window-maximized="0"
     inkscape:current-layer="svg1" /><defs
     id="defs1" /><g
     id="layer4"
     transform="translate(-291.21746,-0.13165985)"
     style="display:inline"><path
       style="font-size:45.8611px;font-family:Impact;-inkscape-font-specification:'Impact, Normal';display:inline;stroke-width:0.3"
       d="m 312.30979,140.48581 v 36.25445 h -8.26306 l -4.90409,-16.48133 v 16.48133 h -7.88238 v -36.25445 h 7.88238 l 5.28478,16.32458 v -16.32458 z m 24.00542,21.92286 h -11.7116 v 6.42683 q 0,2.01538 0.29111,2.5976 0.29111,0.58222 1.11966,0.58222 1.03008,0 1.36598,-0.76137 0.35829,-0.78376 0.35829,-3.00068 v -3.91879 h 8.57656 v 2.19452 q 0,2.75436 -0.35829,4.2323 -0.33589,1.47795 -1.6123,3.15743 -1.27641,1.67949 -3.247,2.53042 -1.94821,0.82855 -4.9041,0.82855 -2.86632,0 -5.06084,-0.82855 -2.19453,-0.82854 -3.42615,-2.2617 -1.20923,-1.45555 -1.67948,-3.17982 -0.47026,-1.74667 -0.47026,-5.06085 v -8.66613 q 0,-3.8964 1.05248,-6.13572 1.05248,-2.2617 3.44854,-3.44854 2.39606,-1.20922 5.50871,-1.20922 3.80683,0 6.27007,1.45555 2.48563,1.43316 3.47093,3.82922 1.00769,2.37367 1.00769,6.69554 z m -9.06921,-4.83691 v -2.17213 q 0,-2.30649 -0.24632,-2.97829 -0.24633,-0.67179 -1.00769,-0.67179 -0.94052,0 -1.16445,0.58222 -0.22393,0.55983 -0.22393,3.06786 v 2.17213 z m 21.07192,-10.54716 -0.35829,3.8964 q 1.9706,-4.18751 5.71025,-4.43383 v 10.45758 q -2.48564,0 -3.65008,0.67179 -1.16444,0.6718 -1.43316,1.88103 -0.26872,1.18683 -0.26872,5.5087 v 11.73399 H 339.2711 V 147.0246 Z m 27.94661,-6.53879 v 36.25445 h -9.04682 v -2.14973 q -1.2988,1.34358 -2.73196,2.01538 -1.43316,0.67179 -3.00068,0.67179 -2.10495,0 -3.65007,-1.09726 -1.54513,-1.11966 -1.99299,-2.57521 -0.42547,-1.45555 -0.42547,-4.74734 v -13.90613 q 0,-3.42614 0.42547,-4.8593 0.44786,-1.43316 2.01538,-2.50803 1.56752,-1.09726 3.73965,-1.09726 1.67948,0 3.06786,0.60461 1.41076,0.60461 2.55281,1.81384 v -8.41981 z m -9.04682,14.01809 q 0,-1.6347 -0.29111,-2.19452 -0.26872,-0.55983 -1.09726,-0.55983 -0.80615,0 -1.09727,0.51504 -0.26871,0.49265 -0.26871,2.23931 v 14.55553 q 0,1.81384 0.26871,2.39606 0.26872,0.55983 1.03009,0.55983 0.87333,0 1.16444,-0.62701 0.29111,-0.6494 0.29111,-3.13504 z m 12.56254,-14.01809 h 15.96629 v 7.25537 h -6.53879 v 6.87469 h 5.82221 v 6.89708 h -5.82221 v 15.22731 h -9.4275 z m 27.2972,0 v 36.25445 h -9.31553 v -36.25445 z m 11.33092,18.04885 h -8.48699 v -1.99298 q 0,-3.44854 0.78376,-5.30717 0.80615,-1.88102 3.20221,-3.31418 2.39607,-1.43316 6.22529,-1.43316 4.59059,0 6.91947,1.63469 2.32889,1.61231 2.79914,3.98598 0.47026,2.35128 0.47026,9.71861 v 14.91381 h -8.8005 v -2.64238 q -0.82854,1.58991 -2.14974,2.39606 -1.2988,0.78376 -3.11264,0.78376 -2.37367,0 -4.36666,-1.32119 -1.97059,-1.34359 -1.97059,-5.84461 v -2.44085 q 0,-3.33657 1.05248,-4.5458 1.05247,-1.20923 5.21759,-2.82153 4.45623,-1.74666 4.76973,-2.35128 0.31351,-0.60461 0.31351,-2.46324 0,-2.32889 -0.35829,-3.02307 -0.3359,-0.71658 -1.14205,-0.71658 -0.91812,0 -1.14205,0.60461 -0.22393,0.58222 -0.22393,3.06786 z m 2.86632,4.07555 q -2.17213,1.58991 -2.53042,2.66478 -0.3359,1.07487 -0.3359,3.09025 0,2.30649 0.29111,2.97828 0.3135,0.6718 1.20923,0.6718 0.85094,0 1.09726,-0.51504 0.26872,-0.53744 0.26872,-2.77675 z m 21.20629,-15.58561 -0.35829,3.8964 q 1.97059,-4.18751 5.71024,-4.43383 v 10.45758 q -2.48563,0 -3.65008,0.67179 -1.16444,0.6718 -1.43316,1.88103 -0.26871,1.18683 -0.26871,5.5087 v 11.73399 h -9.04682 V 147.0246 Z m 27.85703,15.38407 h -11.7116 v 6.42683 q 0,2.01538 0.29111,2.5976 0.29111,0.58222 1.11966,0.58222 1.03008,0 1.36598,-0.76137 0.35829,-0.78376 0.35829,-3.00068 v -3.91879 h 8.57656 v 2.19452 q 0,2.75436 -0.35829,4.2323 -0.33589,1.47795 -1.6123,3.15743 -1.27641,1.67949 -3.247,2.53042 -1.9482,0.82855 -4.9041,0.82855 -2.86631,0 -5.06084,-0.82855 -2.19453,-0.82854 -3.42615,-2.2617 -1.20922,-1.45555 -1.67948,-3.17982 -0.47026,-1.74667 -0.47026,-5.06085 v -8.66613 q 0,-3.8964 1.05248,-6.13572 1.05248,-2.2617 3.44854,-3.44854 2.39606,-1.20922 5.50871,-1.20922 3.80683,0 6.27007,1.45555 2.48563,1.43316 3.47093,3.82922 1.00769,2.37367 1.00769,6.69554 z m -9.06921,-4.83691 v -2.17213 q 0,-2.30649 -0.24632,-2.97829 -0.24633,-0.67179 -1.00769,-0.67179 -0.94051,0 -1.16445,0.58222 -0.22393,0.55983 -0.22393,3.06786 v 2.17213 z"
       id="text16"
       aria-label="NerdFlare" /><path
       style="font-size:10.5833px;font-family:Impact;-inkscape-font-specification:'Impact, Normal';display:inline;stroke-width:0.3"
       d="m 295.8942,134.56589 h -1.96887 v -0.79065 q 0,-0.41341 -0.0672,-0.5581 -0.0672,-0.14986 -0.24805,-0.14986 -0.18087,0 -0.24288,0.12919 -0.062,0.12919 -0.062,0.57877 v 3.23494 q 0,0.3669 0.093,0.55293 0.093,0.18087 0.27388,0.18087 0.21187,0 0.28422,-0.1912 0.0775,-0.1912 0.0775,-0.72347 v -0.81648 h 1.86035 q -0.005,0.82165 -0.062,1.23506 -0.0517,0.40824 -0.34623,0.84232 -0.28939,0.42892 -0.75964,0.65112 -0.47026,0.21704 -1.16272,0.21704 -0.88366,0 -1.40043,-0.29972 -0.51676,-0.30489 -0.7338,-0.84749 -0.21187,-0.54777 -0.21187,-1.55029 v -1.94819 q 0,-0.87333 0.1757,-1.31775 0.1757,-0.44441 0.7493,-0.79064 0.57361,-0.3514 1.39526,-0.3514 0.81649,0 1.39526,0.34623 0.57878,0.34623 0.76998,0.87333 0.1912,0.52709 0.1912,1.49344 z m 2.48563,0.0672 h -1.95853 v -0.45992 q 0,-0.79581 0.18087,-1.22473 0.18603,-0.43408 0.73897,-0.76481 0.55293,-0.33072 1.4366,-0.33072 1.05936,0 1.59679,0.37723 0.53744,0.37207 0.64596,0.91984 0.10852,0.5426 0.10852,2.24275 v 3.44164 h -2.03088 v -0.60978 q -0.1912,0.3669 -0.49609,0.55294 -0.29973,0.18086 -0.7183,0.18086 -0.54777,0 -1.00769,-0.30489 -0.45475,-0.31005 -0.45475,-1.34875 v -0.56327 q 0,-0.76997 0.24288,-1.04903 0.24288,-0.27905 1.20405,-0.65112 1.02836,-0.40307 1.10071,-0.5426 0.0723,-0.13952 0.0723,-0.56844 0,-0.53743 -0.0827,-0.69763 -0.0775,-0.16536 -0.26355,-0.16536 -0.21187,0 -0.26355,0.13953 -0.0517,0.13435 -0.0517,0.70796 z m 0.66145,0.94051 q -0.50125,0.3669 -0.58394,0.61495 -0.0775,0.24804 -0.0775,0.71313 0,0.53226 0.0672,0.68729 0.0723,0.15503 0.27905,0.15503 0.19637,0 0.25321,-0.11885 0.062,-0.12403 0.062,-0.64079 z m 4.95576,-5.10562 v 8.36639 h -2.14973 v -8.36639 z m 4.73871,1.50895 -0.0362,0.60461 q 0.27905,-0.3669 0.61495,-0.54777 0.33589,-0.18086 0.7338,-0.18086 0.48576,0 0.83716,0.26355 0.35656,0.25838 0.44441,0.59944 0.0879,0.34106 0.0879,1.15755 v 2.8887 q 0,0.93534 -0.11369,1.33325 -0.10852,0.39274 -0.45475,0.63045 -0.34106,0.23254 -0.82682,0.23254 -0.38757,0 -0.7183,-0.18086 -0.33073,-0.18087 -0.60461,-0.53744 v 1.57096 h -2.08772 v -7.83412 z m 0.59428,1.9947 q 0,-0.63561 -0.0465,-0.76997 -0.0465,-0.13436 -0.25838,-0.13436 -0.20671,0 -0.26872,0.15503 -0.0568,0.15503 -0.0568,0.7493 v 2.8422 q 0,0.62011 0.062,0.77514 0.062,0.15503 0.26872,0.15503 0.20153,0 0.24804,-0.13952 0.0517,-0.1447 0.0517,-0.69247 z m 7.49823,0.41341 v 1.67948 q 0,0.92501 -0.093,1.35909 -0.093,0.42891 -0.39791,0.80615 -0.30489,0.37207 -0.78548,0.55293 -0.47542,0.1757 -1.09553,0.1757 -0.69247,0 -1.17306,-0.14986 -0.48058,-0.15503 -0.7493,-0.45992 -0.26355,-0.31005 -0.37724,-0.74413 -0.11369,-0.43925 -0.11369,-1.31258 v -1.75699 q 0,-0.95602 0.20671,-1.49345 0.2067,-0.53743 0.74414,-0.86299 0.53743,-0.32556 1.37459,-0.32556 0.70279,0 1.20405,0.21187 0.50643,0.2067 0.78032,0.5426 0.27388,0.3359 0.37206,0.69246 0.10336,0.35657 0.10336,1.0852 z m -2.08772,-0.51676 q 0,-0.5271 -0.0568,-0.66145 -0.0568,-0.13953 -0.24288,-0.13953 -0.18603,0 -0.24804,0.13953 -0.062,0.13435 -0.062,0.66145 v 3.09541 q 0,0.48576 0.062,0.63562 0.062,0.14469 0.24288,0.14469 0.18603,0 0.24287,-0.13436 0.062,-0.13436 0.062,-0.57877 z m 4.92474,-3.4003 v 8.36639 h -2.14973 v -8.36639 z m 5.12112,1.50895 -0.59944,4.96092 q -0.13953,1.17822 -0.23771,1.60713 -0.093,0.42892 -0.31523,0.70797 -0.22221,0.27905 -0.62011,0.40824 -0.39274,0.13436 -1.26091,0.13436 h -1.26606 v -1.09554 q 0.48575,0 0.62528,-0.0465 0.13953,-0.0517 0.13953,-0.2222 0,-0.0827 -0.1292,-0.7183 l -1.14204,-5.73607 h 1.89652 l 0.68212,4.62503 0.33073,-4.62503 z"
       id="text17"
       transform="translate(-1.2085561e-6)"
       aria-label="cal poly" /><path
       d="m 325.68481,130.37089 q 0.3545,0 0.58291,0.23564 0.22944,0.23565 0.22944,0.55604 0,0.3266 -0.23254,0.55914 -0.23255,0.23254 -0.55914,0.23254 -0.32866,0 -0.56018,-0.23151 -0.23151,-0.23254 -0.23151,-0.56017 0,-0.23048 0.12196,-0.42271 0.12299,-0.19327 0.30696,-0.28112 0.18397,-0.0879 0.3421,-0.0879 z m 0.0393,0.15399 q -0.29145,0 -0.47232,0.19224 -0.18087,0.19224 -0.18087,0.44545 0,0.26252 0.18707,0.44959 0.18707,0.18706 0.44959,0.18706 0.26148,0 0.44855,-0.18706 0.18707,-0.18707 0.18707,-0.44959 0,-0.18087 -0.094,-0.3328 -0.0941,-0.15296 -0.24185,-0.22841 -0.1478,-0.0765 -0.28319,-0.0765 z m -0.3669,1.0604 v -0.84026 h 0.39791 q 0.14779,0 0.21497,0.0692 0.0672,0.0682 0.0672,0.16847 0,0.0971 -0.0568,0.15606 -0.0558,0.0589 -0.1695,0.0796 0.0517,0.0196 0.0817,0.0537 0.031,0.0331 0.0971,0.1447 l 0.0982,0.16846 h -0.2098 l -0.0703,-0.13539 q -0.063,-0.12092 -0.11162,-0.16433 -0.0476,-0.0444 -0.12506,-0.0444 h -0.0444 v 0.34416 z m 0.1695,-0.47749 h 0.13849 q 0.10439,0 0.1478,-0.0269 0.0444,-0.0279 0.0444,-0.0899 0,-0.0558 -0.0434,-0.0837 -0.0434,-0.0279 -0.13126,-0.0279 h -0.15606 z"
       id="text21"
       style="font-size:2.11667px;font-family:Impact;-inkscape-font-specification:'Impact, Normal'"
       aria-label="®" /></g><g
     id="layer5"
     transform="translate(-291.21746,-0.13165985)"
     style="display:inline"><path
       id="path17"
       style="display:inline;fill:#000000;stroke:none;stroke-width:1;stroke-dasharray:none;stroke-opacity:1"
       d="m 100.74768,81.837202 c -0.0592,0.0042 -0.11837,0.05498 0.0889,2.863391 0.20725,2.808413 0.68078,8.374659 0.90072,11.259261 0.21994,2.884602 0.18617,3.087772 0.11007,3.197738 -0.0761,0.109963 -0.19453,0.126674 -0.64286,-0.05943 -0.44833,-0.186099 -1.226653,-0.575167 -2.69854,-1.353406 -1.471888,-0.77824 -3.63746,-1.945396 -4.783687,-2.550232 -1.146226,-0.60484 -1.273218,-0.647274 -1.391646,-0.655774 -0.118429,-0.0085 -0.22834,0.01684 -0.30024,0.07183 -0.0719,0.05498 -0.1057,0.139701 0.296106,2.605525 0.401806,2.465824 1.239278,7.312785 1.670699,9.897075 0.431379,2.5843 0.456686,2.90551 0.439766,3.10007 -0.01692,0.19452 -0.07611,0.26244 -0.160714,0.28784 -0.0846,0.0254 -0.1946,0.008 -0.296106,-0.0171 -0.101505,-0.0254 -0.194318,-0.059 -5.713863,-3.21841 C 82.746719,104.10619 71.801001,97.820716 66.268652,94.640038 60.736304,91.45936 60.61777,91.383455 60.52895,91.379255 c -0.08882,-0.0042 -0.148061,0.06353 -0.181901,0.15658 -0.03384,0.09305 -0.04233,0.211148 2.131653,2.968811 2.173985,2.757664 6.530279,8.154684 8.776209,10.963154 2.245929,2.80847 2.381457,3.02851 2.440677,3.17655 0.05926,0.14803 0.0425,0.22422 -0.0083,0.27492 -0.05074,0.0508 -0.135633,0.076 -1.865519,-0.0847 -1.729886,-0.16073 -5.104809,-0.5076 -6.834725,-0.63872 -1.729916,-0.13113 -1.81453,-0.0463 -1.8526,0.0594 -0.03807,0.10574 -0.02987,0.23241 2.232939,2.91817 2.262804,2.68576 6.779875,7.9303 9.025805,10.6288 2.245925,2.6985 2.220548,2.85101 2.174028,2.94401 -0.04652,0.093 -0.113848,0.12686 -4.275708,-0.45682 -4.16186,-0.58368 -12.418241,-1.78495 -16.588652,-2.42362 -4.170408,-0.63867 -4.254805,-0.71489 -4.263305,-0.82063 -0.0085,-0.10573 0.05943,-0.24112 0.173632,-0.41031 0.114199,-0.16918 0.274781,-0.37203 1.746664,-1.67896 1.471882,-1.30693 4.254714,-3.71776 5.642033,-4.96973 1.387321,-1.25197 1.378871,-1.3453 1.349271,-1.4087 -0.0296,-0.0634 -0.08032,-0.0964 -7.583516,-0.0884 -7.503199,0.008 -22.458845,0.0588 -29.936674,0.0842 -7.477831,0.0254 -7.477846,0.0256 -7.511686,0.0806 -0.03384,0.055 -0.101284,0.16471 -0.101286,0.24081 -2e-6,0.0761 0.06731,0.11877 3.886584,1.29036 3.819276,1.17158 11.390366,3.47206 15.264702,4.71134 3.874336,1.23928 4.051832,1.41729 4.102592,1.58647 0.05076,0.16918 -0.02541,0.32975 -1.395781,1.63245 -1.370371,1.3027 -4.035037,3.74743 -5.447729,5.05861 -1.412693,1.31118 -1.573489,1.48884 -1.598869,1.62419 -0.02538,0.13535 0.08455,0.22821 2.520776,0.78652 2.436228,0.55831 7.198537,1.58159 9.600965,2.18643 2.402385,0.60483 2.445062,0.79115 2.411222,0.95187 -0.03384,0.16073 -0.143879,0.29614 -4.783687,4.00545 -4.639808,3.70931 -13.809295,10.99237 -18.440735,14.71021 -4.631441,3.71784 -4.724326,3.87015 -4.720126,3.98012 0.0042,0.10997 0.105649,0.17739 0.232544,0.21549 0.126894,0.0381 0.279239,0.0469 4.508769,-1.32344 4.22953,-1.37037 12.536165,-4.1196 16.816545,-5.49423 4.280379,-1.37463 4.53408,-1.37488 4.694804,-1.24799 0.160725,0.12688 0.228238,0.38083 -0.359668,2.07688 -0.587906,1.69605 -1.831398,4.8342 -2.38125,6.44146 -0.549851,1.60725 -0.40599,1.68325 -0.253732,1.72135 0.152258,0.0381 0.313296,0.0382 2.483053,-0.66818 2.169756,-0.70634 6.348162,-2.119 8.534879,-2.81688 2.186717,-0.6979 2.381256,-0.68072 2.495455,-0.60462 0.114168,0.0761 0.148141,0.21153 0.110071,0.3638 -0.03807,0.15226 -0.148181,0.32131 -2.00918,2.96055 -1.860999,2.63923 -5.473018,7.74867 -7.350972,10.36681 -1.877954,2.61814 -2.021627,2.74452 -2.156974,2.76572 -0.135347,0.0212 -0.262125,-0.0635 -1.378728,-2.01331 -1.116603,-1.94982 -3.222881,-5.76449 -4.352189,-7.75664 -1.129308,-1.99215 -1.281621,-2.16157 -1.416967,-2.21227 -0.135346,-0.0508 -0.253695,0.0173 -1.28571,3.87884 -1.032016,3.86157 -2.977384,11.51659 -4.749581,18.49964 -1.772197,6.98305 -3.371331,13.29355 -4.12843,16.46153 -0.757099,3.16796 -0.672267,3.19339 -0.536918,3.18069 0.135349,-0.0127 0.321327,-0.0637 0.486275,-0.14832 0.164948,-0.0846 0.309025,-0.20306 2.461865,-2.83807 2.152839,-2.63501 6.31448,-7.78622 8.505424,-10.48049 2.190944,-2.69427 2.41106,-2.9313 2.601392,-3.0117 0.190332,-0.0804 0.351051,-0.004 0.824756,1.12964 0.473706,1.13352 1.260275,3.32405 1.700154,4.66483 0.439879,1.34079 0.532697,1.83172 0.651123,2.16163 0.118427,0.3299 0.262083,0.49876 0.418579,0.58756 0.156496,0.0888 0.32612,0.0977 0.50798,0.0258 0.181859,-0.0719 0.376144,-0.22447 2.165242,-2.75797 1.789097,-2.53349 5.172734,-7.44818 6.91534,-9.98596 1.742606,-2.53777 1.843997,-2.69855 1.996261,-2.74505 0.152264,-0.0465 0.355668,0.0213 0.486792,0.13126 0.131123,0.10997 0.189973,0.26241 1.023193,3.13004 0.83322,2.86763 2.440697,8.45047 3.286621,11.36468 0.845924,2.91421 0.930373,3.15965 1.036113,3.29076 0.10574,0.13116 0.232359,0.14758 0.355017,0.11368 0.122658,-0.0338 0.241281,-0.11836 1.044897,-1.39991 0.803616,-1.28155 2.292539,-3.75967 3.108855,-5.10046 0.816317,-1.34079 0.960083,-1.54414 1.146183,-1.67949 0.1861,-0.13536 0.414414,-0.2023 0.621667,-0.1943 0.207253,0.008 0.393347,0.0931 2.702678,1.8526 2.309331,1.75949 6.741735,5.19373 9.097636,7.059 2.3559,1.86526 2.635256,2.16141 2.783292,2.37712 0.148036,0.21571 0.164955,0.35098 0.114205,0.46095 -0.05076,0.10997 -0.169363,0.19427 -2.305285,0.56224 -2.135921,0.36797 -6.289393,1.0197 -8.493022,1.35806 -2.203629,0.33837 -2.457241,0.36344 -2.639115,0.42684 -0.181875,0.0634 -0.291818,0.16522 -0.321428,0.26252 -0.02961,0.0973 0.0211,0.19016 6.04821,3.67109 6.027106,3.48093 18.030143,10.34976 24.175785,13.80536 6.145651,3.4556 6.433181,3.49761 6.593911,3.46801 0.16072,-0.0296 0.19498,-0.13093 -2.26239,-2.71095 -2.45737,-2.58001 -7.406268,-7.63855 -9.96942,-10.28206 -2.563153,-2.64352 -2.740667,-2.87201 -2.774507,-3.06234 -0.03384,-0.19033 0.0761,-0.3423 0.207222,-0.44804 0.131117,-0.10574 0.283551,-0.16507 2.351795,-0.45268 2.068245,-0.2876 6.052457,-0.80393 8.175728,-1.10846 2.123272,-0.30453 2.385652,-0.39731 2.533702,-0.49041 0.14804,-0.0931 0.18184,-0.18613 -2.106338,-2.44895 -2.288176,-2.26282 -6.898259,-6.69528 -9.279537,-9.0258 -2.381278,-2.33052 -2.533999,-2.55901 -2.588989,-2.71974 -0.05498,-0.16072 -0.01262,-0.25366 0.08888,-0.32556 0.101501,-0.0719 0.262166,-0.12284 3.277836,0.0295 3.015671,0.15226 8.886215,0.50792 11.910378,0.6475 3.02418,0.1396 3.20208,0.0634 3.30781,-0.017 0.10573,-0.0804 0.13941,-0.16487 -1.68775,-1.99626 -1.82716,-1.83139 -5.515374,-5.40987 -7.439853,-7.29206 -1.92448,-1.88218 -2.084835,-2.06827 -2.144055,-2.22054 -0.05922,-0.15226 -0.01709,-0.27035 0.07596,-0.35915 0.09305,-0.0889 0.236808,-0.14809 2.567285,-0.13539 2.330476,0.0127 6.847653,0.0971 9.250083,0.16485 2.40242,0.0677 2.69006,0.1186 4.50877,0.9772 1.81871,0.8586 5.16812,2.52461 6.93187,3.47627 1.76375,0.95166 1.94163,1.18859 1.97973,1.37046 0.0381,0.18187 -0.0632,0.30886 -1.54358,1.04903 -1.48034,0.74017 -4.33951,2.09385 -5.86217,2.8298 -1.52266,0.73595 -1.70903,0.85413 -1.79783,0.97256 -0.0888,0.11843 -0.0801,0.23674 0.26252,0.37207 0.3426,0.13533 1.01898,0.28785 2.30477,0.46973 1.28579,0.18187 3.18095,0.39316 4.77128,0.55811 1.59032,0.16496 2.87589,0.28328 8.66614,0.94309 5.79026,0.65981 16.08493,1.86114 21.38888,2.44482 5.30395,0.58367 5.61647,0.55006 5.7645,0.49506 0.14802,-0.055 0.13106,-0.13108 -2.79156,-1.51412 -2.92261,-1.38304 -8.75054,-4.073 -11.74088,-5.49838 -2.99034,-1.42538 -3.14282,-1.58613 -3.17242,-1.73839 -0.0296,-0.15227 0.0638,-0.29627 0.76171,-0.72347 0.69788,-0.42719 2.00037,-1.13783 2.98587,-1.75958 0.98549,-0.62175 1.65385,-1.15453 1.98799,-1.47175 0.33414,-0.31722 0.33393,-0.41857 -3.47266,-3.00705 -3.80659,-2.58848 -11.41952,-7.66402 -15.23886,-10.27792 -3.81931,-2.6139 -3.84465,-2.76591 -3.80235,-2.87166 0.0423,-0.10574 0.15218,-0.16533 4.03489,0.40566 3.88272,0.57099 11.53805,1.77224 15.46314,2.35592 3.9251,0.58369 4.11976,0.54976 4.22972,0.46096 0.10995,-0.0888 0.13525,-0.23269 -0.54571,-1.96681 -0.68096,-1.73411 -2.06808,-5.05829 -2.73213,-6.78821 -0.66405,-1.72991 -0.60511,-1.86502 -0.49092,-1.95802 0.1142,-0.0931 0.28345,-0.1441 5.0586,0.33383 4.77516,0.47794 14.15608,1.48462 18.96939,1.9668 4.81331,0.48218 5.05845,0.43985 5.20226,0.34675 0.14381,-0.0931 0.18649,-0.2369 -0.45217,-2.17403 -0.63866,-1.93713 -1.95828,-5.66761 -2.54196,-7.64708 -0.58369,-1.97947 -0.43166,-2.20747 5.55315,-3.01532 5.98481,-0.80785 17.80209,-2.19531 23.74894,-2.92281 5.94684,-0.72749 6.02287,-0.79523 6.04407,-0.86713 0.0212,-0.0719 -0.0129,-0.14797 -8.99221,-1.76786 -8.97931,-1.6199 -26.90378,-4.78346 -35.98902,-6.39495 -9.08523,-1.61152 -9.33054,-1.67078 -9.52087,-1.64538 -0.19028,0.0254 -0.32531,0.13507 -0.063,1.84381 0.26224,1.70873 0.92173,5.01648 1.27279,6.81406 0.35109,1.79759 0.39299,2.08492 0.38499,2.30063 -0.008,0.21571 -0.0678,0.35989 -0.15658,0.44029 -0.0888,0.0804 -0.20698,0.0971 -2.78278,-0.28784 -2.57579,-0.38488 -7.60901,-1.17154 -10.21023,-1.62833 -2.60122,-0.4568 -2.77057,-0.58367 -2.87631,-0.71055 -0.10574,-0.12689 -0.14763,-0.25362 0.601,-6.37377 0.74862,-6.12015 2.28811,-18.23336 3.04943,-24.39593 0.76134,-6.16257 0.74397,-6.37428 0.68057,-6.48849 -0.0635,-0.114 -0.17341,-0.13117 -0.27491,-0.11007 -0.10151,0.0211 -0.19446,0.0805 -2.15698,3.7052 -1.96252,3.62473 -5.79431,10.81468 -7.76955,14.46062 -1.97523,3.64593 -2.09365,3.74836 -2.22054,3.75636 -0.12689,0.008 -0.26205,-0.0765 -1.06143,-1.7725 -0.79939,-1.69605 -2.26281,-5.00345 -3.04529,-6.69107 -0.78248,-1.68765 -0.88404,-1.75572 -0.98134,-1.76372 -0.0973,-0.008 -0.19037,0.0423 -1.39578,2.08515 -1.20541,2.04286 -3.52318,6.07757 -4.74131,8.09511 -1.21813,2.01757 -1.33665,2.01761 -1.43816,1.96681 -0.10151,-0.0507 -0.18585,-0.15198 -1.08675,-3.15072 -0.90089,-2.99875 -2.61833,-8.89456 -3.44734,-11.91451 -0.82901,-3.01996 -0.76976,-3.16378 -0.68936,-3.24838 0.0803,-0.0846 0.18197,-0.11014 1.71307,0.6258 1.5311,0.73595 4.49152,2.23312 6.05648,3.00291 1.56496,0.76979 1.73427,0.81228 1.84847,0.76998 0.11422,-0.0423 0.17349,-0.16909 0.20309,-0.27905 0.0296,-0.10997 0.0297,-0.20297 -2.49959,-5.61258 -2.52927,-5.4096 -7.58775,-16.135815 -10.14667,-21.52013 -2.55893,-5.384319 -2.61816,-5.426608 -2.67736,-5.422408 z M 76.695922,132.1809 c 0.110511,-0.002 0.190701,-0.002 0.287321,0.0139 0.09662,0.0155 0.23246,0.0742 0.29869,0.12299 0.264667,0.19517 0.290525,0.40279 0.310575,0.45889 0.005,0.0141 0.03247,0.0603 0.03927,0.17156 0.0068,0.11126 -0.03793,0.24868 -0.07803,0.31678 -0.0802,0.13626 -0.117536,0.15234 -0.187586,0.22634 -0.140149,0.14816 -0.434427,0.46059 -0.789099,0.75396 -0.354671,0.29337 -0.747569,0.55005 -1.14825,0.7736 -0.400684,0.22353 -0.806179,0.41335 -1.124996,0.5426 -0.318803,0.12927 -0.614388,0.21606 -0.941545,0.20516 -0.327203,-0.0109 -0.621528,-0.0947 -0.929659,-0.1602 -0.308115,-0.0655 -0.634205,-0.12092 -0.949296,-0.12092 -0.315039,0 -0.654592,0.0562 -0.978751,0.15244 -0.324113,0.0962 -0.630978,0.23054 -0.952914,0.41186 -0.321934,0.18132 -0.638086,0.40067 -0.874882,0.64079 -0.236795,0.24014 -0.425186,0.52924 -0.60358,0.87488 -0.178395,0.34564 -0.334747,0.72594 -0.435633,1.08986 -0.100886,0.36392 -0.151381,0.72894 -0.165881,1.06247 -0.01451,0.33354 0.0069,0.61996 0.07028,0.88676 0.06338,0.26684 0.179954,0.5486 0.269234,0.80306 0.04464,0.12723 0.103898,0.39551 0.04496,0.65577 -0.05894,0.26025 -0.183271,0.529 -0.418063,0.95911 -0.469582,0.86021 -1.401649,2.35638 -1.954919,3.17604 -0.27664,0.40983 -0.453561,0.64581 -0.605131,0.81028 -0.15157,0.16447 -0.347125,0.28393 -0.484725,0.31833 -0.13751,0.0343 -0.430407,0.0117 -0.599447,-0.13642 -0.16904,-0.14812 -0.219368,-0.29994 -0.273368,-0.46716 -0.10805,-0.33441 -0.190237,-0.81277 -0.371037,-1.98592 -0.18079,-1.17316 -0.452823,-3.0288 -0.582393,-4.0411 -0.06481,-0.50615 -0.09435,-0.80083 -0.103353,-1.00976 -0.0087,-0.20894 0.01597,-0.37189 0.03927,-0.46509 0.0233,-0.0933 0.101131,-0.28971 0.253731,-0.49609 0.1526,-0.20638 0.396331,-0.4944 0.849561,-0.99012 0.90645,-0.99142 2.643098,-2.80633 3.558439,-3.75378 0.457671,-0.47373 0.706143,-0.72692 0.890902,-0.89245 0.18476,-0.16553 0.390787,-0.27422 0.521415,-0.30902 0.261031,-0.0695 0.544202,-0.0873 1.89084,-0.18346 1.346613,-0.0962 3.763884,-0.26358 5.031218,-0.34778 0.633665,-0.0422 0.975805,-0.0642 1.196826,-0.0682 z m 18.213359,1.60352 c 0.226256,-0.005 0.370325,0.005 0.509012,0.0279 0.138712,0.0227 0.34192,0.0823 0.611333,0.2248 0.269414,0.14249 0.653743,0.37527 1.316715,0.80046 1.32594,0.85038 3.756549,2.46572 5.050339,3.37137 0.64689,0.45283 1.00595,0.72397 1.23662,0.9276 0.23066,0.20362 0.36587,0.40641 0.41806,0.53536 0.0522,0.12896 0.0852,0.28955 0.10542,0.50953 0.0202,0.21997 0.0383,0.53924 0.0703,1.09968 0.0641,1.12088 0.18469,3.19785 0.20515,4.33979 0.0102,0.57097 -0.003,0.90145 -0.0413,1.1467 -0.0193,0.12262 -0.043,0.22868 -0.10128,0.34158 -0.0583,0.11291 -0.17732,0.2284 -0.26407,0.2775 -0.0869,0.0491 -0.2828,0.0961 -0.42736,0.0662 v 5.1e-4 c -0.14457,-0.0299 -0.23212,-0.0884 -0.31833,-0.14883 -0.17242,-0.12084 -0.35661,-0.29027 -0.68006,-0.60151 -0.6469,-0.62248 -1.81266,-1.7961 -2.46859,-2.50941 -0.327955,-0.35666 -0.529426,-0.59657 -0.669722,-0.8108 -0.140298,-0.21424 -0.217909,-0.43717 -0.236679,-0.61547 -0.03753,-0.35659 0.04788,-0.6266 0.07442,-0.8356 0.02652,-0.209 0.02657,-0.4408 0.0078,-0.73071 -0.01882,-0.2899 -0.05686,-0.61833 -0.125057,-0.92346 -0.0682,-0.30512 -0.165165,-0.58943 -0.31626,-0.88108 -0.151096,-0.29165 -0.358406,-0.58976 -0.599446,-0.83768 -0.241045,-0.24793 -0.531776,-0.46318 -0.848011,-0.64492 -0.316235,-0.18175 -0.642445,-0.32347 -1.00769,-0.42374 -0.36528,-0.10021 -0.779477,-0.15889 -1.138432,-0.16589 -0.358956,-0.007 -0.686507,0.0358 -0.976684,0.0822 -0.289985,0.0464 -0.531472,0.0938 -0.7891,0.12867 -0.257484,0.035 -0.517895,0.0554 -0.775663,0.0408 -0.257816,-0.0146 -0.593994,-0.10004 -1.169954,-0.42375 -0.575958,-0.32372 -1.477109,-0.89921 -1.929598,-1.18752 l -0.339514,-0.21653 0.0021,-0.004 c -0.02048,-0.0139 -0.06822,-0.0437 -0.0863,-0.0568 -0.0445,-0.0323 -0.09258,-0.0647 -0.152445,-0.14056 -0.05986,-0.0759 -0.09729,-0.18379 -0.101286,-0.19689 -0.01608,-0.0522 -0.133555,-0.34903 0.0646,-0.66043 0.09908,-0.15571 0.313676,-0.28231 0.517281,-0.33951 0.203605,-0.0572 0.471502,-0.1029 0.921908,-0.1602 0.900821,-0.11466 2.513399,-0.2654 3.449402,-0.3421 0.468005,-0.0383 0.776266,-0.0582 1.002523,-0.063 z m -29.381669,18.22266 c 0.33436,0.0114 0.543358,0.12271 1.122928,0.31419 0.57962,0.19153 1.480969,0.48089 2.410189,0.70332 0.92922,0.22242 1.907446,0.38225 2.740401,0.47645 0.832934,0.0942 1.526796,0.12299 1.982308,0.12299 0.455512,0 0.665336,-0.0263 0.914156,-0.0429 0.24882,-0.0166 0.5489,-0.0441 0.871265,0.12713 0.322469,0.17126 0.520961,0.47336 0.552421,0.82992 0.03147,0.35656 -0.103816,0.58519 -0.171566,0.76585 -0.06775,0.18065 -0.10882,0.37165 -0.10542,0.43925 0.0034,0.0676 -0.08238,-0.0103 0.08578,0.0605 0.168149,0.0708 0.621242,0.15455 1.335836,0.17415 0.714598,0.0196 1.686096,-0.0101 2.632914,-0.14676 0.946846,-0.13666 1.900969,-0.38362 2.638599,-0.61134 0.737632,-0.22774 1.253945,-0.43369 1.583883,-0.59169 0.329936,-0.158 0.505811,-0.29786 0.816487,-0.39636 0.310618,-0.0985 0.640227,-0.1173 0.966866,0.031 0.326659,0.14852 0.503671,0.43095 0.586011,0.67799 0.08235,0.24703 0.07775,0.46698 0.07235,0.63459 -0.0025,0.0781 -8.6e-4,0.11141 -10e-4,0.12764 0.01591,0.003 0.10015,0.0573 0.225309,0.0698 0.150985,0.0151 0.380205,-0.0159 1.027327,-0.1664 0.647073,-0.15048 1.663799,-0.40276 2.519743,-0.68316 0.855943,-0.28039 1.573532,-0.59521 2.325956,-0.95136 0.752423,-0.35614 1.53085,-0.75046 1.961121,-0.99219 0.430269,-0.24172 0.516446,-0.33668 0.746208,-0.45527 0.114948,-0.0594 0.256926,-0.12056 0.444934,-0.13436 0.188008,-0.0138 0.437406,0.0471 0.615466,0.20671 0.356179,0.31933 0.403532,0.7026 0.470772,1.15652 0.06724,0.4539 0.08606,0.96419 0.120923,1.47226 0.03486,0.50805 0.08587,1.03213 0.12144,1.40818 0.144017,1.44381 0.935776,0.19491 1.943034,-0.28887 1.215937,-0.76823 3.387297,-2.11802 4.527367,-2.86133 1.14008,-0.74331 1.2054,-0.84652 1.43557,-1.0175 0.23017,-0.17099 0.48572,-0.30704 0.7736,-0.37104 0.144,-0.0322 0.29464,-0.0467 0.46302,-0.006 0.16838,0.0405 0.36121,0.16124 0.46457,0.3421 0.20673,0.3618 0.10368,0.59238 0.0935,0.68368 -0.005,0.0457 -0.0162,0.12485 -0.0367,0.19895 -0.0185,0.0669 -0.0484,0.15467 -0.092,0.28939 v 0.002 c -0.005,0.0138 -0.005,0.0143 -0.01,0.0294 -0.10651,0.32968 -0.32138,1.00108 -0.61133,1.75183 -0.28995,0.75077 -0.65507,1.58167 -1.14257,2.49443 -0.48749,0.91277 -1.09754,1.90699 -1.79472,2.80861 -0.69718,0.9016 -1.46105,1.68551 -1.91048,2.11925 -0.22471,0.21687 -0.37351,0.35017 -0.50591,0.44907 -0.13239,0.0989 -0.277,0.16865 -0.38085,0.19895 -0.20774,0.0606 -0.59381,0.0351 -0.839742,-0.18138 -0.245947,-0.21642 -0.362339,-0.46105 -0.47439,-0.67955 -0.07935,-0.15474 -0.105568,-0.20271 -0.132808,-0.25631 -0.132576,0.0328 -0.342736,0.10241 -1.05885,0.55294 -0.746486,0.46965 -1.988229,1.32548 -2.99775,1.92391 -1.009519,0.59842 -1.773065,0.92787 -2.308903,1.13275 -0.535832,0.20488 -0.87888,0.29861 -1.173572,0.34571 -0.294701,0.0472 -0.613092,0.0938 -0.941545,-0.12092 -0.328571,-0.21477 -0.402395,-0.53762 -0.451135,-0.78135 -0.04875,-0.24376 -0.08081,-0.52294 -0.02739,-0.82062 0.05344,-0.29768 0.182131,-0.51259 0.252181,-0.64802 0.07005,-0.13541 0.08987,-0.20673 0.09147,-0.22893 5e-4,-0.008 -0.0031,-0.0138 -0.0057,-0.0253 -0.01967,-0.002 -0.01375,-0.005 -0.08217,0.002 -0.234436,0.0223 -0.764434,0.1496 -1.316199,0.27337 -0.551743,0.12375 -1.135165,0.23848 -1.941483,0.36173 -0.806317,0.12326 -1.846854,0.25795 -2.843754,0.27905 -0.996907,0.0211 -1.916216,-0.0735 -2.660303,-0.16588 -0.744085,-0.0924 -1.333288,-0.18171 -1.782837,-0.30851 -0.449542,-0.12679 -0.805433,-0.3194 -1.013892,-0.64078 -0.208447,-0.32138 -0.236795,-0.65469 -0.222725,-0.92191 0.01299,-0.24698 0.04781,-0.36651 0.05271,-0.40411 -0.0023,-0.002 0.0093,0.004 -0.03721,-0.0176 -0.146379,-0.0676 -0.638876,-0.18124 -1.503784,-0.41806 -0.864908,-0.23682 -2.105304,-0.6136 -3.095419,-0.95912 -0.990112,-0.34551 -1.720857,-0.65716 -2.248441,-0.93172 -0.52756,-0.27456 -0.869168,-0.5072 -1.097608,-0.81443 -0.2284,-0.30721 -0.258079,-0.66939 -0.245979,-0.89245 0.01208,-0.22289 0.04835,-0.44989 0.109554,-0.67024 0.0566,-0.20397 0.08492,-0.31788 0.08992,-0.34158 -0.01595,-0.0176 -0.05773,-0.0636 -0.187586,-0.14263 -0.28898,-0.17589 -0.923117,-0.46098 -1.552877,-0.79685 -0.62976,-0.33587 -1.244629,-0.72197 -1.796789,-1.10743 -0.55215,-0.38547 -1.036416,-0.76675 -1.353406,-1.04076 -0.317,-0.27401 -0.497732,-0.47045 -0.611332,-0.69763 -0.11361,-0.22717 -0.151808,-0.45461 -0.132808,-0.66404 0.0095,-0.10485 0.03105,-0.26528 0.171565,-0.42375 0.14052,-0.15845 0.374083,-0.22459 0.541053,-0.21859 z"
       transform="translate(284.91447,-81.705368)" /></g></svg>
