<?xml version="1.0" encoding="UTF-8" standalone="no"?>
<svg
   id="Ebene_2"
   data-name="Ebene 2"
   viewBox="0 0 214341.22 41192.76"
   version="1.1"
   sodipodi:docname="defcon-nerdflare-badge-elements.svg"
   inkscape:export-filename="power-up.svg"
   inkscape:export-xdpi="96"
   inkscape:export-ydpi="96"
   width="214341.22"
   height="41192.762"
   xmlns:inkscape="http://www.inkscape.org/namespaces/inkscape"
   xmlns:sodipodi="http://sodipodi.sourceforge.net/DTD/sodipodi-0.dtd"
   xmlns="http://www.w3.org/2000/svg"
   xmlns:svg="http://www.w3.org/2000/svg">
  <sodipodi:namedview
     id="namedview54"
     pagecolor="#ffffff"
     bordercolor="#000000"
     borderopacity="0.25"
     inkscape:showpageshadow="2"
     inkscape:pageopacity="0.0"
     inkscape:pagecheckerboard="0"
     inkscape:deskcolor="#d1d1d1">
    <inkscape:page
       x="0"
       y="0"
       width="214341.22"
       height="41192.762"
       id="page2"
       margin="0"
       bleed="0" />
  </sodipodi:namedview>
  <defs
     id="defs1">
    <style
       id="style1">
      .cls-1, .cls-2 {
        fill: #fff;
      }

      .cls-3 {
        letter-spacing: 0em;
      }

      .cls-2 {
        font-family: ProximaNova-Medium, 'Proxima Nova';
        font-size: 12px;
        font-weight: 500;
      }
    </style>
  </defs>
  <g
     id="Ebene_1-2"
     data-name="Ebene 1"
     style="fill:#000000;fill-opacity:1">
    <g
       id="g54"
       style="display:inline;fill:#000000;fill-opacity:1">
      <g
         id="g52"
         style="fill:#000000;fill-opacity:1">
        <path
           class="cls-1"
           d="m 282,138.85 h 7.35 c 3.3,0 5.1,2.22 5.1,4.88 0,2.66 -1.8,4.82 -5.1,4.82 h -3.56 v 4.97 h -3.78 v -14.68 z m 6.85,3.19 h -3.06 v 3.3 h 3.06 c 1.01,0 1.76,-0.64 1.76,-1.63 0,-0.99 -0.75,-1.67 -1.76,-1.67 z"
           id="path29"
           style="fill:#000000;fill-opacity:1" />
        <path
           class="cls-1"
           d="m 303.26,138.61 c 4.49,0 7.83,3.12 7.83,7.59 0,4.47 -3.34,7.59 -7.83,7.59 -4.49,0 -7.86,-3.12 -7.86,-7.59 0,-4.47 3.37,-7.59 7.86,-7.59 z m 0,3.34 c -2.44,0 -4,1.85 -4,4.25 0,2.4 1.56,4.25 4,4.25 2.44,0 3.98,-1.87 3.98,-4.25 0,-2.38 -1.56,-4.25 -3.98,-4.25 z"
           id="path30"
           style="fill:#000000;fill-opacity:1" />
        <path
           class="cls-1"
           d="m 321.54,144.33 -2.22,9.2 h -4 l -4.2,-14.68 h 4.25 l 2.22,9.79 2.51,-9.79 h 2.9 l 2.51,9.79 2.2,-9.79 h 4.27 l -4.2,14.68 h -4 l -2.22,-9.2 z"
           id="path31"
           style="fill:#000000;fill-opacity:1" />
        <path
           class="cls-1"
           d="m 333.15,138.85 h 10.76 v 3.19 h -6.97 v 2.44 h 6.82 v 3.21 h -6.82 v 2.64 h 6.97 v 3.19 h -10.76 v -14.68 z"
           id="path32"
           style="fill:#000000;fill-opacity:1" />
        <path
           class="cls-1"
           d="m 351.83,148.55 h -1.94 v 4.97 h -3.78 v -14.68 h 7.35 c 3.26,0 5.1,2.16 5.1,4.88 0,2.55 -1.56,3.92 -2.93,4.4 l 2.99,5.39 h -4.33 l -2.46,-4.97 z m 1.06,-6.51 h -2.99 v 3.3 h 2.99 c 0.99,0 1.83,-0.64 1.83,-1.65 0,-1.01 -0.84,-1.65 -1.83,-1.65 z"
           id="path33"
           style="fill:#000000;fill-opacity:1" />
        <path
           class="cls-1"
           d="m 366.29,138.85 h 3.85 v 8.6 c 0,1.74 0.92,2.99 2.97,2.99 2.05,0 2.95,-1.25 2.95,-2.99 v -8.6 h 3.85 v 8.71 c 0,3.65 -2.09,6.23 -6.8,6.23 -4.71,0 -6.82,-2.6 -6.82,-6.2 z"
           id="path34"
           style="fill:#000000;fill-opacity:1" />
        <path
           class="cls-1"
           d="m 382.54,138.85 h 7.35 c 3.3,0 5.1,2.22 5.1,4.88 0,2.66 -1.8,4.82 -5.1,4.82 h -3.56 v 4.97 h -3.78 v -14.68 z m 6.85,3.19 h -3.06 v 3.3 h 3.06 c 1.01,0 1.76,-0.64 1.76,-1.63 0,-0.99 -0.75,-1.67 -1.76,-1.67 z"
           id="path35"
           style="fill:#000000;fill-opacity:1" />
        <path
           class="cls-1"
           d="m 406.33,147.61 -5.57,-8.76 h 4.27 l 3.19,5.41 3.15,-5.41 h 4.29 l -5.54,8.76 v 5.92 h -3.78 v -5.92 z"
           id="path36"
           style="fill:#000000;fill-opacity:1" />
        <path
           class="cls-1"
           d="m 422.96,138.61 c 4.49,0 7.83,3.12 7.83,7.59 0,4.47 -3.34,7.59 -7.83,7.59 -4.49,0 -7.85,-3.12 -7.85,-7.59 0,-4.47 3.37,-7.59 7.85,-7.59 z m 0,3.34 c -2.44,0 -4,1.85 -4,4.25 0,2.4 1.56,4.25 4,4.25 2.44,0 3.98,-1.87 3.98,-4.25 0,-2.38 -1.56,-4.25 -3.98,-4.25 z"
           id="path37"
           style="fill:#000000;fill-opacity:1" />
        <path
           class="cls-1"
           d="m 432.7,138.85 h 3.85 v 8.6 c 0,1.74 0.92,2.99 2.97,2.99 2.05,0 2.95,-1.25 2.95,-2.99 v -8.6 h 3.85 v 8.71 c 0,3.65 -2.09,6.23 -6.8,6.23 -4.71,0 -6.82,-2.6 -6.82,-6.2 z"
           id="path38"
           style="fill:#000000;fill-opacity:1" />
        <path
           class="cls-1"
           d="m 454.68,148.55 h -1.94 v 4.97 h -3.78 v -14.68 h 7.35 c 3.26,0 5.11,2.16 5.11,4.88 0,2.55 -1.56,3.92 -2.93,4.4 l 2.99,5.39 h -4.33 l -2.46,-4.97 z m 1.06,-6.51 h -2.99 v 3.3 h 2.99 c 0.99,0 1.83,-0.64 1.83,-1.65 0,-1.01 -0.84,-1.65 -1.83,-1.65 z"
           id="path39"
           style="fill:#000000;fill-opacity:1" />
        <path
           class="cls-1"
           d="m 286.93,170.55 h -1.94 v 4.97 h -3.78 v -14.68 h 7.35 c 3.26,0 5.1,2.16 5.1,4.88 0,2.55 -1.56,3.92 -2.93,4.4 l 2.99,5.39 h -4.33 l -2.46,-4.97 z m 1.06,-6.51 H 285 v 3.3 h 2.99 c 0.99,0 1.83,-0.64 1.83,-1.65 0,-1.01 -0.84,-1.65 -1.83,-1.65 z"
           id="path40"
           style="fill:#000000;fill-opacity:1" />
        <path
           class="cls-1"
           d="m 295.75,160.85 h 3.78 v 14.68 h -3.78 z"
           id="path41"
           style="fill:#000000;fill-opacity:1" />
        <path
           class="cls-1"
           d="m 309.37,160.61 c 3.21,0 5.19,1.58 6.27,3.41 l -3.17,1.67 c -0.59,-0.97 -1.72,-1.74 -3.1,-1.74 -2.4,0 -4.09,1.85 -4.09,4.25 0,2.4 1.69,4.25 4.09,4.25 1.14,0 2.18,-0.4 2.77,-0.88 v -1.23 h -3.37 v -3.15 h 7.09 v 5.74 c -1.58,1.74 -3.72,2.86 -6.49,2.86 -4.38,0 -7.94,-2.93 -7.94,-7.59 0,-4.66 3.56,-7.59 7.94,-7.59 z"
           id="path42"
           style="fill:#000000;fill-opacity:1" />
        <path
           class="cls-1"
           d="m 327.96,169.63 h -6.09 v 5.9 h -3.78 v -14.68 h 3.78 v 5.48 h 6.09 v -5.48 h 3.79 v 14.68 h -3.79 z"
           id="path43"
           style="fill:#000000;fill-opacity:1" />
        <path
           class="cls-1"
           d="m 337.66,164.15 h -4.12 v -3.3 h 11.99 v 3.3 h -4.09 v 11.38 h -3.78 z"
           id="path44"
           style="fill:#000000;fill-opacity:1" />
        <path
           class="cls-1"
           d="m 356.25,164.15 h -4.12 v -3.3 h 11.99 v 3.3 h -4.09 v 11.38 h -3.78 z"
           id="path45"
           style="fill:#000000;fill-opacity:1" />
        <path
           class="cls-1"
           d="m 372.56,160.61 c 4.49,0 7.83,3.12 7.83,7.59 0,4.47 -3.34,7.59 -7.83,7.59 -4.49,0 -7.86,-3.12 -7.86,-7.59 0,-4.47 3.37,-7.59 7.86,-7.59 z m 0,3.34 c -2.44,0 -4,1.85 -4,4.25 0,2.4 1.56,4.25 4,4.25 2.44,0 3.98,-1.87 3.98,-4.25 0,-2.38 -1.56,-4.25 -3.98,-4.25 z"
           id="path46"
           style="fill:#000000;fill-opacity:1" />
        <path
           class="cls-1"
           d="m 393.65,170.55 h -1.94 v 4.97 h -3.78 v -14.68 h 7.35 c 3.26,0 5.1,2.16 5.1,4.88 0,2.55 -1.56,3.92 -2.93,4.4 l 2.99,5.39 h -4.33 l -2.46,-4.97 z m 1.06,-6.51 h -2.99 v 3.3 h 2.99 c 0.99,0 1.83,-0.64 1.83,-1.65 0,-1.01 -0.84,-1.65 -1.83,-1.65 z"
           id="path47"
           style="fill:#000000;fill-opacity:1" />
        <path
           class="cls-1"
           d="m 402.47,160.85 h 10.76 v 3.19 h -6.98 v 2.44 h 6.82 v 3.21 h -6.82 v 2.64 h 6.98 v 3.19 h -10.76 v -14.68 z"
           id="path48"
           style="fill:#000000;fill-opacity:1" />
        <path
           class="cls-1"
           d="m 415.43,160.85 h 7.35 c 3.3,0 5.11,2.22 5.11,4.88 0,2.66 -1.8,4.82 -5.11,4.82 h -3.56 v 4.97 h -3.78 v -14.68 z m 6.85,3.19 h -3.06 v 3.3 h 3.06 c 1.01,0 1.76,-0.64 1.76,-1.63 0,-0.99 -0.75,-1.67 -1.76,-1.67 z"
           id="path49"
           style="fill:#000000;fill-opacity:1" />
        <path
           class="cls-1"
           d="m 437.39,173.3 h -6.09 l -0.75,2.22 h -4.12 l 5.52,-14.68 h 4.75 l 5.54,14.68 h -4.11 l -0.75,-2.22 z m -5.11,-3.19 h 4.12 l -2.07,-5.96 z"
           id="path50"
           style="fill:#000000;fill-opacity:1" />
        <path
           class="cls-1"
           d="m 443.33,160.85 h 3.78 v 14.68 h -3.78 z"
           id="path51"
           style="fill:#000000;fill-opacity:1" />
        <path
           class="cls-1"
           d="m 455.47,170.55 h -1.94 v 4.97 h -3.78 v -14.68 h 7.35 c 3.26,0 5.11,2.16 5.11,4.88 0,2.55 -1.56,3.92 -2.93,4.4 l 2.99,5.39 h -4.33 l -2.46,-4.97 z m 1.06,-6.51 h -2.99 v 3.3 h 2.99 c 0.99,0 1.83,-0.64 1.83,-1.65 0,-1.01 -0.84,-1.65 -1.83,-1.65 z"
           id="path52"
           style="fill:#000000;fill-opacity:1" />
      </g>
      <text
         class="cls-2"
         transform="translate(327.54,198.88)"
         id="text54"
         style="display:none;fill:#000000;fill-opacity:1"><tspan
           x="0"
           y="0"
           id="tspan52"
           style="fill:#000000;fill-opacity:1">ifixit</tspan><tspan
           class="cls-3"
           x="21.5"
           y="0"
           id="tspan53"
           style="fill:#000000;fill-opacity:1">.</tspan><tspan
           x="24.290001"
           y="0"
           id="tspan54"
           style="fill:#000000;fill-opacity:1">com/FixHub</tspan></text>
      <g
         id="text57"
         style="font-weight:500;font-size:12px;font-family:ProximaNova-Medium, 'Proxima Nova';fill:#000000;fill-opacity:1"
         class="cls-2"
         transform="translate(327.54,198.88)"
         aria-label="ifixit.com/FixHub">
        <path
           d="m 1.344,-6.624 q -0.24,0 -0.42,-0.168 -0.18,-0.18 -0.18,-0.432 0,-0.252 0.18,-0.432 0.18,-0.18 0.42,-0.18 0.252,0 0.432,0.18 0.18,0.18 0.18,0.432 0,0.252 -0.18,0.432 -0.18,0.168 -0.432,0.168 z M 0.9,0 V -5.796 H 1.8 V 0 Z m 2.9520046,0 v -5.004 h -0.96 v -0.792 h 0.96 V -6.24 q 0,-0.9 0.456,-1.392 0.468,-0.492 1.224,-0.492 0.252,0 0.48,0.048 0.228,0.048 0.396,0.156 l -0.228,0.684 q -0.096,-0.06 -0.228,-0.096 -0.12,-0.048 -0.288,-0.048 -0.444,0 -0.684,0.3 -0.228,0.288 -0.228,0.84 v 0.444 h 1.176 v 0.792 h -1.176 V 0 Z m 3.588,-6.624 q -0.24,0 -0.42,-0.168 -0.18,-0.18 -0.18,-0.432 0,-0.252 0.18,-0.432 0.18,-0.18 0.42,-0.18 0.252,0 0.432,0.18 0.18,0.18 0.18,0.432 0,0.252 -0.18,0.432 -0.18,0.168 -0.432,0.168 z M 6.9960046,0 v -5.796 h 0.9 V 0 Z m 6.4680094,0 -1.74,-2.376 L 9.9840139,0 h -1.032 l 2.2200001,-2.976 -2.1000001,-2.82 h 1.0440001 l 1.608,2.208 1.608,-2.208 h 1.044 l -2.1,2.82 2.232,2.976 z m 2.520001,-6.624 q -0.24,0 -0.42,-0.168 -0.18,-0.18 -0.18,-0.432 0,-0.252 0.18,-0.432 0.18,-0.18 0.42,-0.18 0.252,0 0.432,0.18 0.18,0.18 0.18,0.432 0,0.252 -0.18,0.432 -0.18,0.168 -0.432,0.168 z M 15.540015,0 v -5.796 h 0.9 V 0 Z m 4.164004,0.144 q -0.648,0 -0.972,-0.348 -0.312,-0.36 -0.312,-1.008 v -3.792 h -0.96 v -0.792 h 0.96 V -7.38 h 0.9 v 1.584 h 1.176 v 0.792 h -1.176 v 3.6 q 0,0.324 0.144,0.54 0.144,0.204 0.444,0.204 0.192,0 0.348,-0.072 0.168,-0.072 0.264,-0.168 l 0.264,0.672 q -0.168,0.168 -0.432,0.264 -0.252,0.108 -0.648,0.108 z"
           id="path59"
           style="fill:#000000;fill-opacity:1" />
        <path
           style="letter-spacing:0em;fill:#000000;fill-opacity:1"
           d="m 22.88,0.12 q -0.276,0 -0.468,-0.192 -0.192,-0.192 -0.192,-0.468 0,-0.276 0.192,-0.468 0.192,-0.192 0.468,-0.192 0.276,0 0.468,0.192 0.192,0.192 0.192,0.468 0,0.276 -0.192,0.468 Q 23.156,0.12 22.88,0.12 Z"
           id="path60" />
        <path
           d="m 27.746001,0.144 q -0.648,0 -1.188,-0.228 -0.528,-0.24 -0.912,-0.648 -0.372,-0.408 -0.588,-0.96 -0.204,-0.564 -0.204,-1.212 0,-0.648 0.204,-1.2 0.216,-0.552 0.588,-0.96 0.384,-0.408 0.912,-0.636 0.54,-0.24 1.188,-0.24 0.792,0 1.284,0.288 0.504,0.288 0.84,0.72 l -0.6,0.552 q -0.288,-0.396 -0.66,-0.576 -0.36,-0.18 -0.816,-0.18 -0.468,0 -0.84,0.168 -0.36,0.168 -0.624,0.468 -0.264,0.3 -0.408,0.708 -0.132,0.408 -0.132,0.888 0,0.48 0.132,0.9 0.144,0.408 0.408,0.708 0.264,0.3 0.624,0.468 0.372,0.168 0.84,0.168 0.912,0 1.476,-0.756 l 0.6,0.552 q -0.336,0.432 -0.84,0.72 -0.492,0.288 -1.284,0.288 z m 5.91601,0 q -0.66,0 -1.2,-0.24 -0.528,-0.24 -0.9,-0.648 -0.372,-0.42 -0.576,-0.972 -0.192,-0.552 -0.192,-1.188 0,-0.624 0.192,-1.176 0.204,-0.564 0.576,-0.972 0.372,-0.408 0.9,-0.648 0.54,-0.24 1.2,-0.24 0.66,0 1.188,0.24 0.54,0.24 0.912,0.648 0.372,0.408 0.564,0.972 0.204,0.552 0.204,1.176 0,0.636 -0.204,1.188 -0.192,0.552 -0.564,0.972 -0.372,0.408 -0.912,0.648 -0.528,0.24 -1.188,0.24 z m 0,-0.804 q 0.468,0 0.816,-0.18 0.36,-0.192 0.6,-0.492 0.252,-0.312 0.372,-0.72 0.132,-0.408 0.132,-0.852 0,-0.444 -0.132,-0.84 -0.12,-0.408 -0.372,-0.708 -0.24,-0.312 -0.6,-0.492 -0.348,-0.192 -0.816,-0.192 -0.468,0 -0.828,0.192 -0.36,0.18 -0.612,0.492 -0.24,0.3 -0.372,0.708 -0.12,0.396 -0.12,0.84 0,0.444 0.12,0.852 0.132,0.408 0.372,0.72 0.252,0.3 0.612,0.492 0.36,0.18 0.828,0.18 z M 44.990017,0 v -3.936 q 0,-0.552 -0.252,-0.876 -0.252,-0.324 -0.816,-0.324 -0.456,0 -0.888,0.276 -0.42,0.264 -0.648,0.612 V 0 h -0.9 v -3.936 q 0,-0.552 -0.252,-0.876 -0.24,-0.324 -0.816,-0.324 -0.444,0 -0.864,0.276 -0.42,0.276 -0.66,0.624 V 0 h -0.9 v -5.796 h 0.9 v 0.84 q 0.084,-0.144 0.264,-0.312 0.192,-0.168 0.444,-0.312 0.252,-0.156 0.54,-0.252 0.3,-0.108 0.624,-0.108 0.672,0 1.044,0.312 0.384,0.312 0.516,0.768 0.12,-0.192 0.324,-0.384 0.204,-0.204 0.456,-0.348 0.252,-0.156 0.552,-0.252 0.3,-0.096 0.612,-0.096 0.792,0 1.2,0.444 0.42,0.432 0.42,1.308 V 0 Z m 1.800007,0.24 2.844,-8.484 h 0.708 l -2.844,8.484 z M 51.278018,0 v -8.004 h 5.244 v 0.888 h -4.248 v 2.58 h 4.164 v 0.888 h -4.164 V 0 Z m 7.007991,-6.624 q -0.24,0 -0.42,-0.168 -0.18,-0.18 -0.18,-0.432 0,-0.252 0.18,-0.432 0.18,-0.18 0.42,-0.18 0.252,0 0.432,0.18 0.18,0.18 0.18,0.432 0,0.252 -0.18,0.432 -0.18,0.168 -0.432,0.168 z M 57.842009,0 v -5.796 h 0.9 V 0 Z m 6.456005,0 -1.74,-2.376 -1.74,2.376 h -1.032 l 2.22,-2.976 -2.1,-2.82 h 1.044 l 1.608,2.208 1.608,-2.208 h 1.044 l -2.1,2.82 2.232,2.976 z m 7.788,0 v -3.672 h -4.68 V 0 h -0.996 v -8.004 h 0.996 v 3.444 h 4.68 v -3.444 h 0.996 V 0 Z m 6.743999,0 v -0.816 q -0.336,0.384 -0.876,0.672 -0.54,0.288 -1.188,0.288 -0.912,0 -1.38,-0.444 -0.468,-0.456 -0.468,-1.404 v -4.092 h 0.9 v 3.816 q 0,0.384 0.084,0.636 0.096,0.252 0.264,0.408 0.18,0.156 0.42,0.216 0.24,0.06 0.528,0.06 0.528,0 0.996,-0.264 0.468,-0.264 0.72,-0.612 v -4.26 h 0.9 V 0 Z m 3.600007,-1.572 q 0.24,0.384 0.708,0.648 0.48,0.264 1.02,0.264 0.444,0 0.792,-0.168 0.348,-0.168 0.588,-0.468 0.24,-0.3 0.36,-0.708 0.132,-0.408 0.132,-0.888 0,-0.48 -0.132,-0.888 -0.12,-0.42 -0.36,-0.72 -0.24,-0.3 -0.588,-0.468 -0.348,-0.168 -0.792,-0.168 -0.54,0 -1.02,0.276 -0.468,0.276 -0.708,0.66 z m -0.9,1.572 v -8.004 h 0.9 v 3.084 q 0.348,-0.48 0.852,-0.744 0.504,-0.276 1.104,-0.276 0.564,0 1.032,0.216 0.48,0.216 0.816,0.612 0.348,0.396 0.54,0.96 0.192,0.564 0.192,1.26 0,0.708 -0.192,1.272 -0.192,0.564 -0.54,0.96 -0.336,0.384 -0.816,0.6 -0.468,0.204 -1.032,0.204 -0.612,0 -1.128,-0.276 -0.504,-0.288 -0.828,-0.732 V 0 Z"
           id="path61"
           style="fill:#000000;fill-opacity:1" />
      </g>
    </g>
  </g>
</svg>
